<?xml version="1.0" encoding="iso-8859-1"?>
<!-- Generator: Adobe Illustrator 17.1.0, SVG Export Plug-In . SVG Version: 6.00 Build 0)  -->
<!DOCTYPE svg PUBLIC "-//W3C//DTD SVG 1.1//EN" "http://www.w3.org/Graphics/SVG/1.1/DTD/svg11.dtd">
<svg version="1.1" id="Layer_1" xmlns="http://www.w3.org/2000/svg" xmlns:xlink="http://www.w3.org/1999/xlink" x="0px" y="0px"
	 viewBox="0 0 800 800" style="enable-background:new 0 0 800 800;" xml:space="preserve">
<path d="M758.87,480.65c10.538,10.193,14.248,25.541,9.687,39.474c-50.757,155.066-196.793,267.402-368.502,267.402
	c-133.125,0-254.899-67.248-325.88-177.792c-3.058-4.762-8.791-7.035-14.233-5.484l-43.618,12.43
	c-9.48,2.702-18.329-5.875-15.924-15.435l37.733-150.037l7.419-29.676c2.391-9.566,14.244-12.951,21.327-6.091l36.93,35.768
	l96.217,93.142c7.081,6.855,4.086,18.804-5.39,21.509l-48.194,13.757c57.738,81.679,151.579,131.096,253.614,131.096
	c137.704,0,254.748-90.002,295.331-214.289c8.842-27.08,42.339-36.226,62.815-16.421L758.87,480.65z M730.995,198.235
	C660.71,83.014,536.271,12.473,400.055,12.473c-171.832,0-317.758,112.337-368.503,267.404c-4.559,13.933-0.85,29.279,9.688,39.471
	l0.664,0.643c20.478,19.807,53.977,10.657,62.817-16.427C145.282,179.284,262.244,89.287,400.055,89.287
	c101.906,0,195.747,49.289,253.486,130.968l-48.195,13.757c-9.477,2.705-12.471,14.654-5.391,21.509L696.3,348.79l36.93,35.768
	c7.083,6.86,18.935,3.474,21.327-6.091l7.419-29.676l37.627-150.17c2.395-9.56-6.456-18.127-15.933-15.422L730.995,198.235z
	 M393.7,371.614l-21.674,32.909v0.397h27.898v-32.104c0-7.833,1.202-16.052,1.202-16.052h-0.397
	C400.728,356.764,397.713,365.595,393.7,371.614z M607.422,399.949c0,114.555-92.865,207.419-207.419,207.419
	c-114.555,0-207.419-92.864-207.419-207.419c0-114.554,92.864-207.419,207.419-207.419
	C514.557,192.53,607.422,285.395,607.422,399.949z M321.391,438.644h-61.01c1.003-18.466,58.8-27.093,58.8-71.848
	c0-30.505-25.484-43.95-48.966-43.95c-37.324,0-50.57,30.902-50.57,30.902l26.09,17.458c0,0,7.624-15.247,21.272-15.247
	c7.425,0,15.451,4.217,15.451,14.249c0,20.666-62.014,30.097-62.014,83.082c0,4.818,0.606,9.829,1.609,15.451h99.338V438.644z
	 M451.706,404.92h-17.061v-79.67h-42.952l-55.388,87.502v21.267h63.618v34.722h34.722V434.02h17.061V404.92z M577.686,468.742
	v-67.03c0-29.1-16.256-38.735-37.126-38.735c-13.648,0-25.687,6.223-31.503,16.46h-0.408c0,0,0.408-3.616,0.408-8.831V325.25
	h-34.722v143.491h34.722v-45.752c0-4.818,0.397-9.238,1.803-13.251c3.015-9.024,10.032-15.247,20.666-15.247
	c7.629,0,11.438,4.013,11.438,13.648v60.603H577.686z"/>
</svg>
