<?xml version="1.0" encoding="iso-8859-1"?>
<!-- Generator: Adobe Illustrator 17.1.0, SVG Export Plug-In . SVG Version: 6.00 Build 0)  -->
<!DOCTYPE svg PUBLIC "-//W3C//DTD SVG 1.1//EN" "http://www.w3.org/Graphics/SVG/1.1/DTD/svg11.dtd">
<svg version="1.1" id="Layer_1" xmlns="http://www.w3.org/2000/svg" xmlns:xlink="http://www.w3.org/1999/xlink" x="0px" y="0px"
	 viewBox="0 0 800 800" style="enable-background:new 0 0 800 800;" xml:space="preserve">
<path d="M482.104,217.173C482.104,43.009,433.289,0,400,0s-82.104,43.009-82.104,217.173L46.558,407.194
	c-3.127,2.19-5.686,7.105-5.686,10.923v73.048c0,9.142,7.302,14.999,16.226,13.018l259.365-57.597
	c9.827,77.125,26.474,146.117,37.094,216.988l-99.446,76.701c-2.777,2.202-5.049,6.904-5.049,10.448v35.468
	c0,11.3,8.444,16.781,18.765,12.179L400,739.438l132.172,58.932c10.321,4.602,18.765-0.879,18.765-12.179v-35.468
	c0-3.544-2.272-8.246-5.049-10.448l-99.446-76.701c10.62-70.871,27.266-139.864,37.094-216.988l259.365,57.596
	c8.924,1.982,16.226-3.876,16.226-13.018v-73.049c0-3.818-2.559-8.733-5.686-10.923L482.104,217.173z M400,80.402
	c-16.752,0-32.536,3.688-46.626,10.079c5.025-19.574,23.93-34.18,46.626-34.18c22.696,0,41.6,14.606,46.625,34.179
	C432.535,84.089,416.751,80.402,400,80.402z"/>
</svg>
