<?xml version="1.0" encoding="iso-8859-1"?>
<!-- Generator: Adobe Illustrator 17.1.0, SVG Export Plug-In . SVG Version: 6.00 Build 0)  -->
<!DOCTYPE svg PUBLIC "-//W3C//DTD SVG 1.1//EN" "http://www.w3.org/Graphics/SVG/1.1/DTD/svg11.dtd">
<svg version="1.1" id="Layer_1" xmlns="http://www.w3.org/2000/svg" xmlns:xlink="http://www.w3.org/1999/xlink" x="0px" y="0px"
	 viewBox="0 0 800 800" style="enable-background:new 0 0 800 800;" xml:space="preserve">
<path d="M44.25,535.993H11.353C5.083,535.993,0,530.91,0,524.64V91.386c0-6.27,5.083-11.353,11.353-11.353H44.25
	c6.27,0,11.353,5.083,11.353,11.353V524.64C55.603,530.91,50.52,535.993,44.25,535.993z M180.841,80.033h-55.864
	c-6.27,0-11.353,5.083-11.353,11.353V524.64c0,6.27,5.083,11.353,11.353,11.353h55.864c6.27,0,11.353-5.083,11.353-11.353V91.386
	C192.194,85.116,187.111,80.033,180.841,80.033z M282.981,80.033h-16.579c-6.27,0-11.353,5.083-11.353,11.353V524.64
	c0,6.27,5.083,11.353,11.353,11.353h16.579c6.27,0,11.353-5.083,11.353-11.353V91.386C294.334,85.116,289.251,80.033,282.981,80.033
	z M421.346,80.006H352.23c-6.238,0-11.353,5.115-11.353,11.353v225.312c22.955-33.06,54.643-59.634,91.821-76.352V91.358
	C432.699,85.12,427.709,80.006,421.346,80.006z M502.314,80.006h-0.25c-6.238,0-11.353,5.115-11.353,11.353v131.62
	c7.611-1.123,15.221-1.997,22.956-2.37V91.358C513.667,85.12,508.676,80.006,502.314,80.006z M566.439,80.006h-7.485
	c-6.238,0-11.353,5.115-11.353,11.353V221.48c10.23,0.998,20.336,2.745,30.192,5.24V91.358
	C577.792,85.12,572.677,80.006,566.439,80.006z M649.902,80.006h-36.554c-6.238,0-11.353,5.115-11.353,11.353v142.598
	c21.458,7.86,41.42,18.963,59.26,32.687V91.358C661.255,85.12,656.14,80.006,649.902,80.006z M787.207,645.456l-93.811-93.811
	c19.643-30.9,31.189-67.43,31.189-106.678c0-110.064-89.548-199.612-199.612-199.612s-199.612,89.548-199.612,199.612
	s89.548,199.612,199.612,199.612c39.248,0,75.778-11.545,106.678-31.189l93.811,93.811c8.528,8.528,19.701,12.793,30.873,12.793
	s22.344-4.264,30.873-12.793C804.264,690.157,804.264,662.501,787.207,645.456z M387.739,444.967
	c0-75.671,61.563-137.233,137.233-137.233s137.233,61.563,137.233,137.233S600.644,582.2,524.973,582.2
	S387.739,520.638,387.739,444.967z"/>
</svg>
