<?xml version="1.0" encoding="iso-8859-1"?>
<!-- Generator: Adobe Illustrator 17.1.0, SVG Export Plug-In . SVG Version: 6.00 Build 0)  -->
<!DOCTYPE svg PUBLIC "-//W3C//DTD SVG 1.1//EN" "http://www.w3.org/Graphics/SVG/1.1/DTD/svg11.dtd">
<svg version="1.1" id="Layer_1" xmlns="http://www.w3.org/2000/svg" xmlns:xlink="http://www.w3.org/1999/xlink" x="0px" y="0px"
	 viewBox="0 0 800 800" style="enable-background:new 0 0 800 800;" xml:space="preserve">
<path d="M791.923,458.175c-19.048-13.688-47.961-22.428-80.349-22.428c-50.146,0-91.987,20.939-101.721,48.785h-4.177
	c-9.497-28.027-51.466-49.15-101.829-49.15c-32.44,0-61.338,8.793-80.378,22.521v235.71c0,58.663-47.724,106.387-106.387,106.387
	s-106.387-47.724-106.387-106.387c0-12.964,10.504-23.468,23.468-23.468c12.964,0,23.468,10.504,23.468,23.468
	c0,32.781,26.669,59.45,59.45,59.45s59.45-26.669,59.45-59.45V458.288c-19.044-13.738-47.957-22.541-80.413-22.541
	c-50.146,0-91.987,20.939-101.721,48.785h-4.177c-9.497-28.027-51.465-49.15-101.829-49.15c-32.367,0-61.266,8.727-80.314,22.4
	c15.307-167.127,172.562-299.974,368.455-309.867v-17.543c0-12.964,10.504-23.468,23.468-23.468s23.468,10.504,23.468,23.468v17.545
	C619.499,157.832,776.827,290.873,791.923,458.175z M262.192,37.55c0,0-46.087,32.638-52.667,45.102s-1.809,27.903,10.655,34.483
	c12.464,6.58,27.903,1.809,34.483-10.655C261.243,94.016,262.192,37.55,262.192,37.55z M365.58,0c0,0-46.087,32.638-52.667,45.102
	c-6.58,12.464-1.809,27.903,10.655,34.483c12.465,6.58,27.903,1.809,34.483-10.655C364.631,56.466,365.58,0,365.58,0z M487.489,0
	c0,0-46.087,32.638-52.667,45.102c-6.58,12.464-1.809,27.903,10.655,34.483s27.903,1.809,34.483-10.655
	C486.54,56.466,487.489,0,487.489,0z M584.567,34.917c0,0-46.087,32.638-52.667,45.102c-6.58,12.464-1.809,27.903,10.655,34.483
	s27.903,1.809,34.483-10.655C583.618,91.382,584.567,34.917,584.567,34.917z"/>
</svg>
