<?xml version="1.0" encoding="iso-8859-1"?>
<!-- Generator: Adobe Illustrator 17.1.0, SVG Export Plug-In . SVG Version: 6.00 Build 0)  -->
<!DOCTYPE svg PUBLIC "-//W3C//DTD SVG 1.1//EN" "http://www.w3.org/Graphics/SVG/1.1/DTD/svg11.dtd">
<svg version="1.1" id="Layer_1" xmlns="http://www.w3.org/2000/svg" xmlns:xlink="http://www.w3.org/1999/xlink" x="0px" y="0px"
	 viewBox="0 0 800 800" style="enable-background:new 0 0 800 800;" xml:space="preserve">
<path d="M196.633,513.173c-41.654,0-75.421,33.767-75.421,75.421c0,41.654,33.767,75.421,75.421,75.421s75.421-33.767,75.421-75.421
	C272.054,546.94,238.287,513.173,196.633,513.173z M196.633,626.305c-20.827,0-37.71-16.884-37.71-37.71
	c0-20.827,16.884-37.71,37.71-37.71s37.71,16.884,37.71,37.71C234.343,609.421,217.46,626.305,196.633,626.305z M591.246,513.173
	c-41.654,0-75.421,33.767-75.421,75.421c0,41.654,33.767,75.421,75.421,75.421s75.421-33.767,75.421-75.421
	C666.667,546.94,632.899,513.173,591.246,513.173z M591.246,626.305c-20.827,0-37.71-16.884-37.71-37.71
	c0-20.827,16.884-37.71,37.71-37.71s37.71,16.884,37.71,37.71C628.956,609.421,612.073,626.305,591.246,626.305z M787.5,485.985H775
	V371.874c0-13.161-10.204-24.069-23.337-24.945l-47.078-3.138c-14.58-0.972-27.713-9.16-35.004-21.823l-35.445-79.58
	c-31.198-75.09-75.146-106.402-118.225-106.402H56.25c-31.066,0-56.25,25.184-56.25,56.25v337.5c0,31.066,25.184,56.25,56.25,56.25
	h40.851c1.399-53.738,45.456-97.053,99.531-97.053s98.132,43.315,99.531,97.053h195.552c1.399-53.738,45.456-97.053,99.531-97.053
	c54.075,0,98.132,43.315,99.531,97.053H787.5c6.903,0,12.5-5.597,12.5-12.5v-75C800,491.582,794.403,485.985,787.5,485.985z
	 M587.796,336.742H452.34c-6.694,0-12.121-5.427-12.121-12.121V215.466c0-6.695,5.427-12.121,12.121-12.121h71.3
	c9.041,0,17.332,5.032,21.505,13.052l53.403,102.629C602.747,327.095,596.892,336.742,587.796,336.742z"/>
</svg>
