<?xml version="1.0" encoding="iso-8859-1"?>
<!-- Generator: Adobe Illustrator 17.1.0, SVG Export Plug-In . SVG Version: 6.00 Build 0)  -->
<!DOCTYPE svg PUBLIC "-//W3C//DTD SVG 1.1//EN" "http://www.w3.org/Graphics/SVG/1.1/DTD/svg11.dtd">
<svg version="1.1" id="Layer_1" xmlns="http://www.w3.org/2000/svg" xmlns:xlink="http://www.w3.org/1999/xlink" x="0px" y="0px"
	 viewBox="0 0 800 800" style="enable-background:new 0 0 800 800;" xml:space="preserve">
<path d="M261.365,47.66c0-26.322,21.338-47.66,47.66-47.66c21.904,0,40.162,14.86,45.739,34.988
	c0.649-0.035,1.262-0.194,1.921-0.194c19.786,0,35.826,16.041,35.826,35.827c0,4.826-0.984,9.416-2.714,13.618l0.015-0.001
	c12.266,0,22.21,9.943,22.21,22.209c0,12.266-9.943,22.21-22.21,22.21c-12.266,0-22.209-9.943-22.209-22.21
	c0-0.663,0.138-1.287,0.195-1.936c-3.518,1.155-7.208,1.936-11.112,1.936c-11.964,0-22.49-5.923-28.997-14.934
	c-5.733,2.443-12.037,3.806-18.663,3.806C282.703,95.32,261.365,73.981,261.365,47.66z M282.996,283.761h-65.277
	c-11.452,0-20.736,9.284-20.736,20.736v138.833l203.013-97.245l203.021,97.245V304.497c0-11.452-9.284-20.736-20.736-20.736h-65.277
	 M517.004,263.025v-12.708c0-11.452-9.284-20.736-20.736-20.736h-50.365l-9.004-82.523h-73.798l-9.004,82.523h-50.365
	c-11.452,0-20.736,9.284-20.736,20.736v12.708H517.004z M400,369.079L98.362,513.564l89.321,260.573
	c41.466-19.282,94.755-37.264,149.379-37.264c87.78,0,158.328,41.81,250.997,63.127h15.393l98.186-286.436L400,369.079z"/>
</svg>
