<?xml version="1.0" encoding="iso-8859-1"?>
<!-- Generator: Adobe Illustrator 17.1.0, SVG Export Plug-In . SVG Version: 6.00 Build 0)  -->
<!DOCTYPE svg PUBLIC "-//W3C//DTD SVG 1.1//EN" "http://www.w3.org/Graphics/SVG/1.1/DTD/svg11.dtd">
<svg version="1.1" id="Layer_1" xmlns="http://www.w3.org/2000/svg" xmlns:xlink="http://www.w3.org/1999/xlink" x="0px" y="0px"
	 viewBox="0 0 800 800" style="enable-background:new 0 0 800 800;" xml:space="preserve">
<path d="M685.679,84.775c-9.075-11.386-22.843-18.018-37.403-18.018H151.723c-14.56,0-28.327,6.632-37.402,18.018L18.248,205.306
	C8.212,217.898,0,241.376,0,257.478v415.978c0,33.02,26.768,59.788,59.788,59.788h680.424c33.02,0,59.788-26.768,59.788-59.788
	L800,257.478c0-16.103-8.212-39.58-18.248-52.172L685.679,84.775z M628.128,484.806c-7.381,0-11.994-7.99-8.303-14.382
	l37.168-64.376c3.69-6.392,12.916-6.392,16.607-0.001l37.175,64.376c3.691,6.392-0.922,14.383-8.303,14.383h-15.6v119.999
	c0,5.296-4.293,9.588-9.588,9.588h-23.97c-5.296,0-9.588-4.292-9.588-9.588V484.806H628.128z M484.302,484.806
	c-7.381,0-11.994-7.99-8.303-14.382l37.168-64.376c3.69-6.392,12.915-6.392,16.606-0.001l37.175,64.376
	c3.692,6.392-0.922,14.383-8.303,14.383h-15.599v119.999c0,5.296-4.293,9.588-9.588,9.588h-23.97c-5.296,0-9.588-4.292-9.588-9.588
	V484.806H484.302z M728.969,668.574c0,2.648-2.146,4.794-4.794,4.794H459.625c-2.647,0-4.794-2.146-4.794-4.794v-14.382
	c0-2.647,2.146-4.794,4.794-4.794h264.549c2.648,0,4.794,2.146,4.794,4.794V668.574z M81.46,164.37h217.073l21.421-35.22h-210.42
	l23.489-29.469c4.564-5.726,11.38-9.009,18.701-9.009h496.553c7.322,0,14.138,3.284,18.702,9.009l23.489,29.469H476.298
	l11.958,35.22H718.54l31.815,39.916H49.645L81.46,164.37z"/>
</svg>
