<?xml version="1.0" encoding="iso-8859-1"?>
<!-- Generator: Adobe Illustrator 17.1.0, SVG Export Plug-In . SVG Version: 6.00 Build 0)  -->
<!DOCTYPE svg PUBLIC "-//W3C//DTD SVG 1.1//EN" "http://www.w3.org/Graphics/SVG/1.1/DTD/svg11.dtd">
<svg version="1.1" id="Layer_1" xmlns="http://www.w3.org/2000/svg" xmlns:xlink="http://www.w3.org/1999/xlink" x="0px" y="0px"
	 viewBox="0 0 800 800" style="enable-background:new 0 0 800 800;" xml:space="preserve">
<path d="M776.979,164.966h-139.74v-56.662c0-12.714-10.307-23.021-23.021-23.021H185.783c-12.714,0-23.021,10.307-23.021,23.021
	v56.662H23.021C10.307,164.966,0,175.273,0,187.987v404.891C0,605.593,10.307,615.9,23.021,615.9h139.74v38.182
	c0,6.918,5.608,12.525,12.525,12.525h16.126v35.584c0,6.918,5.608,12.525,12.525,12.525h75.505c6.918,0,12.525-5.608,12.525-12.525
	v-35.584h216.602v35.584c0,6.918,5.608,12.525,12.525,12.525h75.505c6.918,0,12.525-5.608,12.525-12.525v-35.584h15.586
	c6.918,0,12.525-5.608,12.525-12.525V615.9h139.74c12.714,0,23.021-10.307,23.021-23.021V187.987
	C800,175.273,789.693,164.966,776.979,164.966z M586.432,583.65H213.568V181.912h372.864V583.65z M364.586,435.537h-38.311v18.987
	h-17.897v-18.987h-38.546c-13.932,0-25.225,11.294-25.225,25.225v84.114c0,13.932,11.294,25.225,25.225,25.225h94.754
	c13.932,0,25.225-11.294,25.225-25.225v-84.114C389.811,446.831,378.517,435.537,364.586,435.537z M325.189,508.674v37.068h-22.39
	v-37.068c-15.262,0-15.259,0-15.829,0l27.121-32.096l27.023,32.213C341.115,508.792,340.96,508.674,325.189,508.674z
	 M530.168,435.537h-38.311v18.987H473.96v-18.987h-38.546c-13.931,0-25.225,11.294-25.225,25.225v84.114
	c0,13.932,11.294,25.225,25.225,25.225h94.754c13.932,0,25.225-11.294,25.225-25.225v-84.114
	C555.394,446.831,544.1,435.537,530.168,435.537z M490.771,508.674v37.068h-22.39v-37.068c-15.262,0-15.259,0-15.829,0
	l27.121-32.096l27.023,32.213C506.697,508.792,506.543,508.674,490.771,508.674z M447.377,278.971h-38.311v18.987h-17.897v-18.987
	h-38.546c-13.932,0-25.225,11.294-25.225,25.225v84.114c0,13.932,11.294,25.225,25.225,25.225h94.754
	c13.931,0,25.225-11.294,25.225-25.225v-84.114C472.602,290.265,461.309,278.971,447.377,278.971z M407.98,352.108v37.068h-22.39
	v-37.068c-15.262,0-15.259,0-15.829,0l27.121-32.096l27.023,32.213C423.906,352.226,423.751,352.108,407.98,352.108z"/>
</svg>
