<?xml version="1.0" encoding="iso-8859-1"?>
<!-- Generator: Adobe Illustrator 17.1.0, SVG Export Plug-In . SVG Version: 6.00 Build 0)  -->
<!DOCTYPE svg PUBLIC "-//W3C//DTD SVG 1.1//EN" "http://www.w3.org/Graphics/SVG/1.1/DTD/svg11.dtd">
<svg version="1.1" id="Layer_1" xmlns="http://www.w3.org/2000/svg" xmlns:xlink="http://www.w3.org/1999/xlink" x="0px" y="0px"
	 viewBox="0 0 800 800" style="enable-background:new 0 0 800 800;" xml:space="preserve">
<path d="M783.952,222.081L416.449,71.97c-12.603-5.148-26.73-5.108-39.304,0.112L15.913,222.031C6.279,226.03,0,235.435,0,245.866
	v53.739c0,14.253,11.554,25.806,25.806,25.806h19.355c3.563,0,6.452,2.888,6.452,6.452v341.936
	c0,32.068,25.996,58.065,58.065,58.065h16.865v-310.25h546.915v310.25h16.865c32.068,0,58.065-25.996,58.065-58.065V331.863
	c0-3.563,2.888-6.452,6.452-6.452h19.355c14.253,0,25.806-11.554,25.806-25.806v-53.633
	C800,235.488,793.657,226.046,783.952,222.081z M258.065,325.411H129.032v-58.065h129.032V325.411z M464.516,325.411H335.484
	v-58.065h129.032V325.411z M670.968,325.411H541.935v-58.065h129.032V325.411z M291.633,602.877H254.91v50.662h-17.155v-50.662
	h-36.948c-13.354,0-24.179,10.826-24.179,24.179v80.627c0,13.354,10.826,24.179,24.179,24.179h90.826
	c13.354,0,24.179-10.825,24.179-24.179v-80.627C315.812,613.703,304.986,602.877,291.633,602.877z M445.461,602.877h-36.723v50.662
	h-17.155v-50.662h-36.948c-13.354,0-24.179,10.826-24.179,24.179v80.627c0,13.354,10.826,24.179,24.179,24.179h90.826
	c13.354,0,24.179-10.825,24.179-24.179v-80.627C469.641,613.703,458.815,602.877,445.461,602.877z M602.146,602.877h-36.723v50.662
	h-17.155v-50.662H511.32c-13.354,0-24.179,10.826-24.179,24.179v80.627c0,13.354,10.826,24.179,24.179,24.179h90.826
	c13.354,0,24.179-10.825,24.179-24.179v-80.627C626.326,613.703,615.5,602.877,602.146,602.877z M368.865,457.381h-36.723v50.662
	h-17.155v-50.662h-36.948c-13.354,0-24.179,10.826-24.179,24.179v80.627c0,13.354,10.826,24.179,24.179,24.179h90.826
	c13.354,0,24.179-10.825,24.179-24.179V481.56C393.045,468.206,382.219,457.381,368.865,457.381z M526.447,457.381h-36.723v50.662
	h-17.155v-50.662h-36.948c-13.354,0-24.179,10.826-24.179,24.179v80.627c0,13.354,10.826,24.179,24.179,24.179h90.826
	c13.354,0,24.179-10.825,24.179-24.179V481.56C550.627,468.206,539.801,457.381,526.447,457.381z"/>
</svg>
