<?xml version="1.0" encoding="iso-8859-1"?>
<!-- Generator: Adobe Illustrator 17.1.0, SVG Export Plug-In . SVG Version: 6.00 Build 0)  -->
<!DOCTYPE svg PUBLIC "-//W3C//DTD SVG 1.1//EN" "http://www.w3.org/Graphics/SVG/1.1/DTD/svg11.dtd">
<svg version="1.1" id="Layer_1" xmlns="http://www.w3.org/2000/svg" xmlns:xlink="http://www.w3.org/1999/xlink" x="0px" y="0px"
	 viewBox="0 0 800 800" style="enable-background:new 0 0 800 800;" xml:space="preserve">
<path d="M554.32,2.408c-135.685,0-245.679,87.053-245.679,194.438c0,63.975,39.214,120.556,99.465,155.991
	c-5.892,32.308-24.658,70.37-50.896,96.609c64.063-4.781,120.447-23.151,157.366-60.932c12.968,1.674,26.18,2.77,39.745,2.77
	c135.686,0,245.68-87.052,245.68-194.438C800,89.461,690.006,2.408,554.32,2.408z M558.59,68.581
	c18.092,0,32.758,14.666,32.758,32.758c0,18.091-14.666,32.757-32.758,32.757c-18.091,0-32.757-14.666-32.757-32.757
	C525.833,83.247,540.499,68.581,558.59,68.581z M612.452,310.952H504.73v-28.203h29.246v-91.916H504.73v-28.202h81.086v120.118
	h26.635V310.952z M506.637,644.275c-77.894-62.601-99.676-31.828-135.019,3.509c-24.674,24.684-87.116-26.86-141.031-80.779
	c-53.919-53.925-105.453-116.357-80.781-141.035c35.345-35.339,66.109-57.134,3.491-135.005
	C90.699,213.063,48.971,272.871,14.734,307.11c-39.526,39.512-2.082,186.759,143.445,332.31
	C303.726,784.95,450.973,822.368,490.476,782.871C524.707,748.63,584.532,706.906,506.637,644.275z M97.229,333.2
	c-1.051,0.43-2.593,1.061-4.555,1.864c-3.714,1.423-8.155,3.033-13.096,5.183c-2.306,1.111-4.892,2.314-7.25,3.796
	c-2.445,1.46-4.876,3.116-7.067,5.164c-2.393,1.938-4.253,4.413-6.406,7.008c-1.6,2.862-3.665,5.785-4.781,9.299
	c-1.619,3.326-2.2,7.156-3.167,10.926c-0.745,3.824-0.875,7.798-1.349,11.679c-0.048,7.845,0.256,15.379,1.267,21.801
	c0.529,6.527,2.186,12.042,2.84,15.864c0.801,3.835,1.258,6.025,1.258,6.025s-1.178-1.905-3.239-5.239
	c-1.954-3.435-5.272-7.849-8.185-14.125c-3.357-6.103-6.488-13.611-9.467-22.058c-1.06-4.358-2.498-8.879-3.294-13.724
	c-0.561-4.897-1.488-9.948-1.115-15.267c-0.161-5.31,0.925-10.676,1.912-16.099c1.57-5.253,3.243-10.577,5.804-15.315
	c2.34-4.842,5.287-9.225,8.23-13.046c2.962-3.939,6.019-7.162,8.899-10.161c5.748-5.655,10.738-9.788,13.646-12.323
	c1.664-1.394,2.346-2.147,3.088-2.809c0.657-0.614,1.006-0.942,1.006-0.942l26.712,41.779
	C98.923,332.481,98.333,332.731,97.229,333.2z M498.127,730.092c-2.62,3.263-6.731,8.31-12.304,14.029
	c-2.971,2.816-6.035,5.868-9.849,8.749c-3.572,2.985-7.915,5.717-12.338,8.28c-4.56,2.506-9.41,4.656-14.534,6.256
	c-5.07,1.544-10.333,2.79-15.5,3.21l-7.687,0.549l-7.456-0.401c-4.906-0.062-9.476-1.369-13.877-2.102
	c-4.39-0.815-8.371-2.446-12.182-3.54c-3.811-1.028-7.23-2.907-10.392-4.159c-6.405-2.543-10.993-5.481-14.453-7.3
	c-3.398-1.872-5.339-2.943-5.339-2.943s2.19,0.337,6.022,0.925c3.808,0.511,9.367,1.712,15.806,1.842
	c3.242,0.067,6.567,0.633,10.252,0.291c3.636-0.281,7.43-0.099,11.226-0.778c3.77-0.754,7.683-0.969,11.313-2.34l5.453-1.673
	l5.059-2.364c13.357-6.47,20.625-17.868,24.836-27.382c2.083-4.907,3.576-9.24,4.702-12.63c1.225-3.569,1.925-5.608,1.925-5.608
	l43.267,24.23C502.076,725.234,500.639,727.001,498.127,730.092z"/>
</svg>
