<?xml version="1.0" encoding="iso-8859-1"?>
<!-- Generator: Adobe Illustrator 17.1.0, SVG Export Plug-In . SVG Version: 6.00 Build 0)  -->
<!DOCTYPE svg PUBLIC "-//W3C//DTD SVG 1.1//EN" "http://www.w3.org/Graphics/SVG/1.1/DTD/svg11.dtd">
<svg version="1.1" id="Layer_1" xmlns="http://www.w3.org/2000/svg" xmlns:xlink="http://www.w3.org/1999/xlink" x="0px" y="0px"
	 viewBox="0 0 800 800" style="enable-background:new 0 0 800 800;" xml:space="preserve">
<path d="M763.042,491.232c-16.099,162.094-147.438,292.375-309.647,307.28C261.647,816.13,98.141,675.151,79.175,491.91H45.381
	c-20.545,0-33.386-22.242-23.111-40.034l75.579-130.878c10.273-17.79,35.952-17.789,46.224,0.002l75.564,130.878
	c10.272,17.792-2.568,40.032-23.112,40.032h-29.419c19.112,136.81,146.479,239.415,292.512,218.012
	C567.679,694.085,655.332,608.828,673.7,501.167c27.492-161.139-96.508-301.383-252.642-301.383
	c-50.632,0-99.501,14.69-141.481,42.509c-19.482,12.91-46.489,10.356-60.782-8.135c-15.562-20.133-10.703-48.874,10.049-62.888
	c45.039-30.427,96.098-49.441,149.592-56.061V65.6h-35.012c-12.046,0-21.812-9.765-21.812-21.812V21.812
	C321.612,9.765,331.377,0,343.424,0h162.366c12.046,0,21.812,9.765,21.812,21.812v21.977c0,12.046-9.765,21.812-21.812,21.812
	h-38.564v50.127C646.118,139.864,781.832,302.042,763.042,491.232z M774.34,161.13l-65.768-60.79
	c-8.846-8.176-22.646-7.634-30.823,1.212l-17.398,18.823c-8.177,8.846-7.634,22.646,1.212,30.823l65.768,60.79
	c8.846,8.176,22.646,7.634,30.823-1.212l17.398-18.823C783.729,183.107,783.186,169.307,774.34,161.13z M420.024,244.626v213.326
	h211.197C631.222,328.038,532.655,244.626,420.024,244.626z"/>
</svg>
