<?xml version="1.0" encoding="iso-8859-1"?>
<!-- Generator: Adobe Illustrator 17.1.0, SVG Export Plug-In . SVG Version: 6.00 Build 0)  -->
<!DOCTYPE svg PUBLIC "-//W3C//DTD SVG 1.1//EN" "http://www.w3.org/Graphics/SVG/1.1/DTD/svg11.dtd">
<svg version="1.1" id="Layer_1" xmlns="http://www.w3.org/2000/svg" xmlns:xlink="http://www.w3.org/1999/xlink" x="0px" y="0px"
	 viewBox="0 0 800 800" style="enable-background:new 0 0 800 800;" xml:space="preserve">
<path d="M694.236,375.421l-290.331-98.713c-1.283,0.074-2.572,0.217-3.849,0.217c-1.244,0-2.457-0.238-3.693-0.308l-290.598,98.804
	l-7.386-21.698l263.277-89.52c-0.692-0.508-1.456-0.884-2.131-1.423c-15.566-12.41-24.484-30.919-24.484-50.804
	c0-9.489,7.699-17.188,17.188-17.188c9.489,0,17.188,7.699,17.188,17.188c0,9.355,4.208,18.083,11.537,23.925
	c7.464,5.942,16.841,8.012,26.476,5.808c10.855-2.484,19.818-11.436,22.302-22.302c1.925-8.471,0.504-16.987-4.017-23.992
	c-4.465-6.916-11.604-11.806-19.605-13.417c-13.495-2.719-23.298-14.525-23.298-28.076v-40.889
	c-40.79-16.755-52.121-90.651-53.4-100.041L327.655,0h144.69l-1.757,12.992c-1.279,9.389-12.61,83.285-53.4,100.041v36.29
	c15.297,4.208,28.748,14.033,37.409,27.45c9.59,14.849,12.656,32.709,8.639,50.289c-3.454,15.159-12.396,28.283-24.556,37.256
	l262.941,89.406L694.236,375.421z M709.387,433.319v320.846h34.376V800H56.236v-45.835h34.376V433.319H56.236v-45.835h687.527
	v45.835H709.387z M216.659,444.778h-22.918c-6.329,0-11.459,5.13-11.459,11.459v275.011c0,6.328,5.13,11.459,11.459,11.459h22.918
	c6.329,0,11.459-5.13,11.459-11.459V456.236C228.118,449.908,222.988,444.778,216.659,444.778z M411.459,444.778h-22.918
	c-6.329,0-11.459,5.13-11.459,11.459v275.011c0,6.328,5.13,11.459,11.459,11.459h22.918c6.329,0,11.459-5.13,11.459-11.459V456.236
	C422.918,449.908,417.787,444.778,411.459,444.778z M617.717,444.778h-22.918c-6.328,0-11.459,5.13-11.459,11.459v275.011
	c0,6.328,5.13,11.459,11.459,11.459h22.918c6.328,0,11.459-5.13,11.459-11.459V456.236
	C629.176,449.908,624.045,444.778,617.717,444.778z"/>
</svg>
