<?xml version="1.0" encoding="iso-8859-1"?>
<!-- Generator: Adobe Illustrator 17.1.0, SVG Export Plug-In . SVG Version: 6.00 Build 0)  -->
<!DOCTYPE svg PUBLIC "-//W3C//DTD SVG 1.1//EN" "http://www.w3.org/Graphics/SVG/1.1/DTD/svg11.dtd">
<svg version="1.1" id="Layer_1" xmlns="http://www.w3.org/2000/svg" xmlns:xlink="http://www.w3.org/1999/xlink" x="0px" y="0px"
	 viewBox="0 0 800 800" style="enable-background:new 0 0 800 800;" xml:space="preserve">
<path d="M606.579,432.957l-5.68,16.861L376.03,373.324c-0.977,0.089-1.953,0.178-2.929,0.178c-0.976,0-1.953-0.178-2.929-0.178
	l-225.047,76.495l-5.68-16.861l203.926-69.307c-0.532-0.355-1.153-0.71-1.686-1.065c-12.069-9.672-18.991-23.96-18.991-39.401
	c0-7.277,5.945-13.311,13.311-13.311c7.365,0,13.311,6.034,13.311,13.311s3.283,14.021,8.963,18.547
	c5.768,4.614,13.045,6.212,20.499,4.526c8.43-1.953,15.352-8.874,17.304-17.305c1.42-6.567,0.355-13.133-3.106-18.547
	c-3.461-5.324-9.052-9.14-15.263-10.383c-10.383-2.13-18.015-11.27-18.015-21.742V248.11c4.259,0.976,8.696,1.508,13.311,1.508
	s9.052-0.532,13.311-1.508v26.622c11.892,3.195,22.274,10.826,29.018,21.209c7.365,11.537,9.761,25.38,6.656,38.957
	c-2.662,11.714-9.584,21.919-18.991,28.841L606.579,432.957z M661.522,493.757v279.621c0,14.703-11.919,26.622-26.622,26.622
	H111.155c-14.703,0-26.622-11.919-26.622-26.622V493.757c0-14.703,11.919-26.622,26.622-26.622H634.9
	C649.603,467.135,661.522,479.054,661.522,493.757z M198.3,549.127c0-7.434-6.027-13.461-13.461-13.461h-0.272
	c-7.434,0-13.462,6.027-13.462,13.461v168.88c0,7.435,6.027,13.462,13.462,13.462h0.272c7.434,0,13.461-6.027,13.461-13.462V549.127
	z M323.85,549.127c0-7.434-6.027-13.461-13.461-13.461h-0.272c-7.434,0-13.462,6.027-13.462,13.461v168.88
	c0,7.435,6.027,13.462,13.462,13.462h0.272c7.434,0,13.461-6.027,13.461-13.462V549.127z M449.4,549.127
	c0-7.434-6.027-13.461-13.461-13.461h-0.272c-7.435,0-13.462,6.027-13.462,13.461v168.88c0,7.435,6.027,13.462,13.462,13.462h0.272
	c7.434,0,13.461-6.027,13.461-13.462V549.127z M574.949,549.127c0-7.434-6.027-13.461-13.461-13.461h-0.272
	c-7.435,0-13.462,6.027-13.462,13.461v168.88c0,7.435,6.027,13.462,13.462,13.462h0.272c7.434,0,13.461-6.027,13.461-13.462V549.127
	z M417.185,187.677c0,24.388-19.77,44.158-44.158,44.158c-24.387,0-44.158-19.77-44.158-44.158s19.771-44.158,44.158-44.158
	C397.415,143.519,417.185,163.289,417.185,187.677z M395.106,187.677c0-12.194-9.885-22.079-22.079-22.079
	c-12.193,0-22.079,9.885-22.079,22.079c0,12.194,9.886,22.079,22.079,22.079C385.221,209.756,395.106,199.871,395.106,187.677z
	 M614.349,77.803c-8.249,12.681-21.006,22.12-35.99,26.113l99.583,139.981l37.524-23.693L614.349,77.803z M504.083,64.594
	l-100.1,69.484c12.779,7.366,22.718,19.257,27.51,33.367l101.342-68.952C519.524,91.216,509.229,79.147,504.083,64.594z
	 M606.614,44.158c0,24.388-19.77,44.158-44.158,44.158c-24.387,0-44.158-19.77-44.158-44.158S538.069,0,562.456,0
	C586.844,0,606.614,19.77,606.614,44.158z M584.535,44.158c0-12.194-9.885-22.079-22.079-22.079
	c-12.193,0-22.079,9.885-22.079,22.079s9.886,22.079,22.079,22.079C574.65,66.237,584.535,56.351,584.535,44.158z"/>
</svg>
