<?xml version="1.0" encoding="iso-8859-1"?>
<!-- Generator: Adobe Illustrator 17.1.0, SVG Export Plug-In . SVG Version: 6.00 Build 0)  -->
<!DOCTYPE svg PUBLIC "-//W3C//DTD SVG 1.1//EN" "http://www.w3.org/Graphics/SVG/1.1/DTD/svg11.dtd">
<svg version="1.1" id="Layer_1" xmlns="http://www.w3.org/2000/svg" xmlns:xlink="http://www.w3.org/1999/xlink" x="0px" y="0px"
	 viewBox="0 0 800 800" style="enable-background:new 0 0 800 800;" xml:space="preserve">
<path d="M690.471,448.42l-37.517,54.041H203.242l-16.524-35.382c-4.784-10.244-15.067-16.791-26.374-16.791h-5.351V331.729
	c0-4.327-2.466-10.408-5.479-13.514l-21.83-22.496c-3.144-3.24-9.411-5.891-13.926-5.891H68.926c-4.343,0-10.44,2.481-13.549,5.514
	L31.992,318.15c-3.221,3.141-5.856,9.393-5.856,13.892v118.247H9.713c-6.949,0-11.645,7.091-8.933,13.489l54.202,127.879
	c7.615,17.967,25.254,29.622,44.768,29.581l557.004-1.168c16.38-0.034,31.636-8.332,40.567-22.063l101.095-155.441
	c4.198-6.455-0.434-14.993-8.134-14.993h-59.959C714.425,427.573,699.537,435.361,690.471,448.42z M104.806,340.543h30.912v20.807
	h-30.912V340.543z M104.806,400.673h30.912v20.807h-30.912V400.673z M47.441,340.543h30.912v20.807H47.441V340.543z M47.441,400.673
	h30.912v20.807H47.441V400.673z M299.398,427.26l86.395,53.493c-3.869,2.002-8.194,3.242-12.851,3.242H229.958
	c-5.545,0-10.68-1.66-15.037-4.429L299.398,427.26z M486.073,312.665H343.09c-5.546,0-10.681-1.659-15.038-4.429l84.477-52.306
	l86.395,53.493C495.055,311.426,490.729,312.665,486.073,312.665z M457.726,483.995c-5.546,0-10.681-1.66-15.038-4.429
	l84.477-52.306l86.395,53.493c-3.868,2.002-8.194,3.242-12.851,3.242H457.726z M397.74,468.887l-82.786-51.259l83.261-51.553
	c1.779,3.692,2.863,7.78,2.863,12.152v77.632C401.078,460.588,399.8,464.976,397.74,468.887z M542.721,417.628l83.261-51.553
	c1.78,3.692,2.863,7.78,2.863,12.152v77.632c0,4.728-1.277,9.116-3.338,13.027L542.721,417.628z M431.896,466.986
	c-1.474-3.415-2.306-7.171-2.306-11.126v-77.632c0-3.596,0.737-7.005,1.967-10.166l80.053,49.566L431.896,466.986z M299.398,407.997
	l-85.423-52.891c4.543-3.147,10.039-5.013,15.983-5.013h142.984c5.065,0,9.752,1.445,13.857,3.788L299.398,407.997z
	 M317.259,295.656c-1.473-3.415-2.305-7.171-2.305-11.126v-77.631c0-3.596,0.737-7.005,1.967-10.166l80.052,49.566L317.259,295.656z
	 M204.128,466.986c-1.473-3.415-2.306-7.171-2.306-11.126v-77.632c0-3.596,0.738-7.005,1.968-10.166l80.052,49.566L204.128,466.986z
	 M412.529,236.667l-85.422-52.891c4.543-3.147,10.039-5.014,15.983-5.014h142.983c5.066,0,9.752,1.445,13.857,3.789L412.529,236.667
	z M457.726,350.092h142.983c5.066,0,9.752,1.445,13.857,3.788l-87.402,54.116l-85.422-52.891
	C446.286,351.959,451.782,350.092,457.726,350.092z M428.085,246.299l83.261-51.553c1.78,3.692,2.863,7.78,2.863,12.153v77.631
	c0,4.729-1.277,9.117-3.338,13.028L428.085,246.299z"/>
</svg>
