<?xml version="1.0" encoding="iso-8859-1"?>
<!-- Generator: Adobe Illustrator 17.1.0, SVG Export Plug-In . SVG Version: 6.00 Build 0)  -->
<!DOCTYPE svg PUBLIC "-//W3C//DTD SVG 1.1//EN" "http://www.w3.org/Graphics/SVG/1.1/DTD/svg11.dtd">
<svg version="1.1" id="Layer_1" xmlns="http://www.w3.org/2000/svg" xmlns:xlink="http://www.w3.org/1999/xlink" x="0px" y="0px"
	 viewBox="0 0 800 800" style="enable-background:new 0 0 800 800;" xml:space="preserve">
<path d="M680.406,503.801c-7.17-35.354-38.252-60.765-74.326-60.765h-1.252c-36.074,0-67.156,25.411-74.326,60.765L470.43,800
	h270.048L680.406,503.801z M605.454,561.539c-25.117,0-45.479-20.362-45.479-45.479c0-25.118,20.362-45.479,45.479-45.479
	c25.118,0,45.479,20.361,45.479,45.479C650.933,541.177,630.572,561.539,605.454,561.539z M628.562,405.443
	c-7.689-1.562-15.609-2.468-23.735-2.468c-54.909,0-102.683,39.049-113.6,92.862l-0.615,3.031L192.687,137.355
	c20.396-13.648,34.396-35.045,38.5-59.393L628.562,405.443z M162.739,219.251v-96.496c24.999-8.409,43.125-31.77,43.125-59.603
	C205.864,28.274,177.59,0,142.712,0C107.835,0,79.56,28.274,79.56,63.152c0,27.829,18.12,51.188,43.113,59.6v114.093
	c0,11.06,8.973,20.033,20.033,20.033c23.776,0,43.118,19.342,43.118,43.118s-19.342,43.118-43.118,43.118
	s-43.118-19.342-43.118-43.118c0-11.06-8.973-20.033-20.033-20.033s-20.033,8.973-20.033,20.033
	c0,45.87,37.315,83.185,83.185,83.185s83.185-37.315,83.185-83.185C225.891,261.026,198.958,228.238,162.739,219.251z
	 M111.136,63.152c0-17.439,14.138-31.576,31.576-31.576c17.439,0,31.576,14.137,31.576,31.576s-14.137,31.577-31.576,31.577
	C125.274,94.729,111.136,80.591,111.136,63.152z"/>
</svg>
