<?xml version="1.0" encoding="iso-8859-1"?>
<!-- Generator: Adobe Illustrator 17.1.0, SVG Export Plug-In . SVG Version: 6.00 Build 0)  -->
<!DOCTYPE svg PUBLIC "-//W3C//DTD SVG 1.1//EN" "http://www.w3.org/Graphics/SVG/1.1/DTD/svg11.dtd">
<svg version="1.1" id="Layer_1" xmlns="http://www.w3.org/2000/svg" xmlns:xlink="http://www.w3.org/1999/xlink" x="0px" y="0px"
	 viewBox="0 0 800 800" style="enable-background:new 0 0 800 800;" xml:space="preserve">
<path d="M38.492,610.764H11.255C5.065,610.764,0,605.699,0,599.509v-34.215c0-6.19,5.065-11.255,11.255-11.255h58.526
	C53.236,568.221,41.869,588.142,38.492,610.764z M800,565.295v34.215c0,6.19-5.065,11.255-11.255,11.255h-91.165
	c-6.528-44.682-44.908-79.234-91.39-79.234c-46.483,0-84.975,34.553-91.503,79.234H221.722
	c-3.376-22.622-14.744-42.543-31.288-56.725h63.542l-55.558-321.814c-5.175,1.346-10.577,2.136-16.177,2.136
	c-13.415,0-25.87-4.147-36.181-11.208v45.165c20.906,5.187,36.451,24.112,36.451,46.607c0,26.476-21.538,48.015-48.015,48.015
	c-26.477,0-48.015-21.538-48.015-48.015c0-6.384,5.18-11.563,11.563-11.563s11.563,5.18,11.563,11.563
	c0,13.724,11.164,24.888,24.888,24.888s24.888-11.164,24.888-24.888c0-13.724-11.164-24.888-24.888-24.888
	c-6.384,0-11.563-5.18-11.563-11.563v-83.763c-3.147-7.572-4.903-15.863-4.903-24.561c0-35.512,28.802-64.315,64.212-64.315
	c35.512,0,64.211,28.802,64.211,64.315c0,9.082-1.913,17.716-5.32,25.554l232.925,351.543v-315.1c0-12.38,10.017-22.51,22.51-22.51
	h106.246c29.938,0,57.85,14.857,74.62,39.618l68.543,101.52c10.017,14.857,15.419,32.414,15.419,50.309V554.04h27.349
	C794.935,554.04,800,559.105,800,565.295z M214.346,170.151c0-17.756-14.35-32.106-32.105-32.106
	c-17.756,0-32.106,14.35-32.106,32.106c0,17.653,14.35,32.106,32.106,32.106C199.997,202.257,214.346,187.804,214.346,170.151z
	 M299.657,554.04h124.892L255.648,299.124L299.657,554.04z M685.875,353.364l-54.811-77.884c-2.138-2.926-5.515-4.728-9.229-4.728
	H536.41c-6.19,0-11.255,5.065-11.255,11.255v77.772c0,6.303,5.065,11.255,11.255,11.255h140.236
	C685.762,371.035,691.052,360.792,685.875,353.364z M676.196,624.158c0,38.604-31.401,70.006-70.005,70.006
	c-38.717,0-70.006-31.402-70.006-70.006c0-38.717,31.289-70.118,70.006-70.118C644.795,554.04,676.196,585.441,676.196,624.158z
	 M641.193,624.158c0-19.358-15.645-35.003-35.003-35.003c-19.359,0-35.003,15.644-35.003,35.003
	c0,19.246,15.645,35.003,35.003,35.003C625.549,659.16,641.193,643.404,641.193,624.158z M200.134,624.158
	c0,38.604-31.288,70.006-70.005,70.006c-38.604,0-70.006-31.402-70.006-70.006c0-38.717,31.402-70.118,70.006-70.118
	C168.846,554.04,200.134,585.441,200.134,624.158z M165.131,624.158c0-19.358-15.645-35.003-35.003-35.003
	c-19.359,0-35.003,15.644-35.003,35.003c0,19.246,15.644,35.003,35.003,35.003C149.487,659.161,165.131,643.404,165.131,624.158z"/>
</svg>
