<?xml version="1.0" encoding="iso-8859-1"?>
<!-- Generator: Adobe Illustrator 17.1.0, SVG Export Plug-In . SVG Version: 6.00 Build 0)  -->
<!DOCTYPE svg PUBLIC "-//W3C//DTD SVG 1.1//EN" "http://www.w3.org/Graphics/SVG/1.1/DTD/svg11.dtd">
<svg version="1.1" id="Layer_1" xmlns="http://www.w3.org/2000/svg" xmlns:xlink="http://www.w3.org/1999/xlink" x="0px" y="0px"
	 viewBox="0 0 800 800" style="enable-background:new 0 0 800 800;" xml:space="preserve">
<path d="M781.752,205.306L685.68,84.774c-9.075-11.386-22.843-18.018-37.403-18.018H151.723c-14.56,0-28.327,6.632-37.402,18.017
	L18.248,205.306C8.211,217.898,0,241.376,0,257.478v415.978c0,33.02,26.767,59.788,59.788,59.788h680.424
	c33.021,0,59.788-26.768,59.789-59.788V257.478C800,241.376,791.789,217.898,781.752,205.306z M416.505,555.75
	c-6.101,15.984-3.705,37.794,3.3,56.482c38.245,2.354,66.754,11.34,66.754,22.094c0,12.545-38.754,22.715-86.559,22.715
	c-47.805,0-86.559-10.169-86.559-22.715c0-10.754,28.509-19.74,66.754-22.094c7.004-18.687,9.401-40.498,3.3-56.482
	c-95.998-6.287-125.487-67.22-125.487-106.183c0-49.486,21.232-108.643,34.506-137.889l99.939-0.556l-33.136,91.488l41.734,1.158
	l-18.541,70.435l61.93-98.088h-34.513l28.237-64.994h69.073c13.257,29.057,34.753,88.661,34.753,138.445
	C541.992,488.529,512.502,549.463,416.505,555.75z M49.645,204.286L81.46,164.37h217.073l21.421-35.22H109.533l23.489-29.469
	c4.564-5.726,11.38-9.009,18.701-9.009h496.554c7.322,0,14.138,3.284,18.702,9.009l23.489,29.469h-214.17l11.958,35.22h230.285
	l31.815,39.916H49.645z"/>
</svg>
