<?xml version="1.0" encoding="iso-8859-1"?>
<!-- Generator: Adobe Illustrator 17.1.0, SVG Export Plug-In . SVG Version: 6.00 Build 0)  -->
<!DOCTYPE svg PUBLIC "-//W3C//DTD SVG 1.1//EN" "http://www.w3.org/Graphics/SVG/1.1/DTD/svg11.dtd">
<svg version="1.1" id="Layer_1" xmlns="http://www.w3.org/2000/svg" xmlns:xlink="http://www.w3.org/1999/xlink" x="0px" y="0px"
	 viewBox="0 0 800 800" style="enable-background:new 0 0 800 800;" xml:space="preserve">
<path d="M800,200.56l-0.001,394.631c0,31.325-25.394,56.72-56.72,56.72H436.454c8.728-24.961,13.715-51.661,13.715-79.561
	c0-41.022-10.413-80.017-28.858-114.27c5.04-2.515,9.594-5.927,13.393-10.092l10.458-11.266
	c17.503-18.899,16.44-48.655-2.592-66.513l-39.272-36.236c-8.707-8.032-20.04-12.463-31.905-12.463
	c-13.105,0-25.701,5.517-34.475,15.022l-10.502,11.3c-2.725,2.958-5.04,6.182-6.891,9.627c-6.292-3.279-12.74-6.292-19.342-9.018
	c3.899-6.857,6.126-14.778,6.126-23.208v-13.139c0-25.923-21.126-47.004-47.093-47.004h-96.889
	c-18.367,0-34.137,10.686-41.867,26.077V200.56c0-15.276,7.791-37.549,17.312-49.495l91.142-114.347
	c8.61-10.801,21.67-17.093,35.483-17.093h391.664c13.813,0,26.874,6.292,35.484,17.093l91.142,114.346
	C792.209,163.011,800,185.284,800,200.56z M752.903,150.097L722.72,112.23H560.972l-11.344-33.413h146.459L673.804,50.86
	c-4.329-5.432-10.796-8.547-17.742-8.547H264.398c-6.946,0-13.412,3.115-17.741,8.547l-22.284,27.957h142.903l-20.321,33.413H197.74
	l-30.183,37.868H752.903z M419.477,395.21l-39.249-36.224c-5.255-4.856-13.534-4.538-18.39,0.717l-10.43,11.225
	c-4.856,5.255-4.537,13.534,0.796,18.39l39.169,36.303c5.334,4.856,13.534,4.538,18.39-0.796l10.429-11.226
	C425.05,408.346,424.731,400.146,419.477,395.21z M236.21,366.152v-27.864h23.008c7.165,0,13.057-5.891,13.057-13.057v-13.136
	c0-7.165-5.892-12.977-13.057-12.977h-96.888c-7.165,0-12.976,5.812-12.976,12.977v13.136c0,7.165,5.812,13.057,12.976,13.057
	h20.938v27.466c-74.039,8.758-136.217,56.445-165.354,122.046C6.369,513.593,0,542.254,0,572.347c0,6.847,0.318,13.614,0.955,20.222
	c10.19,105.407,99.038,187.805,207.072,187.805c114.96,0,208.106-93.146,208.106-208.027
	C416.133,466.941,337.875,379.925,236.21,366.152z M208.027,728.945c-86.459,0-156.598-70.138-156.598-156.598
	c0-18.39,3.185-35.984,8.917-52.305c0-0.079,0-0.079,0-0.079c10.191-28.74,28.501-53.579,52.226-71.81c0,0,0,0,0.08,0
	c26.431-20.381,59.471-32.482,95.376-32.482c86.539,0,156.677,70.138,156.677,156.677
	C364.704,658.807,294.565,728.945,208.027,728.945z M334.053,572.347H208.027v-127.3
	C275.299,445.047,334.053,494.805,334.053,572.347z"/>
</svg>
