<?xml version="1.0" encoding="iso-8859-1"?>
<!-- Generator: Adobe Illustrator 17.1.0, SVG Export Plug-In . SVG Version: 6.00 Build 0)  -->
<!DOCTYPE svg PUBLIC "-//W3C//DTD SVG 1.1//EN" "http://www.w3.org/Graphics/SVG/1.1/DTD/svg11.dtd">
<svg version="1.1" id="Layer_1" xmlns="http://www.w3.org/2000/svg" xmlns:xlink="http://www.w3.org/1999/xlink" x="0px" y="0px"
	 viewBox="0 0 800 800" style="enable-background:new 0 0 800 800;" xml:space="preserve">
<path d="M45.141,510.581c-13.352,11.444-22.525,27.52-25.25,45.777H9.083c-4.996,0-9.083-4.087-9.083-9.083v-27.611
	c0-4.996,4.087-9.083,9.083-9.083H45.141z M149.228,556.358c0.726,3.542,1.09,7.084,1.09,10.808
	c0,31.154-25.25,56.494-56.494,56.494c-31.153,0-56.494-25.34-56.494-56.494c0-3.724,0.363-7.266,1.09-10.808
	c4.995-26.068,27.883-45.777,55.404-45.777S144.323,530.29,149.228,556.358z M122.071,567.166c0-3.814-0.726-7.538-2.18-10.808
	c-4.177-10.263-14.26-17.439-26.067-17.439c-11.808,0-21.889,7.176-26.068,17.439c-1.453,3.27-2.179,6.993-2.179,10.808
	c0,15.532,12.625,28.247,28.247,28.247C109.447,595.413,122.071,582.698,122.071,567.166z M22.361,474.342V203.588
	c0-15.049,12.199-27.248,27.248-27.248h434.15c15.049,0,27.248,12.199,27.248,27.248v270.754c0,4.995-4.087,9.083-9.083,9.083
	H31.444C26.449,483.424,22.361,479.337,22.361,474.342z M445.066,443.776c0,4.311,3.495,7.806,7.807,7.806h0.243
	c4.311,0,7.806-3.495,7.806-7.806V219.117c0-4.311-3.495-7.806-7.806-7.806h-0.243c-4.312,0-7.807,3.495-7.807,7.806V443.776z
	 M371.652,443.776c0,4.311,3.495,7.806,7.806,7.806h0.243c4.312,0,7.806-3.495,7.806-7.806V219.117c0-4.311-3.494-7.806-7.806-7.806
	h-0.243c-4.311,0-7.806,3.495-7.806,7.806V443.776z M298.237,443.776c0,4.311,3.495,7.806,7.807,7.806h0.243
	c4.311,0,7.806-3.495,7.806-7.806V219.117c0-4.311-3.495-7.806-7.806-7.806h-0.243c-4.312,0-7.807,3.495-7.807,7.806V443.776z
	 M224.824,443.776c0,4.311,3.495,7.806,7.806,7.806h0.243c4.312,0,7.807-3.495,7.807-7.806V219.117c0-4.311-3.495-7.806-7.807-7.806
	h-0.243c-4.311,0-7.806,3.495-7.806,7.806V443.776z M151.409,443.776c0,4.311,3.495,7.806,7.807,7.806h0.243
	c4.311,0,7.806-3.495,7.806-7.806V219.117c0-4.311-3.495-7.806-7.806-7.806h-0.243c-4.312,0-7.807,3.495-7.807,7.806V443.776z
	 M77.995,443.776c0,4.311,3.495,7.806,7.806,7.806h0.243c4.312,0,7.807-3.495,7.807-7.806V219.117c0-4.311-3.495-7.806-7.807-7.806
	h-0.243c-4.311,0-7.806,3.495-7.806,7.806V443.776z M288.647,556.358c0.727,3.542,1.09,7.084,1.09,10.808
	c0,31.154-25.25,56.494-56.494,56.494c-31.154,0-56.494-25.34-56.494-56.494c0-3.724,0.363-7.266,1.089-10.808
	c4.996-26.068,27.884-45.777,55.405-45.777C260.763,510.581,283.743,530.29,288.647,556.358z M261.49,567.166
	c0-3.814-0.727-7.538-2.089-10.808c-4.269-10.263-14.351-17.439-26.158-17.439c-11.808,0-21.89,7.176-26.158,17.439
	c-1.363,3.27-2.089,6.993-2.089,10.808c0,15.532,12.625,28.247,28.248,28.247C248.865,595.413,261.49,582.698,261.49,567.166z
	 M184.559,510.581h-42.052c9.264,7.993,16.621,18.256,21.072,29.882C167.939,528.838,175.295,518.574,184.559,510.581z M800,519.664
	v27.611c0,4.996-4.087,9.083-9.083,9.083h-73.569c-5.268-36.058-36.24-63.942-73.751-63.942c-37.512,0-68.574,27.884-73.842,63.942
	h-262.58c-2.725-18.256-11.898-34.333-25.25-45.777h255.042V250.818c0-9.991,8.083-18.166,18.165-18.166h85.74
	c24.16,0,46.685,11.989,60.217,31.971l55.314,81.926c8.083,11.989,12.443,26.158,12.443,40.599v123.434h22.07
	C795.913,510.581,800,514.668,800,519.664z M707.902,348.637l-44.232-62.852c-1.726-2.361-4.451-3.815-7.448-3.815h-68.937
	c-4.995,0-9.083,4.087-9.083,9.083v62.761c0,5.086,4.088,9.083,9.083,9.083h113.17C707.812,362.897,712.08,354.632,707.902,348.637z
	 M700.091,567.166c0,31.154-25.34,56.494-56.494,56.494c-31.245,0-56.494-25.34-56.494-56.494c0-31.244,25.25-56.584,56.494-56.584
	C674.751,510.581,700.091,535.922,700.091,567.166z M671.844,567.166c0-15.621-12.625-28.247-28.247-28.247
	c-15.623,0-28.248,12.626-28.248,28.247c0,15.532,12.625,28.247,28.248,28.247C659.219,595.413,671.844,582.698,671.844,567.166z"/>
</svg>
