<?xml version="1.0" encoding="iso-8859-1"?>
<!-- Generator: Adobe Illustrator 17.1.0, SVG Export Plug-In . SVG Version: 6.00 Build 0)  -->
<!DOCTYPE svg PUBLIC "-//W3C//DTD SVG 1.1//EN" "http://www.w3.org/Graphics/SVG/1.1/DTD/svg11.dtd">
<svg version="1.1" id="Layer_1" xmlns="http://www.w3.org/2000/svg" xmlns:xlink="http://www.w3.org/1999/xlink" x="0px" y="0px"
	 viewBox="0 0 800 800" style="enable-background:new 0 0 800 800;" xml:space="preserve">
<path d="M306.809,638.874l30.591-68.086l30.58,68.086H306.809z M101.79,433.855l68.086-30.591l-68.086-30.58V433.855z
	 M337.4,235.752l30.58-68.086h-61.17L337.4,235.752z M471.799,268.977l-54.313,121.004c4.151,25.026-3.332,51.626-22.599,70.892
	c-19.266,19.266-45.865,26.75-70.892,22.599l-121.005,54.312l54.312-121.004c-4.151-25.026,3.332-51.626,22.599-70.893
	c19.266-19.267,45.866-26.75,70.892-22.599L471.799,268.977z M356.705,384.07c-10.647-10.647-27.974-10.647-38.621,0
	c-10.647,10.648-10.647,27.974,0,38.621c10.648,10.648,27.974,10.648,38.621,0C367.353,412.044,367.353,394.717,356.705,384.07z
	 M572.998,433.855v-61.17l-68.086,30.58L572.998,433.855z M781.975,785.785c2.349,8.256-5.119,15.96-13.445,13.867l-176.047-44.25
	c-8.326-2.092-11.263-12.413-5.289-18.577l20.493-21.141c4.287-4.422,4.177-11.482-0.244-15.768l-58.64-56.849
	c-56.409,49.812-130.415,80.133-211.409,80.133c-176.351,0-319.821-143.472-319.821-319.821
	c0-150.436,113.056-318.387,319.821-318.387c87.301,0,157.269,29.153,209.285,73.972l60.761-58.899
	c4.422-4.287,4.532-11.346,0.245-15.768l-20.49-21.137c-5.975-6.165-3.037-16.486,5.289-18.577l176.06-44.237
	c8.325-2.092,15.793,5.613,13.443,13.869l-49.7,174.587c-2.35,8.257-12.757,10.873-18.732,4.709l-20.489-21.136
	c-4.287-4.422-11.347-4.532-15.769-0.245l-66.146,64.119c30.521,51.627,46.064,110.613,46.064,167.131
	c0,59.13-16.192,114.524-44.283,162.092l64.357,62.391c4.422,4.287,11.482,4.178,15.769-0.245l20.496-21.143
	c5.975-6.165,16.383-3.548,18.732,4.709L781.975,785.785z M594.787,403.381c0-141.923-115.465-257.393-257.392-257.393
	c-141.927,0-257.393,115.47-257.393,257.393s115.465,257.392,257.393,257.392C479.321,660.773,594.787,545.304,594.787,403.381z"/>
</svg>
