<?xml version="1.0" encoding="iso-8859-1"?>
<!-- Generator: Adobe Illustrator 17.1.0, SVG Export Plug-In . SVG Version: 6.00 Build 0)  -->
<!DOCTYPE svg PUBLIC "-//W3C//DTD SVG 1.1//EN" "http://www.w3.org/Graphics/SVG/1.1/DTD/svg11.dtd">
<svg version="1.1" id="Layer_1" xmlns="http://www.w3.org/2000/svg" xmlns:xlink="http://www.w3.org/1999/xlink" x="0px" y="0px"
	 viewBox="0 0 800 800" style="enable-background:new 0 0 800 800;" xml:space="preserve">
<path d="M236.991,504.921c-38.914,0-70.476,31.561-70.476,70.362c0,38.914,31.562,70.476,70.476,70.476
	c38.801,0,70.362-31.562,70.362-70.476C307.353,536.482,275.792,504.921,236.991,504.921z M236.991,610.577
	c-19.457,0-35.294-15.837-35.294-35.294c0-19.343,15.837-35.181,35.294-35.181c19.343,0,35.181,15.837,35.181,35.181
	C272.172,594.74,256.335,610.577,236.991,610.577z M176.324,504.95H18.599c-6.248,0-11.312,5.064-11.312,11.312v34.321
	c0,6.248,5.064,11.312,11.312,11.312h126.424C148.324,539.248,159.755,519.242,176.324,504.95z M605.204,504.921
	c-38.801,0-70.362,31.561-70.362,70.362c0,38.914,31.561,70.476,70.362,70.476c38.914,0,70.362-31.562,70.362-70.476
	C675.566,536.482,644.118,504.921,605.204,504.921z M605.204,610.577c-19.457,0-35.181-15.837-35.181-35.294
	c0-19.343,15.724-35.181,35.181-35.181c19.457,0,35.181,15.837,35.181,35.181C640.385,594.74,624.661,610.577,605.204,610.577z
	 M788.688,504.921h-27.489V351.187c0-17.986-5.43-35.633-15.498-50.565L676.81,198.586c-16.743-24.887-44.91-39.819-75-39.819
	H495.023c-12.444,0-22.624,10.067-22.624,22.624v323.529H297.625c16.516,14.366,27.942,34.276,31.222,57.013h184.502
	c6.448-44.909,45.136-79.638,91.855-79.638s85.407,34.729,91.968,79.638h91.516c6.336,0,11.312-5.091,11.312-11.312v-34.389
	C800,510.011,795.023,504.921,788.688,504.921z M676.018,320.984H535.068c-6.222,0-11.312-4.977-11.312-11.312v-78.167
	c0-6.222,5.091-11.312,11.312-11.312h85.86c3.733,0,7.24,1.81,9.276,4.751l55.091,78.28
	C690.611,310.69,685.181,320.984,676.018,320.984z M418.552,482.296H22.624C10.129,482.296,0,472.167,0,459.672v-101.81
	c0-12.495,10.129-22.624,22.624-22.624h395.928c12.495,0,22.624,10.129,22.624,22.624v101.81
	C441.177,472.167,431.047,482.296,418.552,482.296z M180.996,301.301H22.624C10.129,301.301,0,291.171,0,278.676v-101.81
	c0-12.495,10.129-22.624,22.624-22.624h158.371c12.495,0,22.624,10.129,22.624,22.624v101.81
	C203.62,291.171,193.491,301.301,180.996,301.301z M418.552,301.301H260.181c-12.495,0-22.624-10.129-22.624-22.624v-101.81
	c0-12.495,10.129-22.624,22.624-22.624h158.371c12.495,0,22.624,10.129,22.624,22.624v101.81
	C441.177,291.171,431.047,301.301,418.552,301.301z"/>
</svg>
