<?xml version="1.0" encoding="iso-8859-1"?>
<!-- Generator: Adobe Illustrator 17.1.0, SVG Export Plug-In . SVG Version: 6.00 Build 0)  -->
<!DOCTYPE svg PUBLIC "-//W3C//DTD SVG 1.1//EN" "http://www.w3.org/Graphics/SVG/1.1/DTD/svg11.dtd">
<svg version="1.1" id="Layer_1" xmlns="http://www.w3.org/2000/svg" xmlns:xlink="http://www.w3.org/1999/xlink" x="0px" y="0px"
	 viewBox="0 0 800 800" style="enable-background:new 0 0 800 800;" xml:space="preserve">
<path d="M633.122,470.898l-15.7,8.24l-15.7-8.24c-92.975-49.438-199.758-121.257-200.314-238.84v-61.464h-42.646v83.511H280.15
	v-83.511H110.79C49.661,170.594,0,220.255,0,281.496v369.451c0,61.241,49.661,110.791,110.79,110.791h416.329
	c61.13,0,110.791-49.55,110.791-110.791v-182.61C636.239,469.228,634.681,470.008,633.122,470.898z M129.942,502.966l41.867,49.884
	c0,0-13.807,0-30.175,0v64.804h-23.271V552.85H88.076L129.942,502.966z M267.123,678.673H100.324v-21.045h166.798V678.673z
	 M249.196,552.85v64.804h-23.383V552.85h-30.175l41.866-49.884l41.867,49.884C279.371,552.85,265.564,552.85,249.196,552.85z
	 M617.403,38.262c-44.719,35.073-105.975,55.124-182.597,55.124v138.567c0.414,89.163,74.279,151.866,182.597,209.401
	C725.652,383.818,799.587,321.115,800,231.952V93.385C723.378,93.385,662.122,73.334,617.403,38.262z M617.403,410.002v-178.05
	H462.367V120.12c60.361-3.721,112.315-19.776,155.035-47.958v159.79h155.035C772.094,296.792,725.446,350.468,617.403,410.002z"/>
</svg>
