<?xml version="1.0" encoding="iso-8859-1"?>
<!-- Generator: Adobe Illustrator 17.1.0, SVG Export Plug-In . SVG Version: 6.00 Build 0)  -->
<!DOCTYPE svg PUBLIC "-//W3C//DTD SVG 1.1//EN" "http://www.w3.org/Graphics/SVG/1.1/DTD/svg11.dtd">
<svg version="1.1" id="Layer_1" xmlns="http://www.w3.org/2000/svg" xmlns:xlink="http://www.w3.org/1999/xlink" x="0px" y="0px"
	 viewBox="0 0 800 800" style="enable-background:new 0 0 800 800;" xml:space="preserve">
<path d="M760.643,519.415l-58.091-4.634v222.022l-283.67,61.002c-13.257,2.91-27.052,2.91-40.309,0.108l-272.246-57.23
	c-4.85-1.078-8.407-5.281-8.515-10.239L93.07,548.946c-0.107-5.713,4.203-10.563,9.808-11.101l231.29-20.262
	c3.988-0.323,7.437-2.91,8.946-6.682l55.613-134.937v370.216l251.336-47.745V510.47l-148.058-9.389
	c-11.964-0.759-22.526-8.074-27.443-19.008l-76.698-170.56l-77.061,173.629c-1.616,3.557-4.957,5.928-8.73,6.359L39.505,518.984
	c-8.299,0.862-14.335-7.652-10.778-15.304l72.534-155.092c1.509-3.125,4.419-5.389,7.76-6.035l279.574-51.302l9.269-1.724
	l9.053,1.616l285.61,51.41c3.449,0.647,6.359,2.91,7.868,6.143l70.917,155.523C774.762,511.763,768.834,520.062,760.643,519.415z
	 M467.802,143.552h-33.66v71.518c0,7.439-6.031,13.47-13.47,13.47h-40.41c-7.439,0-13.47-6.031-13.47-13.47v-71.518h-33.657
	c-10.369,0-16.85-11.225-11.665-20.205L388.796,6.735c5.184-8.98,18.145-8.98,23.33-0.001l67.34,116.612
	C484.652,132.326,478.172,143.552,467.802,143.552z"/>
</svg>
