<?xml version="1.0" encoding="iso-8859-1"?>
<!-- Generator: Adobe Illustrator 17.1.0, SVG Export Plug-In . SVG Version: 6.00 Build 0)  -->
<!DOCTYPE svg PUBLIC "-//W3C//DTD SVG 1.1//EN" "http://www.w3.org/Graphics/SVG/1.1/DTD/svg11.dtd">
<svg version="1.1" id="Layer_1" xmlns="http://www.w3.org/2000/svg" xmlns:xlink="http://www.w3.org/1999/xlink" x="0px" y="0px"
	 viewBox="0 0 800 800" style="enable-background:new 0 0 800 800;" xml:space="preserve">
<path d="M315.976,182.478c0,9.37-7.596,16.966-16.967,16.966c-9.37,0-16.966-7.596-16.966-16.966c0-9.37,7.596-16.966,16.966-16.966
	C308.38,165.512,315.976,173.109,315.976,182.478z M400,100.321c9.37,0,16.966-7.596,16.966-16.966S409.37,66.389,400,66.389
	c-9.37,0-16.967,7.596-16.967,16.966S390.63,100.321,400,100.321z M390.301,202.604l112.695-19.626l-112.695-19.625
	c-2.179-0.37-4.535-0.401-6.836,0c-10.838,1.887-18.095,12.203-16.207,23.042C369.145,197.235,379.462,204.491,390.301,202.604z
	 M416.966,283.469c0-9.37-7.596-16.967-16.966-16.967c-9.37,0-16.967,7.596-16.967,16.967c0,9.37,7.596,16.965,16.967,16.965
	C409.37,300.434,416.966,292.838,416.966,283.469z M364.675,362.502c-84.043-16.51-147.65-90.718-147.65-179.528
	c0-103.797,86.874-187.683,191.732-182.769C503.111,4.628,580.2,83.225,582.899,177.644c2.605,91.157-61.854,168.02-147.573,184.859
	H364.675z M618.163,715.379c6.94,0,12.565,5.626,12.565,12.565v25.292c0,6.94-5.626,12.565-12.565,12.565h-35.188v21.633
	c0,6.94-5.626,12.565-12.565,12.565h-37.696c-6.94,0-12.565-5.626-12.565-12.565v-21.633H276.667v21.633
	c0,6.94-5.626,12.565-12.565,12.565h-37.696c-6.94,0-12.565-5.626-12.565-12.565v-21.633h-32.002
	c-6.94,0-12.565-5.626-12.565-12.565v-25.292c0-6.94,5.626-12.565,12.565-12.565H618.163z M400.001,318.856
	c74.921,0,135.874-60.953,135.874-135.882c0-74.92-60.953-135.874-135.874-135.874s-135.874,60.954-135.874,135.874
	C264.126,257.903,325.08,318.856,400.001,318.856z M565.383,444.876v191.605c0,31.735-25.727,57.461-57.461,57.461H292.078
	c-31.735,0-57.461-25.726-57.461-57.461V444.876c0-31.735,25.727-57.461,57.461-57.461h87.805v43.251h40.768v-43.251h87.27
	C539.656,387.415,565.383,413.141,565.383,444.876z M461.78,554.283l-61.556-73.379l-61.78,73.111c1.298,0,1.29,0,36.056,0v84.438
	h51.003v-84.438C461.428,554.015,461.78,554.283,461.78,554.283z"/>
</svg>
