<?xml version="1.0" encoding="iso-8859-1"?>
<!-- Generator: Adobe Illustrator 17.1.0, SVG Export Plug-In . SVG Version: 6.00 Build 0)  -->
<!DOCTYPE svg PUBLIC "-//W3C//DTD SVG 1.1//EN" "http://www.w3.org/Graphics/SVG/1.1/DTD/svg11.dtd">
<svg version="1.1" id="Layer_1" xmlns="http://www.w3.org/2000/svg" xmlns:xlink="http://www.w3.org/1999/xlink" x="0px" y="0px"
	 viewBox="0 0 800 800" style="enable-background:new 0 0 800 800;" xml:space="preserve">
<path d="M630.31,108.932L241.336,291.797v117.427l-67.856-30.172V261.625L562.455,78.761L431.806,20.67
	c-17.493-7.778-46.119-7.778-63.612,0L46.479,163.716C20.849,175.112-0.066,207.385,0,235.434l0.793,335.338
	c0.067,28.347,21.448,60.656,47.513,71.798l320.871,137.167c16.922,7.234,44.613,7.235,61.535,0.004l320.981-137.17
	c26.065-11.139,47.446-43.444,47.513-71.79L800,235.434c0.066-28.049-20.849-60.322-46.479-71.718L630.31,108.932z M727.318,377.353
	l-18.828,8.735l-0.381,132.487c-0.017,5.789-5.131,12.681-11.407,15.39l-28.188,12.168c-6.179,2.668-11.178,0.195-11.182-5.519
	l-0.095-130.748L639,418.326c-8.577,3.979-13.947-2.26-9.688-11.242l43.592-91.969c4.4-9.283,15.432-14.639,19.848-9.604
	l44.733,50.996C741.951,361.599,736.283,373.195,727.318,377.353z M543.262,590.122c0.049,5.547-4.64,12.079-10.458,14.591
	l-26.139,11.283c-5.732,2.474-10.42,0.039-10.487-5.438l-1.531-125.263l-16.911,7.846c-7.954,3.69-13.03-2.363-9.158-10.907
	l39.62-87.426c3.996-8.819,14.213-13.779,18.382-8.895l42.224,49.459c4.216,4.937-0.931,15.951-9.231,19.801l-17.435,8.089
	L543.262,590.122z M758.433,553.751c-0.019,2.909-2.635,6.36-5.84,7.706L454.038,686.882c-2.786,1.171-5.077-0.056-5.118-2.739
	l-0.229-14.592c-0.042-2.689,2.184-5.833,4.974-7.022l299.087-127.407c3.21-1.367,5.801-0.112,5.782,2.805L758.433,553.751z"/>
</svg>
