<?xml version="1.0" encoding="iso-8859-1"?>
<!-- Generator: Adobe Illustrator 17.1.0, SVG Export Plug-In . SVG Version: 6.00 Build 0)  -->
<!DOCTYPE svg PUBLIC "-//W3C//DTD SVG 1.1//EN" "http://www.w3.org/Graphics/SVG/1.1/DTD/svg11.dtd">
<svg version="1.1" id="Layer_1" xmlns="http://www.w3.org/2000/svg" xmlns:xlink="http://www.w3.org/1999/xlink" x="0px" y="0px"
	 viewBox="0 0 800 800" style="enable-background:new 0 0 800 800;" xml:space="preserve">
<path d="M781.37,696.573h-80.942c-10.289,0-18.63-8.341-18.63-18.63V419.699c0-10.289,8.341-18.63,18.63-18.63h80.942
	c10.289,0,18.63,8.341,18.63,18.63v258.244C800,688.233,791.659,696.573,781.37,696.573z M640.656,455.42
	c-14.469-7.356-50.781-23.188-95.327-23.188c-58.026,0-119.275,42.982-119.275,42.982c-46.453,0-143.594,0-159.035,0
	c-20.416,0-63.97,10.746-63.97,62.325c0,42.982,40.329,62.325,63.97,62.325c23.64,0,183.75,0,183.75,0
	c17.059,1.638,31.162,20.183,31.162,20.183s-178.352,0-216.303,0s-75.276-26.63-81.714-54.489
	c-44.056-30.087-101.822-91.53-128.465-119.491c-31.385-32.938-75,2.774-45.847,44.395c14.361,20.502,70.195,80.504,135.031,146.793
	c58.142,59.445,162.001,75.745,242.12,75.745c85.45,0,171.41-46.506,252.368-59.712c5.209-0.85,8.292-6.436,8.292-11.714V466.477
	C647.413,461.803,644.823,457.538,640.656,455.42z M175.829,523.722c10.82-2.641,21.176-15.281,16.516-23.122
	c-10.111-17.011-84.944-80.473-110.555-90.745c-20.946-8.401-25.701,9.817-25.701,9.817S166.813,515.887,175.829,523.722z
	 M197.164,479.141c10.82-2.641,21.176-15.281,16.516-23.122c-10.111-17.011-61.698-57.227-87.309-67.499
	c-20.946-8.401-25.701,9.817-25.701,9.817S188.147,471.306,197.164,479.141z M549.118,144.665V336.94
	c0,31.846-25.817,57.661-57.662,57.661H274.859c-31.846,0-57.662-25.816-57.662-57.661V144.665
	c0-31.846,25.816-57.662,57.662-57.662h88.112v43.402h40.911V87.002h87.575C523.302,87.002,549.118,112.819,549.118,144.665z
	 M437.803,254.454l-61.771-73.635l-61.996,73.367c1.302,0,1.294,0,36.182,0v84.733h51.181v-84.733
	C437.45,254.185,437.803,254.454,437.803,254.454z"/>
</svg>
