<?xml version="1.0" encoding="iso-8859-1"?>
<!-- Generator: Adobe Illustrator 17.1.0, SVG Export Plug-In . SVG Version: 6.00 Build 0)  -->
<!DOCTYPE svg PUBLIC "-//W3C//DTD SVG 1.1//EN" "http://www.w3.org/Graphics/SVG/1.1/DTD/svg11.dtd">
<svg version="1.1" id="Layer_1" xmlns="http://www.w3.org/2000/svg" xmlns:xlink="http://www.w3.org/1999/xlink" x="0px" y="0px"
	 viewBox="0 0 800 800" style="enable-background:new 0 0 800 800;" xml:space="preserve">
<path d="M156.398,5.238H379.72l-20.808,166.419H0L117.843,23.811C127.198,12.074,141.39,5.238,156.398,5.238z M643.602,5.238H420.28
	l20.808,166.419H800L682.157,23.811C672.802,12.074,658.61,5.238,643.602,5.238z M800,200.2v532.932
	c0,34.037-27.593,61.63-61.63,61.63H61.63c-34.037,0-61.63-27.593-61.63-61.63V200.2h358.912v210.272h82.175V200.2H800z
	 M647.484,563.32h16.079v123.697c0,5.459,4.424,9.883,9.883,9.883h24.708c5.458,0,9.883-4.424,9.883-9.883V563.32h16.081
	c7.609,0,12.364-8.237,8.559-14.826l-38.321-66.36c-3.805-6.588-13.315-6.588-17.118,0.001l-38.313,66.36
	C635.12,555.084,639.876,563.32,647.484,563.32z M499.227,563.32h16.08v123.697c0,5.459,4.424,9.883,9.883,9.883h24.708
	c5.458,0,9.883-4.424,9.883-9.883V563.32h16.079c7.608,0,12.364-8.237,8.558-14.826l-38.321-66.36
	c-3.805-6.588-13.314-6.588-17.118,0.001l-38.313,66.36C486.863,555.084,491.618,563.32,499.227,563.32z M751.432,725.6
	c0-2.729-2.213-4.941-4.942-4.941H473.789c-2.729,0-4.941,2.213-4.941,4.941v14.825c0,2.729,2.213,4.942,4.941,4.942H746.49
	c2.729,0,4.942-2.213,4.942-4.942V725.6z"/>
</svg>
