<?xml version="1.0" encoding="iso-8859-1"?>
<!-- Generator: Adobe Illustrator 17.1.0, SVG Export Plug-In . SVG Version: 6.00 Build 0)  -->
<!DOCTYPE svg PUBLIC "-//W3C//DTD SVG 1.1//EN" "http://www.w3.org/Graphics/SVG/1.1/DTD/svg11.dtd">
<svg version="1.1" id="Layer_1" xmlns="http://www.w3.org/2000/svg" xmlns:xlink="http://www.w3.org/1999/xlink" x="0px" y="0px"
	 viewBox="0 0 800 800" style="enable-background:new 0 0 800 800;" xml:space="preserve">
<path d="M398.768,430.439v315.732l251.364-47.702V544.632c0-6.439,5.609-11.441,12.006-10.707l30.925,4.786
	c5.441,0.624,9.549,5.23,9.549,10.707v178.714c0,5.079-3.546,9.469-8.512,10.537l-275.163,59.165
	c-13.297,2.859-27.047,2.89-40.357,0.09l-272.21-57.258c-4.886-1.028-8.426-5.277-8.556-10.268l-4.702-181.5
	c-0.147-5.692,4.158-10.517,9.831-11.015l231.224-20.317c4.01-0.352,7.49-2.91,9.022-6.633l34.834-84.597
	C382.52,415.419,398.768,418.633,398.768,430.439z M90.497,327.064L17.936,482.164c-3.546,7.579,2.521,16.131,10.846,15.29
	l272.502-27.535c3.851-0.389,7.197-2.813,8.767-6.35l87.68-197.532L98.312,321.031C94.885,321.661,91.974,323.908,90.497,327.064z
	 M397.731,266.036l92.778,203.708c1.621,3.56,5.045,5.962,8.944,6.276l271.986,21.873c8.197,0.659,14.082-7.734,10.67-15.216
	l-70.933-155.508c-1.467-3.216-4.418-5.508-7.896-6.134L397.731,266.036z M321.493,105.193l67.34,116.61
	c5.185,8.979,18.146,8.978,23.33-0.001l67.326-116.61c5.185-8.98-1.296-20.205-11.665-20.205h-33.657V13.47
	c0-7.439-6.031-13.47-13.47-13.47l-40.41,0c-7.439,0-13.47,6.031-13.47,13.47v71.517h-33.659
	C322.788,84.987,316.307,96.213,321.493,105.193z"/>
</svg>
