<?xml version="1.0" encoding="iso-8859-1"?>
<!-- Generator: Adobe Illustrator 17.1.0, SVG Export Plug-In . SVG Version: 6.00 Build 0)  -->
<!DOCTYPE svg PUBLIC "-//W3C//DTD SVG 1.1//EN" "http://www.w3.org/Graphics/SVG/1.1/DTD/svg11.dtd">
<svg version="1.1" id="Layer_1" xmlns="http://www.w3.org/2000/svg" xmlns:xlink="http://www.w3.org/1999/xlink" x="0px" y="0px"
	 viewBox="0 0 800 800" style="enable-background:new 0 0 800 800;" xml:space="preserve">
<path d="M483.46,357.647l45.618-62.077c4.364-5.939,15.148-4.915,19.413,1.747l41.455,64.765c3.972,6.206-0.996,13.604-9.029,13.357
	l-17.315-0.534v116.142c0,5.125-4.848,9.603-10.879,10.005l-28.021,1.867c-6.354,0.424-11.55-3.548-11.55-8.874V373.35
	l-19.228-0.594C484.63,372.47,478.758,364.045,483.46,357.647z M652.706,377.653l15.014,0.463V484.86
	c0,4.711,4.066,8.258,9.044,7.927l22.015-1.467c4.753-0.316,8.577-4.262,8.577-8.814V379.339l13.685,0.422
	c6.361,0.196,10.301-6.409,7.151-11.919l-32.742-57.286c-3.355-5.87-11.828-6.674-15.251-1.373l-35.639,55.176
	C640.9,370.021,645.468,377.43,652.706,377.653z M462.349,556.16l277.191-28.272c2.216-0.226,4.005-2.196,4.005-4.4v-11.973
	c0-2.204-1.789-3.84-4.005-3.654l-277.191,23.275c-3.475,0.292-6.305,2.78-6.305,5.557v15.083
	C456.044,554.552,458.874,556.515,462.349,556.16z M800,195.662v468.64c0,28.403-20.728,52.555-48.802,56.864l-342.471,52.557
	c-5.784,0.888-11.669,0.888-17.453,0l-175.092-26.871V564.276l-62.39,12.282v160.719l-104.99-16.113
	C20.728,716.857,0,692.705,0,664.302v-468.64c0-24.853,15.96-46.896,39.572-54.654l114.22-37.528v140.236l62.39-12.282V82.981
	l165.861-54.495c11.664-3.832,24.249-3.832,35.914,0l342.472,112.522C784.04,148.766,800,170.809,800,195.662z M756.853,185.249
	L443.147,82.179v642.61l313.707-48.143V185.249z"/>
</svg>
