<?xml version="1.0" encoding="iso-8859-1"?>
<!-- Generator: Adobe Illustrator 17.1.0, SVG Export Plug-In . SVG Version: 6.00 Build 0)  -->
<!DOCTYPE svg PUBLIC "-//W3C//DTD SVG 1.1//EN" "http://www.w3.org/Graphics/SVG/1.1/DTD/svg11.dtd">
<svg version="1.1" id="Layer_1" xmlns="http://www.w3.org/2000/svg" xmlns:xlink="http://www.w3.org/1999/xlink" x="0px" y="0px"
	 viewBox="0 0 800 800" style="enable-background:new 0 0 800 800;" xml:space="preserve">
<path d="M245.338,113.964H122.882c-20.882,0-37.81,16.928-37.81,37.81v198.501h-37.81C21.16,350.276,0,371.436,0,397.538v166.647
	c16.258-27.318,46.033-45.561,80.062-45.561c49.247,0,89.704,38.377,93.012,86.868h178.273c3.309-48.491,43.67-86.868,93.012-86.868
	c17.392,0,33.745,4.821,47.64,13.139l-196.077-386.73C286.26,125.974,266.706,113.964,245.338,113.964z M367.511,426.273H153.697
	c-5.293,0-9.452-4.254-9.452-9.452V181.833c0-5.199,4.159-9.452,9.452-9.452h93.106c3.592,0,6.806,1.985,8.413,5.104
	l120.708,234.988C379.137,418.806,374.6,426.273,367.511,426.273z M80.059,537.511c-41.013,0-74.262,33.248-74.262,74.262
	c0,41.014,33.249,74.262,74.262,74.262s74.262-33.248,74.262-74.262C154.322,570.759,121.073,537.511,80.059,537.511z
	 M80.059,648.905c-20.507,0-37.131-16.625-37.131-37.131c0-20.507,16.625-37.131,37.131-37.131s37.131,16.624,37.131,37.131
	C117.19,632.28,100.566,648.905,80.059,648.905z M718.386,567.682v37.81H537.183c-2.117-31.49-19.902-58.688-45.656-73.905V151.774
	h37.81v415.907H718.386z M444.332,537.511c-41.013,0-74.262,33.248-74.262,74.262c0,41.014,33.249,74.262,74.262,74.262
	s74.262-33.248,74.262-74.262C518.595,570.759,485.346,537.511,444.332,537.511z M444.332,648.905
	c-20.507,0-37.131-16.625-37.131-37.131c0-20.507,16.625-37.131,37.131-37.131s37.131,16.624,37.131,37.131
	C481.463,632.28,464.839,648.905,444.332,648.905z M764.345,255.506h-63.604v65.254h-53.654v-65.254H583.15
	c-19.692,0-35.655,15.964-35.655,35.655v222.87c0,19.692,15.964,35.655,35.655,35.655h181.195c19.692,0,35.655-15.963,35.655-35.655
	v-222.87C800,271.47,784.036,255.506,764.345,255.506z"/>
</svg>
