<?xml version="1.0" encoding="iso-8859-1"?>
<!-- Generator: Adobe Illustrator 17.1.0, SVG Export Plug-In . SVG Version: 6.00 Build 0)  -->
<!DOCTYPE svg PUBLIC "-//W3C//DTD SVG 1.1//EN" "http://www.w3.org/Graphics/SVG/1.1/DTD/svg11.dtd">
<svg version="1.1" id="Layer_1" xmlns="http://www.w3.org/2000/svg" xmlns:xlink="http://www.w3.org/1999/xlink" x="0px" y="0px"
	 viewBox="0 0 800 800" style="enable-background:new 0 0 800 800;" xml:space="preserve">
<path d="M800,428.182v-28.244c0-13.769-5.507-26.965-15.295-36.649L632.82,213.016c-9.652-9.55-22.682-14.906-36.26-14.906h-76.631
	v-28.742c0-21.355-17.311-38.666-38.666-38.666H38.666C17.311,130.702,0,148.013,0,169.368v258.814H800z M565.426,248.762
	c0-3.351,2.707-6.058,6.058-6.058h27.968c1.547,0,3.093,0.645,4.253,1.676l118.962,113.549c3.995,3.738,1.289,10.44-4.124,10.44
	H571.484c-3.351,0-6.058-2.706-6.058-6.057V248.762z M800,449.547v85.601c0,21.355-17.311,38.666-38.666,38.666h-41.373
	c-7.475-51.297-51.684-90.736-105.042-90.736c-53.23,0-97.438,39.439-104.914,90.736H300.306
	c-7.475-51.297-51.684-90.736-104.914-90.736c-53.23,0-97.438,39.439-104.913,90.736H38.666C17.311,573.814,0,556.503,0,535.148
	v-85.601H800z M614.975,508.906c-44.291,0-80.196,35.905-80.196,80.196s35.906,80.196,80.196,80.196s80.196-35.905,80.196-80.196
	S659.266,508.906,614.975,508.906z M614.975,629.201c-22.145,0-40.098-17.953-40.098-40.099s17.952-40.098,40.098-40.098
	s40.099,17.952,40.099,40.098S637.121,629.201,614.975,629.201z M195.378,508.906c-44.291,0-80.196,35.905-80.196,80.196
	s35.906,80.196,80.196,80.196s80.196-35.905,80.196-80.196S239.668,508.906,195.378,508.906z M195.378,629.201
	c-22.145,0-40.099-17.953-40.099-40.099s17.953-40.098,40.099-40.098s40.098,17.952,40.098,40.098S217.523,629.201,195.378,629.201z
	"/>
</svg>
