<?xml version="1.0" encoding="iso-8859-1"?>
<!-- Generator: Adobe Illustrator 17.1.0, SVG Export Plug-In . SVG Version: 6.00 Build 0)  -->
<!DOCTYPE svg PUBLIC "-//W3C//DTD SVG 1.1//EN" "http://www.w3.org/Graphics/SVG/1.1/DTD/svg11.dtd">
<svg version="1.1" id="Layer_1" xmlns="http://www.w3.org/2000/svg" xmlns:xlink="http://www.w3.org/1999/xlink" x="0px" y="0px"
	 viewBox="0 0 800 800" style="enable-background:new 0 0 800 800;" xml:space="preserve">
<path d="M781.751,205.306L685.679,84.775c-9.075-11.386-22.843-18.018-37.403-18.018H151.723c-14.56,0-28.327,6.632-37.402,18.017
	L18.248,205.306C8.211,217.898,0,241.376,0,257.478v415.978c0,33.02,26.768,59.788,59.788,59.788h680.424
	c33.02,0,59.788-26.768,59.788-59.788L800,257.478C800,241.376,791.788,217.898,781.751,205.306z M565.615,479.167
	c-26.655,0-48.895,11.13-54.069,25.932h-2.221c-5.048-14.897-27.356-26.126-54.126-26.126c-17.244,0-32.604,4.675-42.725,11.971
	v125.291c0,31.182-25.367,56.549-56.549,56.549c-31.182,0-56.549-25.367-56.549-56.549c0-6.891,5.583-12.475,12.474-12.475
	s12.474,5.584,12.474,12.475c0,17.424,14.176,31.6,31.6,31.6c17.425,0,31.601-14.176,31.601-31.6V491.149
	c-10.123-7.303-25.492-11.982-42.743-11.982c-26.655,0-48.896,11.13-54.069,25.932h-2.22c-5.048-14.897-27.356-26.126-54.127-26.126
	c-17.204,0-32.566,4.64-42.691,11.907c8.137-88.836,91.724-159.45,195.851-164.708v-9.325c0-6.891,5.583-12.474,12.474-12.474
	s12.474,5.583,12.474,12.474v9.327c104.199,5.27,187.826,75.987,195.851,164.915C598.2,483.813,582.831,479.167,565.615,479.167z
	 M49.645,204.286L81.46,164.37h217.073l21.421-35.22h-210.42l23.489-29.469c4.564-5.726,11.38-9.009,18.701-9.009h496.553
	c7.322,0,14.138,3.284,18.702,9.009l23.489,29.469H476.298l11.958,35.22H718.54l31.815,39.916H49.645z"/>
</svg>
