<?xml version="1.0" encoding="iso-8859-1"?>
<!-- Generator: Adobe Illustrator 17.1.0, SVG Export Plug-In . SVG Version: 6.00 Build 0)  -->
<!DOCTYPE svg PUBLIC "-//W3C//DTD SVG 1.1//EN" "http://www.w3.org/Graphics/SVG/1.1/DTD/svg11.dtd">
<svg version="1.1" id="Layer_1" xmlns="http://www.w3.org/2000/svg" xmlns:xlink="http://www.w3.org/1999/xlink" x="0px" y="0px"
	 viewBox="0 0 800 800" style="enable-background:new 0 0 800 800;" xml:space="preserve">
<path d="M440.371,162.181h-61.133v30.298H350.68v-30.298h-61.507c-22.23,0-40.252,18.021-40.252,40.252v94.432l69.868,65.346
	c4.567,4.275,8.114,9.302,10.911,14.694h110.67c22.23,0,40.252-18.021,40.252-40.251V202.432
	C480.623,180.202,462.602,162.181,440.371,162.181z M382.558,278.884v59.15h-35.728v-59.15c-24.354,0-24.348,0-25.257,0
	l43.277-51.213l43.12,51.401C407.971,279.072,407.724,278.884,382.558,278.884z M15.368,82.809C15.368,37.074,52.443,0,98.177,0
	s82.809,37.074,82.809,82.809c0,45.734-37.075,82.808-82.809,82.808S15.368,128.543,15.368,82.809z M301.604,420.145
	c-5.317,5.687-12.521,8.563-19.738,8.563c-6.61,0-13.24-2.415-18.452-7.283L152.222,317.425v159.414
	c0,17.017-8.024,32.011-20.319,41.917l60.303,247.836c3.529,14.5-5.37,29.119-19.87,32.642c-2.144,0.528-4.295,0.765-6.406,0.765
	c-12.178,0-23.228-8.273-26.236-20.635l-34.628-142.31L85.566,773.335c-2.124,14.764-15.826,25.042-30.577,22.918
	c-14.777-2.111-25.036-15.793-22.925-30.57l35.028-244.75c-13.85-9.786-22.955-25.847-22.955-44.093V267.015
	c0-29.845,24.198-54.043,54.043-54.043c6.908,0,13.457,1.417,19.53,3.779c4.756,0.954,9.33,3.117,13.132,6.67l169.49,158.526
	C311.229,392.147,311.803,409.247,301.604,420.145z M701.823,165.617c-45.734,0-82.809-37.074-82.809-82.808
	C619.014,37.074,656.09,0,701.823,0c45.734,0,82.809,37.074,82.809,82.809C784.632,128.543,747.557,165.617,701.823,165.617z
	 M499.669,381.948l169.49-158.526c3.802-3.553,8.376-5.716,13.132-6.67c6.073-2.363,12.622-3.779,19.53-3.779
	c29.845,0,54.043,24.198,54.043,54.043v209.824c0,18.246-9.106,34.307-22.955,44.093l35.028,244.75
	c2.111,14.777-8.147,28.459-22.925,30.57c-14.751,2.124-28.453-8.154-30.577-22.918l-19.501-136.281l-34.628,142.31
	C657.298,791.727,646.248,800,634.07,800c-2.111,0-4.262-0.237-6.406-0.765c-14.5-3.523-23.4-18.142-19.87-32.642l60.303-247.836
	c-12.295-9.906-20.319-24.9-20.319-41.917V317.425L536.586,421.425c-5.212,4.869-11.842,7.283-18.452,7.283
	c-7.217,0-14.421-2.876-19.738-8.563C488.197,409.247,488.771,392.147,499.669,381.948z"/>
</svg>
