<?xml version="1.0" encoding="iso-8859-1"?>
<!-- Generator: Adobe Illustrator 17.1.0, SVG Export Plug-In . SVG Version: 6.00 Build 0)  -->
<!DOCTYPE svg PUBLIC "-//W3C//DTD SVG 1.1//EN" "http://www.w3.org/Graphics/SVG/1.1/DTD/svg11.dtd">
<svg version="1.1" id="Layer_1" xmlns="http://www.w3.org/2000/svg" xmlns:xlink="http://www.w3.org/1999/xlink" x="0px" y="0px"
	 viewBox="0 0 800 800" style="enable-background:new 0 0 800 800;" xml:space="preserve">
<path d="M758.943,177.389l-108.838-48.394L306.507,290.528v103.729l-59.94-26.652V263.876l343.599-161.532L474.757,51.029
	c-15.453-6.871-40.739-6.871-56.192,0L134.38,177.389c-22.639,10.066-41.115,38.575-41.057,63.352l0.443,187.24
	c17.815-5.732,36.769-8.897,56.464-8.897c101.894,0,184.801,82.907,184.801,184.813c0,26.615-5.768,51.872-15.942,74.756
	l100.345,42.896c14.948,6.389,39.408,6.391,54.357,0.003l283.536-121.169c23.025-9.84,41.911-38.376,41.971-63.415L800,240.74
	C800.058,215.964,781.583,187.455,758.943,177.389z M649.223,392.366l38.507-81.24c3.887-8.2,13.632-12.931,17.533-8.484
	l39.515,45.047c3.945,4.498-1.062,14.741-8.98,18.414l-16.632,7.716l-0.336,117.031c-0.015,5.114-4.532,11.202-10.076,13.594
	l-24.9,10.748c-5.458,2.357-9.874,0.172-9.877-4.875l-0.084-115.496l-16.111,7.474C650.206,405.812,645.462,400.301,649.223,392.366
	z M507.24,458.75l34.998-77.227c3.53-7.79,12.555-12.172,16.238-7.858l37.298,43.69c3.724,4.361-0.822,14.09-8.154,17.491
	l-15.401,7.145l0.993,112.061c0.043,4.9-4.098,10.67-9.238,12.889l-23.09,9.967c-5.063,2.186-9.205,0.034-9.264-4.803l-1.353-110.65
	l-14.939,6.93C508.303,471.644,503.819,466.298,507.24,458.75z M763.282,521.924c-0.017,2.57-2.328,5.618-5.158,6.807
	L494.397,639.525c-2.461,1.034-4.485-0.049-4.521-2.42l-0.203-12.89c-0.037-2.376,1.929-5.153,4.394-6.203l264.198-112.544
	c2.836-1.208,5.124-0.099,5.108,2.478L763.282,521.924z M150.229,453.665C67.26,453.665,0,520.925,0,603.894
	s67.26,150.229,150.229,150.229s150.229-67.26,150.229-150.229S233.198,453.665,150.229,453.665z M248.394,573.029l-92.449,104.005
	c-4.554,5.123-10.896,7.753-17.283,7.753c-5.073,0-10.174-1.659-14.428-5.067l-57.78-46.224
	c-9.965-7.967-11.584-22.514-3.606-32.479c7.967-9.976,22.52-11.59,32.485-3.611l40.644,32.513l77.874-87.607
	c8.47-9.536,23.084-10.405,32.626-1.919C256.017,548.879,256.875,563.482,248.394,573.029z"/>
</svg>
