<?xml version="1.0" encoding="iso-8859-1"?>
<!-- Generator: Adobe Illustrator 17.1.0, SVG Export Plug-In . SVG Version: 6.00 Build 0)  -->
<!DOCTYPE svg PUBLIC "-//W3C//DTD SVG 1.1//EN" "http://www.w3.org/Graphics/SVG/1.1/DTD/svg11.dtd">
<svg version="1.1" id="Layer_1" xmlns="http://www.w3.org/2000/svg" xmlns:xlink="http://www.w3.org/1999/xlink" x="0px" y="0px"
	 viewBox="0 0 800 800" style="enable-background:new 0 0 800 800;" xml:space="preserve">
<path d="M225.133,506.472l-0.371-169.318c-0.018-7.714,7.862-12.929,14.955-9.897l142.711,61.006
	c3.944,1.686,6.505,5.557,6.516,9.846l0.371,169.318c0.018,7.714-7.862,12.929-14.955,9.897l-142.711-61.006
	C227.705,514.632,225.143,510.761,225.133,506.472z M566.682,325.621c5.661-0.014,10.74,4.539,10.755,10.722l0.371,169.318
	c0.01,4.289-2.533,8.172-6.469,9.877l-142.421,61.681c-1.405,0.609-2.844,0.892-4.246,0.896
	c-5.661,0.013-10.741-4.539-10.755-10.722l-0.371-169.318c-0.01-4.289,2.533-8.172,6.469-9.877l142.421-61.681
	C563.84,325.908,565.279,325.624,566.682,325.621L566.682,325.621z M398.988,213.906c1.483-0.004,2.968,0.3,4.356,0.912
	l150.149,66.191c8.518,3.755,8.546,15.831,0.046,19.626l-149.835,66.9c-1.385,0.618-2.868,0.929-4.351,0.933
	c-1.484,0.004-2.968-0.3-4.356-0.912l-150.149-66.191c-8.518-3.755-8.546-15.831-0.046-19.626l149.835-66.901
	C396.022,214.22,397.505,213.909,398.988,213.906L398.988,213.906z M433.46,702.686v-81.124h-66.775v81.124h-63.97L400.061,800
	l97.362-97.314H433.46z M702.686,366.54h-81.124v66.775h81.124v63.97L800,399.939l-97.314-97.362V366.54z M366.54,97.314v81.124
	h66.775V97.314h63.97L399.939,0l-97.362,97.314H366.54z M97.314,433.46h81.124v-66.775H97.314v-63.97L0,400.061l97.314,97.362
	V433.46z"/>
</svg>
