<?xml version="1.0" encoding="iso-8859-1"?>
<!-- Generator: Adobe Illustrator 17.1.0, SVG Export Plug-In . SVG Version: 6.00 Build 0)  -->
<!DOCTYPE svg PUBLIC "-//W3C//DTD SVG 1.1//EN" "http://www.w3.org/Graphics/SVG/1.1/DTD/svg11.dtd">
<svg version="1.1" id="Layer_1" xmlns="http://www.w3.org/2000/svg" xmlns:xlink="http://www.w3.org/1999/xlink" x="0px" y="0px"
	 viewBox="0 0 800 800" style="enable-background:new 0 0 800 800;" xml:space="preserve">
<path d="M399.44,146.738c-116.779,0-198.161-38.665-198.161-73.369S282.661,0,399.44,0S597.6,38.665,597.6,73.369
	S516.218,146.738,399.44,146.738z M687.866,379.379c0-100.93-43.581-221.767-70.457-280.676
	c-17.84,32.727-69.81,58.079-139.943,68.943l-30.477,91.609h69.971L391.407,458.113l37.589-142.796l-84.609-2.348l28.829-140.123
	c-94.93-4.492-168.364-33.226-191.127-73.016c-26.912,59.291-69.956,179.224-69.956,279.549
	c0,78.991,59.786,202.525,254.405,215.269c12.37,32.406,7.511,76.622-6.689,114.508c-77.535,4.771-135.334,22.991-135.334,44.792
	C224.516,779.383,303.083,800,400,800s175.484-20.617,175.484-46.051c0-21.801-57.799-40.021-135.333-44.792
	c-14.2-37.886-19.059-82.102-6.689-114.508C628.081,581.904,687.866,458.37,687.866,379.379z"/>
</svg>
