<?xml version="1.0" encoding="iso-8859-1"?>
<!-- Generator: Adobe Illustrator 17.1.0, SVG Export Plug-In . SVG Version: 6.00 Build 0)  -->
<!DOCTYPE svg PUBLIC "-//W3C//DTD SVG 1.1//EN" "http://www.w3.org/Graphics/SVG/1.1/DTD/svg11.dtd">
<svg version="1.1" id="Layer_1" xmlns="http://www.w3.org/2000/svg" xmlns:xlink="http://www.w3.org/1999/xlink" x="0px" y="0px"
	 viewBox="0 0 800 800" style="enable-background:new 0 0 800 800;" xml:space="preserve">
<g>
	<path d="M800,442.078v72.713c0,18.139-14.705,32.844-32.844,32.844h-35.144c-6.349-43.573-43.902-77.074-89.227-77.074
		c-45.216,0-82.768,33.501-89.118,77.074H255.113c-6.349-43.573-43.902-77.074-89.118-77.074c-45.215,0-82.768,33.501-89.117,77.074
		H32.867c-18.139,0-32.844-14.705-32.844-32.844v-72.713H800z M226.232,266.612h-18.71l-6.875,35.496h18.229
		c12.146,0,22.217-8.318,22.217-22.228C241.093,271.413,235.502,266.612,226.232,266.612z M710.969,560.663
		c0,37.552-30.545,68.097-68.097,68.097c-37.661,0-68.207-30.546-68.207-68.097c0-37.661,30.546-68.206,68.207-68.206
		C680.424,492.457,710.969,523.002,710.969,560.663z M676.921,560.663c0-18.83-15.328-34.048-34.048-34.048
		c-18.831,0-34.049,15.218-34.049,34.048c0,18.721,15.218,34.049,34.049,34.049C661.593,594.712,676.921,579.385,676.921,560.663z
		 M234.07,560.663c0,37.552-30.435,68.097-68.097,68.097s-68.097-30.546-68.097-68.097c0-37.661,30.436-68.206,68.097-68.206
		S234.07,523.002,234.07,560.663z M200.022,560.663c0-18.83-15.218-34.048-34.048-34.048c-18.831,0-34.049,15.218-34.049,34.048
		c0,18.721,15.218,34.049,34.049,34.049C184.804,594.712,200.022,579.385,200.022,560.663z M799.977,423.922H0V204.084
		c0-18.174,14.78-32.844,32.844-32.844h496.387c18.174,0,32.844,14.671,32.844,32.844v24.415h65.141
		c11.495,0,22.553,4.598,30.764,12.699l129.078,127.655c8.211,8.211,12.919,19.378,12.919,31.092V423.922z M116.58,298.751
		l6.073-32.139h44.765l3.357-17.748h-65.068L83.64,362.376h20.464l8.959-45.888h37.73l3.357-17.737H116.58z M236.303,314.574v-0.321
		c17.106-5.592,25.895-22.377,25.895-37.891c0-11.664-5.752-20.464-15.353-24.623c-4.629-2.074-10.232-2.876-16.305-2.876h-40.125
		l-22.057,113.512h20.613l8.158-42.37h20.464l14.391,42.37h22.057l-15.182-42.05C237.415,316.178,236.303,314.574,236.303,314.574z
		 M362.239,248.864h-67.784l-22.217,113.512h70.5l3.357-17.748h-49.876l5.912-30.535h38.211l3.518-17.748h-38.211l5.752-29.733
		h47.321L362.239,248.864z M453.822,248.864h-67.784l-22.217,113.512h70.5l3.357-17.748h-49.876l5.912-30.535h38.211l3.518-17.748
		h-38.211l5.752-29.733h47.321L453.822,248.864z M734.289,364.254l-101.051-96.453c-0.986-0.875-2.299-1.423-3.613-1.423h-23.757
		c-2.847,0-5.146,2.299-5.146,5.146v96.453c0,2.847,2.299,5.145,5.146,5.145h124.917
		C735.383,373.122,737.683,367.43,734.289,364.254z"/>
</g>
</svg>
