<?xml version="1.0" encoding="iso-8859-1"?>
<!-- Generator: Adobe Illustrator 17.1.0, SVG Export Plug-In . SVG Version: 6.00 Build 0)  -->
<!DOCTYPE svg PUBLIC "-//W3C//DTD SVG 1.1//EN" "http://www.w3.org/Graphics/SVG/1.1/DTD/svg11.dtd">
<svg version="1.1" id="Layer_1" xmlns="http://www.w3.org/2000/svg" xmlns:xlink="http://www.w3.org/1999/xlink" x="0px" y="0px"
	 viewBox="0 0 800 800" style="enable-background:new 0 0 800 800;" xml:space="preserve">
<path d="M148.894,336.87H97.947V33.4h50.947V336.87z M274.048,33.4h-71.991v303.47h71.991V33.4z M367.636,33.4H331.64v303.47h35.995
	V33.4z M494.451,33.4h-84.174v303.47h84.174V33.4z M568.657,33.4h-21.044v303.47h21.044V33.4z M627.357,33.4h-27.689v303.47h27.689
	V33.4z M703.778,33.4h-54.27v303.47h54.27V33.4z M698.52,363.172h-49.012v144.609h49.012V363.172z M800,336.87h-72.727v26.303H800
	V336.87z M147.926,359.789H98.914v144.609h49.012V359.789z M72.727,336.87H0v26.303h72.727V336.87z M575.302,442.521v28.964
	c0,46.467-14.287,91.811-40.925,129.885l-60.97,87.148V766.6H321.673v-78.082l-60.971-87.148
	c-26.638-38.074-40.925-83.418-40.925-129.885v-28.964c0-31.283,25.361-56.644,56.644-56.644h123.889h118.347
	C549.942,385.877,575.302,411.237,575.302,442.521z M486.302,459.578H301.859c18.095,32.276,52.586,54.123,92.221,54.123
	S468.207,491.854,486.302,459.578z"/>
</svg>
