<?xml version="1.0" encoding="iso-8859-1"?>
<!-- Generator: Adobe Illustrator 17.1.0, SVG Export Plug-In . SVG Version: 6.00 Build 0)  -->
<!DOCTYPE svg PUBLIC "-//W3C//DTD SVG 1.1//EN" "http://www.w3.org/Graphics/SVG/1.1/DTD/svg11.dtd">
<svg version="1.1" id="Layer_1" xmlns="http://www.w3.org/2000/svg" xmlns:xlink="http://www.w3.org/1999/xlink" x="0px" y="0px"
	 viewBox="0 0 800 800" style="enable-background:new 0 0 800 800;" xml:space="preserve">
<path d="M715.849,123.938C649.742,46.896,553.605,2.714,452.073,2.714c-101.643,0-197.79,44.193-263.731,121.18
	c-54.354,63.011-84.295,143.569-84.295,226.847c0,15.103,1.015,30.11,2.951,44.945h46.135c-1.396-9.267-2.511-18.59-3.041-28.006
	h106.904c0.253,9.499,0.939,18.749,1.608,28.006h34.122c-0.746-9.252-1.444-18.534-1.729-28.006h144.049v79.897
	c7.63,3.361,14.684,8.066,20.786,14.095l13.179,13.04V367.679h144.06c-1.433,47.696-8.867,92.871-20.817,132.819
	c-35.904-9.178-73.978-14.46-113.506-16.152l37.985,37.584c22.115,2.48,43.762,6.093,64.358,11.155
	c-5.087,12.985-10.763,25.069-16.816,36.417c9.602,11.709,15.145,26.469,15.653,41.653c13.312-19.981,25.053-43.038,34.807-68.736
	c18.719,6.139,36.039,13.365,51.885,21.583c-25.282,25.463-54.62,46.001-86.579,60.936v49.37
	c51.835-20.5,98.56-53.409,135.774-96.709C770.103,514.664,800,434.106,800,350.74C800,267.385,770.103,186.827,715.849,123.938z
	 M256.996,333.713H150.097c3.505-61.962,25.998-121.288,64.516-170.05c19.374,10.644,40.825,19.774,63.986,27.431
	C266.012,233.85,258.37,282.096,256.996,333.713z M289.322,159.013c-18.652-6.156-35.937-13.384-51.779-21.586
	c29.137-29.422,63.699-52.305,101.51-67.528C319.455,93.91,302.58,124.074,289.322,159.013z M435.046,333.713H290.997
	c1.433-47.681,8.863-92.843,20.807-132.781c38.959,9.892,80.271,15.457,123.242,16.621V333.713z M435.046,182.94
	c-38.701-1.104-76.805-5.969-112.083-14.589c22.893-58.457,56.225-101.554,94.146-118.285c5.948-0.689,11.924-1.238,17.936-1.575
	V182.94z M753.951,333.713H647.072c-1.373-51.608-9.012-99.847-21.597-142.598c23.234-7.686,44.711-16.82,64.063-27.447
	C727.983,212.335,750.453,271.674,753.951,333.713z M469.012,48.485c6.008,0.335,11.978,0.885,17.922,1.573
	c37.938,16.726,71.28,59.837,94.179,118.314c-35.271,8.615-73.382,13.474-112.101,14.572V48.485z M469.012,333.713V217.554
	c42.979-1.157,84.305-6.716,123.26-16.597c11.94,39.933,19.368,85.086,20.8,132.757H469.012z M565.018,69.904
	c37.8,15.223,72.38,38.11,101.569,67.539c-15.83,8.18-33.134,15.407-51.835,21.584C601.493,124.084,584.616,93.918,565.018,69.904z
	 M689.568,537.79c-19.382-10.682-40.88-19.82-64.109-27.453c12.594-42.765,20.239-91.025,21.613-142.658h106.883
	C750.475,429.733,728.018,489.088,689.568,537.79z M546.071,632.703v-19.279c0-9.399-3.759-18.406-10.44-25.016L431.956,485.833
	c-6.589-6.519-15.482-10.175-24.75-10.175h-52.308v-19.619c0-14.577-11.816-26.393-26.393-26.393H26.393
	C11.816,429.646,0,441.462,0,456.039v176.664H546.071z M385.954,510.233c0-2.287,1.848-4.135,4.135-4.135h19.091
	c1.056,0,2.111,0.44,2.903,1.144l81.202,77.507c2.727,2.552,0.88,7.126-2.815,7.126H390.089c-2.287,0-4.135-1.847-4.135-4.135
	V510.233z M546.071,647.286v58.431c0,14.576-11.817,26.393-26.393,26.393h-28.241c-5.102-35.015-35.279-61.935-71.701-61.935
	c-36.334,0-66.51,26.921-71.613,61.935H204.986c-5.102-35.015-35.279-61.935-71.613-61.935c-36.334,0-66.51,26.921-71.613,61.935
	H26.393C11.816,732.11,0,720.293,0,705.717v-58.431H546.071z M419.776,687.804c-30.232,0-54.741,24.508-54.741,54.741
	s24.509,54.741,54.741,54.741c30.232,0,54.741-24.508,54.741-54.741S450.008,687.804,419.776,687.804z M419.776,769.916
	c-15.116,0-27.37-12.255-27.37-27.371s12.254-27.37,27.37-27.37c15.116,0,27.371,12.254,27.371,27.37
	S434.892,769.916,419.776,769.916z M133.363,687.804c-30.232,0-54.741,24.508-54.741,54.741s24.509,54.741,54.741,54.741
	s54.741-24.508,54.741-54.741S163.595,687.804,133.363,687.804z M133.363,769.916c-15.116,0-27.371-12.255-27.371-27.371
	s12.255-27.37,27.371-27.37s27.37,12.254,27.37,27.37S148.479,769.916,133.363,769.916z"/>
</svg>
