<?xml version="1.0" encoding="iso-8859-1"?>
<!-- Generator: Adobe Illustrator 17.1.0, SVG Export Plug-In . SVG Version: 6.00 Build 0)  -->
<!DOCTYPE svg PUBLIC "-//W3C//DTD SVG 1.1//EN" "http://www.w3.org/Graphics/SVG/1.1/DTD/svg11.dtd">
<svg version="1.1" id="Layer_1" xmlns="http://www.w3.org/2000/svg" xmlns:xlink="http://www.w3.org/1999/xlink" x="0px" y="0px"
	 viewBox="0 0 800 800" style="enable-background:new 0 0 800 800;" xml:space="preserve">
<path d="M403.767,178.452c-125.913,0-228.354,102.444-228.354,228.357s102.441,228.35,228.354,228.35
	s228.354-102.437,228.354-228.35S529.68,178.452,403.767,178.452z M203.686,406.809c0-33.513,8.323-65.102,22.947-92.88
	c-0.079,35.901,19.119,65.782,28.118,74.782c29.338,29.338,71.893,20.094,77.399,44.602c5.507,24.508-29.263,24.598-26.931,43.33
	c2.333,18.802,47.587,23.753,37.533,41.068c-13.36,23.009,8.941,24.638,2.525,53.018c-3.49,15.437,18.853,18.42,27.11,6.702
	c6.363-9.03,5.088-20.047,17.798-33.604c15.526-16.561,51.687-19.24,47.593-46.622c-6.808-45.528-51.049-52.634-70.347-63.281
	c-21.845-12.051-16.534-40.886-21.215-54.613c-6.642-19.478-29.146,5.458-41.138-5.867c-19.804-18.702,3.519-45.06,20.075-44.531
	c35.019,1.118,45.733,35.201,58.597,33.999c12.582-1.131,20.763-18.661,22.91-27.992c4.666-20.278-7.833-11.224-12.913-21.788
	c-7.809-16.241,34.004-31.644,39.576-42.558c10.687-20.934-52.996-26.751-54.959-49.146c-0.801-9.137,16.748-13.574,36.708-14.363
	c22.365,1.253,43.742,6.219,63.568,14.252c19.05,13.69,30.618,36.737,32.783,62.291c1.912,22.564-22.564,42.833-47.409,50.301
	c-17.543,5.273-30.991,28.481-22.901,47.402c5.55,12.981,44.305,10.527,40.983,38.337c-2.727,22.834,27.118,28.862,37.72,27.731
	c10.532-1.202,26.835,17.439,18.636,25.639c-8.199,8.2-23.579,8.489-21.222,29.711c0.681,6.128,19.336,5.367,19.336,14.619
	c0,9.432-9.667,20.135-2.274,30.922c1.639,2.392,3.305,4.194,4.974,5.584c-35.669,32.893-83.27,53.032-135.5,53.032
	C293.443,606.886,203.686,517.129,203.686,406.809z M48.861,297.346c-5.942,0-11.822-1.691-16.968-4.898
	c-13.115-8.179-18.224-25.545-11.871-40.4C85.507,98.937,235.635,0,402.506,0c55.715,0,110.137,11.113,161.763,33.029
	C624.31,58.512,678.086,98.39,720.115,148.511l23.423-13.826c8.439-4.982,19.107,1.042,19.199,10.842l1.087,115.035
	c0.093,9.797-10.454,16.022-18.986,11.205l-100.164-56.543c-8.532-4.817-8.652-17.063-0.216-22.045l20.128-11.887
	c-34.359-38.511-77.494-69.439-125.179-89.689c-43.719-18.547-89.8-27.957-136.963-27.957c-141.737,0-269.016,84.12-324.284,214.295
	C73.163,289.726,61.665,297.346,48.861,297.346z M405.738,800c-63.261,0-124.309-14.134-181.453-42.016
	c-58.624-28.591-110.237-71.216-149.605-123.488l-24.084,12.57c-8.687,4.534-19.025-2.037-18.607-11.828l4.906-114.92
	c0.418-9.79,11.277-15.456,19.547-10.199l97.073,61.714c8.27,5.258,7.746,17.498-0.944,22.029l-20.709,10.799
	c32.308,40.276,73.765,73.417,120.318,96.115c48.406,23.606,100.093,35.577,153.633,35.577
	c133.418,0,257.343-76.997,316.117-196.273c3.665-7.438,9.565-13.854,17.296-16.851c10.444-4.049,21.514-2.556,30.276,3.552
	c12.667,8.851,16.856,26.465,9.746,40.972C708.902,711.008,565.773,800,405.738,800z"/>
</svg>
