<?xml version="1.0" encoding="iso-8859-1"?>
<!-- Generator: Adobe Illustrator 17.1.0, SVG Export Plug-In . SVG Version: 6.00 Build 0)  -->
<!DOCTYPE svg PUBLIC "-//W3C//DTD SVG 1.1//EN" "http://www.w3.org/Graphics/SVG/1.1/DTD/svg11.dtd">
<svg version="1.1" id="Layer_1" xmlns="http://www.w3.org/2000/svg" xmlns:xlink="http://www.w3.org/1999/xlink" x="0px" y="0px"
	 viewBox="0 0 800 800" style="enable-background:new 0 0 800 800;" xml:space="preserve">
<path d="M408.901,8.901c-146.297,0-274.011,80.793-341.078,200.056c8.165-2.587,16.837-4.154,26.124-4.154
	c26.191,0,51.442,12.382,75.298,36.498c14.892,5.061,30.564,9.725,47.147,13.787c-2.733,12.834-4.973,26.14-6.977,39.646
	c32.29,56.648,18.106,92.815-8.577,123.999h1.069c0.459,18.621,1.773,36.728,3.553,54.494
	c10.157,13.114,24.789,30.013,45.623,51.304c-6.494-33.317-10.671-68.807-11.687-105.797h150.771v108.53
	c-43.23,0.869-84.909,4.874-124.709,11.661c13.463,13.218,25.171,23.96,35.294,32.665c28.968-3.685,59.003-5.942,89.415-6.571
	v11.433c12.895-8.014,27.817-13.561,46.23-13.561c8.176,0,16.461,1.222,24.961,3.477c31.96,1.874,63.215,5.454,92.746,10.777
	c-3.825,12.856-8.085,25.127-12.662,36.872c11.737,10.301,21.123,20.75,28.199,31.416c8.284-18.792,15.646-39.063,21.891-60.698
	c31.336,7.592,59.6,17.154,83.596,28.221c-24.876,31.035-55.077,57.589-89.156,78.396c0.053,0.771,0.215,1.526,0.247,2.3
	c1.098,26.336-9.943,48.046-24.12,66.163C701.826,700.094,800,561.308,800,400C800,184.346,624.555,8.901,408.901,8.901z
	 M225.338,218.716c-31.97-7.82-60.642-17.638-84.795-28.963c39.142-49.849,91.782-88.605,152.435-110.589
	C264.539,114.234,241.276,162.12,225.338,218.716z M390.168,381.268H239.397c1.144-41.658,6.092-81.611,14.097-118.457
	c43.064,8.125,88.839,12.703,136.675,13.657V381.268z M390.168,238.704c-44.095-0.909-87.498-5.016-127.466-12.318
	c23.935-82.579,64.03-144.408,110.632-165.674c5.573-0.58,11.186-1.015,16.834-1.322V238.704z M699.01,220.782
	c29.224,47.134,47.31,101.85,50.5,160.486H615.905c-1.101-44.664-6.156-87.072-14.487-126.181
	C638.301,246.052,671.334,234.387,699.01,220.782z M427.633,59.39c5.65,0.307,11.265,0.742,16.839,1.322
	c46.608,21.267,86.706,83.098,110.64,165.68c-39.905,7.302-83.317,11.412-127.479,12.315V59.39z M563.515,540.766
	c-42.764-7.93-88.945-12.521-135.882-13.494v-108.54h150.784C577.235,461.747,571.986,502.931,563.515,540.766z M427.633,381.268
	V276.458c47.516-0.974,93.974-5.62,136.686-13.654c8.005,36.848,12.953,76.804,14.098,118.464H427.633z M524.828,79.165
	c60.649,21.984,113.286,60.738,152.425,110.583c-24.153,11.322-52.815,21.139-84.783,28.964
	C576.532,162.119,553.268,114.234,524.828,79.165z M697.208,582.026c-27.547-13.361-60.218-24.795-96.519-33.62
	c8.781-40.064,14.082-83.685,15.215-129.674H749.51C746.256,478.545,727.474,534.261,697.208,582.026z M510.356,636.657
	c-78.466-63.061-100.408-32.061-136.01,3.534c-24.855,24.865-87.755-27.057-142.066-81.372
	c-54.314-54.321-106.227-117.211-81.374-142.07c35.605-35.599,66.595-57.553,3.517-135.996
	c-63.057-78.474-105.091-18.227-139.58,16.263c-39.816,39.802-2.098,188.13,144.498,334.749
	c146.616,146.599,294.943,184.292,334.736,144.505C528.559,741.778,588.823,699.747,510.356,636.657z"/>
</svg>
