<?xml version="1.0" encoding="iso-8859-1"?>
<!-- Generator: Adobe Illustrator 17.1.0, SVG Export Plug-In . SVG Version: 6.00 Build 0)  -->
<!DOCTYPE svg PUBLIC "-//W3C//DTD SVG 1.1//EN" "http://www.w3.org/Graphics/SVG/1.1/DTD/svg11.dtd">
<svg version="1.1" id="Layer_1" xmlns="http://www.w3.org/2000/svg" xmlns:xlink="http://www.w3.org/1999/xlink" x="0px" y="0px"
	 viewBox="0 0 800 800" style="enable-background:new 0 0 800 800;" xml:space="preserve">
<path d="M652.301,457.629c-35.704-14.85-82.468-26.225-135.551-32.861c3.055-29.596,4.529-60.35,4.529-90.999
	c0-30.649-1.475-61.403-4.529-91.104c53.083-6.635,99.741-18.01,135.446-32.966c18.432,37.39,28.858,79.519,28.858,124.07
	C681.055,378.216,670.733,420.24,652.301,457.629z M389.941,52.872c3.37-0.105,6.741-0.211,10.111-0.211s6.74,0.105,10.111,0.211
	c20.012,13.587,46.026,65.09,59.719,152.192c-46.869,3.476-95.213,3.16-139.659-0.632C344.021,117.646,369.93,66.354,389.941,52.872
	z M320.85,333.769c0-31.807,1.475-60.982,4.108-87.523c25.488,2.317,52.03,3.37,79.203,3.37c23.698,0,47.501-0.948,70.883-2.738
	c2.633,26.436,4.108,55.4,4.108,86.892c0,31.492-1.475,60.456-4.108,86.787c-22.75-1.896-46.553-2.738-70.883-2.738
	c-27.173,0-53.82,1.053-79.203,3.37C322.324,394.646,320.85,365.471,320.85,333.769z M630.5,173.151
	c-31.387,12.323-72.252,21.907-118.91,27.7c-8.426-55.189-22.328-104.375-41.392-139.342
	C536.025,78.466,592.583,118.805,630.5,173.151z M329.907,61.509c-19.063,34.757-32.861,83.521-41.392,138.289
	c-46.026-6.319-86.786-16.536-117.119-29.28C209.312,117.541,265.028,78.256,329.907,61.509z M612.269,588.902
	c74.464-61.298,121.447-151.389,121.447-255.133C733.716,149.664,584.052,0,400.053,0C236.065,0,99.46,118.699,71.55,274.788
	c-3.476,19.169-5.266,38.864-5.266,58.981c0,184.109,97.919,328.49,286.705,382.908V800l278.287-160.704L352.989,478.624v78.924
	c-152.3,0-233.506-123.492-233.506-240.697c0.845-14.348,2.722-28.428,5.676-42.062c5.161-23.909,13.271-46.658,24.224-67.828
	c34.757,15.483,80.994,27.489,133.971,34.651c-3.16,30.017-4.634,61.088-4.634,92.158c0,30.965,1.475,62.035,4.634,92.053
	c-32.229,4.318-61.93,10.532-88.155,18.221c1.579,1.896,2.949,3.791,4.423,5.687c4.634,5.898,8.953,11.586,13.482,15.904
	l1.053,0.948l0.948,1.158c3.37,3.791,7.478,7.478,12.006,11.27c18.853-4.529,39.496-8.426,61.404-11.375
	c2.949,18.748,6.425,36.758,10.532,53.715h0.105c6.846,2.107,12.744,3.898,16.957,4.108h1.264c0,0,3.055,0.316,4.002,0.422v-62.035
	v-39.918l62.878,36.231c6.635-0.105,13.271-0.21,19.906-0.21c22.539,0,44.658,0.842,65.722,2.422
	c-2.423,15.272-5.161,29.49-8.216,42.55l37.916,21.907c4.74-18.853,8.847-39.18,12.007-60.245
	c46.763,5.793,87.629,15.377,119.015,27.7c-18.642,26.646-41.708,49.923-68.249,68.776L612.269,588.902z"/>
</svg>
