<?xml version="1.0" encoding="iso-8859-1"?>
<!-- Generator: Adobe Illustrator 17.1.0, SVG Export Plug-In . SVG Version: 6.00 Build 0)  -->
<!DOCTYPE svg PUBLIC "-//W3C//DTD SVG 1.1//EN" "http://www.w3.org/Graphics/SVG/1.1/DTD/svg11.dtd">
<svg version="1.1" id="Layer_1" xmlns="http://www.w3.org/2000/svg" xmlns:xlink="http://www.w3.org/1999/xlink" x="0px" y="0px"
	 viewBox="0 0 800 800" style="enable-background:new 0 0 800 800;" xml:space="preserve">
<path d="M485.906,442.588l58.256-129.79l-129.789,58.255c-26.843-4.453-55.374,3.574-76.04,24.239
	c-20.665,20.665-28.692,49.196-24.239,76.039l-58.255,129.79l129.79-58.256c26.843,4.452,55.373-3.575,76.039-24.24
	S490.359,469.431,485.906,442.588z M420.713,477.672c-11.421,11.421-30.005,11.421-41.425,0s-11.421-30.005,0-41.425
	s30.005-11.421,41.425,0S432.133,466.252,420.713,477.672z M400,623.982l20.273,45.137h-40.547L400,623.982z M400,289.701
	l-20.273-45.137h40.547L400,289.701z M567.141,456.842l45.137-20.273v40.547L567.141,456.842z M232.86,456.842l-45.137,20.273
	v-40.547L232.86,456.842z M480.69,123.595c4.782-10.852,7.484-22.818,7.484-35.417C488.174,39.559,448.619,0,400,0
	s-88.174,39.559-88.174,88.178c0,12.6,2.702,24.565,7.484,35.417C168.976,159.99,56.96,295.602,56.96,456.96
	C56.96,646.111,210.846,800,400,800s343.04-153.889,343.04-343.04C743.04,295.602,631.024,159.99,480.69,123.595z M365.724,88.178
	c0-18.903,15.377-34.28,34.276-34.28s34.277,15.377,34.277,34.28c0,10.724-5.05,20.193-12.783,26.484
	c-7.116-0.442-14.269-0.742-21.494-0.742c-7.225,0-14.378,0.3-21.493,0.742C370.773,108.371,365.724,98.902,365.724,88.178z
	 M400,706.364c-137.522,0-249.405-111.886-249.405-249.405S262.478,207.555,400,207.555S649.405,319.441,649.405,456.96
	S537.522,706.364,400,706.364z"/>
</svg>
