<?xml version="1.0" encoding="iso-8859-1"?>
<!-- Generator: Adobe Illustrator 17.1.0, SVG Export Plug-In . SVG Version: 6.00 Build 0)  -->
<!DOCTYPE svg PUBLIC "-//W3C//DTD SVG 1.1//EN" "http://www.w3.org/Graphics/SVG/1.1/DTD/svg11.dtd">
<svg version="1.1" id="Layer_1" xmlns="http://www.w3.org/2000/svg" xmlns:xlink="http://www.w3.org/1999/xlink" x="0px" y="0px"
	 viewBox="0 0 800 800" style="enable-background:new 0 0 800 800;" xml:space="preserve">
<path d="M782.42,176.642L689.87,60.528c-8.743-10.969-22.006-17.358-36.032-17.358H210.042c-14.026,0-27.289,6.389-36.031,17.357
	L81.46,176.642c-9.669,12.13-17.58,34.748-17.58,50.26v84.464c20.185-16.653,46.039-26.669,74.19-26.669h41.341
	c64.38,0,116.756,52.377,116.756,116.756v68.261c31.847,8.561,55.864,39.238,55.864,72.22v143.295h390.372
	c31.809,0,57.596-25.787,57.596-57.596L800,226.901C800,211.389,792.089,188.772,782.42,176.642z M111.705,175.659l30.649-38.453
	h209.117l20.635-33.929H169.398l22.628-28.389c4.396-5.516,10.962-8.679,18.016-8.679h443.796c7.053,0,13.62,3.163,18.016,8.679
	l22.628,28.389h-206.32l11.519,33.929h221.844l30.649,38.453H111.705z M284.877,502.541c-7.736-1.361-15.503-2.465-23.269-3.574
	v-97.514c0-45.329-36.873-82.202-82.202-82.202H138.07c-45.329,0-82.202,36.873-82.202,82.202v97.514
	c-7.767,1.109-15.535,2.213-23.271,3.575C14.531,505.911,0.003,524,0,541.93c0,54.832,0,109.663,0,164.494
	c0.002,17.932,14.532,36.029,32.596,39.389c83.45,14.688,168.831,14.688,252.281,0c18.066-3.368,32.591-21.459,32.596-39.389
	c0-54.831,0-109.662,0-164.494C317.472,524.002,302.938,505.903,284.877,502.541z M110.669,401.453
	c0-15.113,12.288-27.401,27.401-27.401h41.337c15.113,0,27.401,12.288,27.401,27.401v91.834c-32.017-2.12-64.122-2.121-96.138-0.001
	V401.453z M179.859,672.368h-42.244l11.359-46.008c-9.598-3.873-16.387-13.239-16.387-24.224c0-14.442,11.708-26.15,26.15-26.15
	c14.443,0,26.15,11.708,26.15,26.15c0,10.985-6.79,20.352-16.388,24.224L179.859,672.368z"/>
</svg>
