<?xml version="1.0" encoding="iso-8859-1"?>
<!-- Generator: Adobe Illustrator 17.1.0, SVG Export Plug-In . SVG Version: 6.00 Build 0)  -->
<!DOCTYPE svg PUBLIC "-//W3C//DTD SVG 1.1//EN" "http://www.w3.org/Graphics/SVG/1.1/DTD/svg11.dtd">
<svg version="1.1" id="Layer_1" xmlns="http://www.w3.org/2000/svg" xmlns:xlink="http://www.w3.org/1999/xlink" x="0px" y="0px"
	 viewBox="0 0 800 800" style="enable-background:new 0 0 800 800;" xml:space="preserve">
<path d="M280.594,72.86H140.541c-23.883,0-43.243,19.361-43.243,43.243V343.13H54.054C24.201,343.13,0,367.331,0,397.184v190.595
	c18.594-31.243,52.649-52.108,91.567-52.108c56.325,0,102.595,43.892,106.379,99.351h203.892
	c3.784-55.459,49.946-99.351,106.379-99.351c19.892,0,38.595,5.514,54.486,15.027L338.448,108.392
	C327.397,86.595,305.033,72.86,280.594,72.86z M420.324,430.049h-244.54c-6.054,0-10.811-4.865-10.811-10.811V150.481
	c0-5.946,4.757-10.811,10.811-10.811H282.27c4.108,0,7.784,2.271,9.622,5.838l138.054,268.757
	C433.621,421.508,428.432,430.049,420.324,430.049z M91.564,557.272c-46.907,0-84.934,38.026-84.934,84.934
	c0,46.908,38.027,84.934,84.934,84.934s84.934-38.026,84.934-84.934C176.498,595.298,138.472,557.272,91.564,557.272z
	 M91.564,684.674c-23.454,0-42.467-19.014-42.467-42.467c0-23.454,19.014-42.467,42.467-42.467s42.467,19.013,42.467,42.467
	C134.031,665.66,115.018,684.674,91.564,684.674z M800,591.779v43.243H614.379c-2.422-36.015-22.762-67.122-52.217-84.525V116.103
	h43.243v475.676H800z M508.185,557.272c-46.907,0-84.934,38.026-84.934,84.934c0,46.908,38.027,84.934,84.934,84.934
	s84.934-38.026,84.934-84.934C593.12,595.298,555.093,557.272,508.185,557.272z M508.185,684.674
	c-23.454,0-42.467-19.014-42.467-42.467c0-23.454,19.014-42.467,42.467-42.467s42.467,19.013,42.467,42.467
	C550.652,665.66,531.639,684.674,508.185,684.674z"/>
</svg>
