<?xml version="1.0" encoding="iso-8859-1"?>
<!-- Generator: Adobe Illustrator 17.1.0, SVG Export Plug-In . SVG Version: 6.00 Build 0)  -->
<!DOCTYPE svg PUBLIC "-//W3C//DTD SVG 1.1//EN" "http://www.w3.org/Graphics/SVG/1.1/DTD/svg11.dtd">
<svg version="1.1" id="Layer_1" xmlns="http://www.w3.org/2000/svg" xmlns:xlink="http://www.w3.org/1999/xlink" x="0px" y="0px"
	 viewBox="0 0 800 800" style="enable-background:new 0 0 800 800;" xml:space="preserve">
<path d="M16.432,503.377h414.181c6.19,0,11.255-5.065,11.255-11.255V156.612c0-18.648-15.117-33.765-33.765-33.765H38.942
	c-18.648,0-33.765,15.117-33.765,33.765v335.509C5.177,498.312,10.242,503.377,16.432,503.377z M99.891,277.291
	c0-7.715,6.254-13.97,13.969-13.97h110.495v-39.37c0-12.447,15.05-18.679,23.849-9.875l95.213,95.259
	c5.452,5.455,5.452,14.297-0.001,19.752l-95.213,95.243c-8.8,8.803-23.849,2.571-23.849-9.876v-39.378H113.86
	c-7.715,0-13.969-6.255-13.969-13.97V277.291z M148.34,593.753H11.255C5.064,593.753,0,588.689,0,582.498v-34.215
	c0-6.19,5.064-11.255,11.255-11.255h168.149C162.971,551.323,151.604,571.243,148.34,593.753z M788.745,537.029h-27.349V384.074
	c0-17.895-5.402-35.453-15.419-50.309l-68.542-101.52c-16.77-24.761-44.682-39.617-74.62-39.617H496.568
	c-12.493,0-22.51,10.129-22.51,22.51v321.891H300.056c16.545,14.294,27.912,34.215,31.176,56.725h183.455
	c6.528-44.682,45.02-79.234,91.503-79.234s84.862,34.553,91.39,79.234h91.165c6.191,0,11.255-5.064,11.255-11.255v-34.215
	C800,542.094,794.936,537.029,788.745,537.029z M676.646,354.023H536.41c-6.19,0-11.255-4.952-11.255-11.255v-77.771
	c0-6.19,5.065-11.255,11.255-11.255h85.425c3.714,0,7.091,1.8,9.229,4.727l54.811,77.884
	C691.052,343.782,685.763,354.023,676.646,354.023z M239.73,537.029c-38.604,0-70.006,31.401-70.006,70.118
	c0,38.604,31.402,70.006,70.006,70.006c38.717,0,70.005-31.402,70.005-70.006C309.735,568.43,278.447,537.029,239.73,537.029z
	 M239.73,642.15c-19.359,0-35.003-15.757-35.003-35.003c0-19.358,15.644-35.003,35.003-35.003c19.358,0,35.003,15.645,35.003,35.003
	C274.733,626.393,259.088,642.15,239.73,642.15z M606.19,537.029c-38.717,0-70.006,31.401-70.006,70.118
	c0,38.604,31.289,70.006,70.006,70.006c38.604,0,70.005-31.402,70.005-70.006C676.196,568.43,644.795,537.029,606.19,537.029z
	 M606.19,642.15c-19.359,0-35.003-15.757-35.003-35.003c0-19.358,15.644-35.003,35.003-35.003c19.358,0,35.003,15.645,35.003,35.003
	C641.193,626.393,625.549,642.15,606.19,642.15z"/>
</svg>
