<?xml version="1.0" encoding="iso-8859-1"?>
<!-- Generator: Adobe Illustrator 17.1.0, SVG Export Plug-In . SVG Version: 6.00 Build 0)  -->
<!DOCTYPE svg PUBLIC "-//W3C//DTD SVG 1.1//EN" "http://www.w3.org/Graphics/SVG/1.1/DTD/svg11.dtd">
<svg version="1.1" id="Layer_1" xmlns="http://www.w3.org/2000/svg" xmlns:xlink="http://www.w3.org/1999/xlink" x="0px" y="0px"
	 viewBox="0 0 800 800" style="enable-background:new 0 0 800 800;" xml:space="preserve">
<path d="M512.284,339.693c-0.964-7.993-4-15.284-8.67-21.371l32.058-198.952c1.193-7.402-3.555-14.461-10.86-16.148l-0.358-0.082
	c-7.305-1.687-14.666,2.577-16.839,9.752l-58.4,192.867c-14.392,7.236-24.384,21.988-24.384,39.169
	c0,24.259,19.727,43.997,43.986,43.997c4.519,0,8.794-0.882,12.9-2.153l122.005,63.403c6.712,3.488,14.976,1.309,19.095-5.035
	l0.184-0.283c4.12-6.344,2.749-14.779-3.168-19.492L512.284,339.693z M447.089,344.928c0-11.977,9.749-21.727,21.727-21.727
	c11.988,0,21.738,9.749,21.738,21.727c0,11.988-9.749,21.738-21.738,21.738C456.839,366.666,447.089,356.917,447.089,344.928z
	 M800,344.928c0,147.266-96.64,272.331-229.815,315.255l-0.006-47.159c108.177-41.04,185.302-145.708,185.302-268.096
	c0-158.065-128.6-286.665-286.665-286.665s-286.665,128.6-286.665,286.665c0,15.857,1.352,31.398,3.84,46.562H140.97
	c-2.152-15.224-3.338-30.754-3.338-46.562c0-182.618,148.566-331.184,331.184-331.184S800,162.311,800,344.928z M526.548,580.913
	L424.601,480.078c-6.455-6.455-15.248-10.017-24.263-10.017h-51.419v-19.254c0-14.358-11.686-25.932-26.044-25.932H25.936
	c-14.357,0-25.932,11.575-25.932,25.932V624.43h536.785v-18.921C536.788,596.272,533.115,587.367,526.548,580.913z M482.141,584.252
	h-98.72c-2.226,0-4.007-1.78-4.007-4.007v-76.239c0-2.225,1.78-4.007,4.007-4.007h18.809c1.002,0,2.115,0.445,2.894,1.113
	l79.8,76.239C487.594,579.799,485.814,584.252,482.141,584.252z M536.801,638.772v57.439c0,14.329-11.616,25.945-25.945,25.945
	h-27.761c-5.016-34.42-34.68-60.884-70.483-60.884c-35.718,0-65.381,26.464-70.397,60.884H201.505
	c-5.016-34.42-34.68-60.884-70.397-60.884c-35.717,0-65.381,26.464-70.397,60.884H25.945C11.616,722.155,0,710.54,0,696.211v-57.439
	H536.801z M412.692,678.631c-29.716,0-53.867,24.041-53.867,53.757c0,29.716,24.151,53.868,53.867,53.868
	c29.716,0,53.757-24.152,53.757-53.868C466.448,702.672,442.408,678.631,412.692,678.631z M412.692,759.321
	c-14.913,0-26.934-12.02-26.934-26.934c0-14.803,12.02-26.934,26.934-26.934c14.803,0,26.823,12.131,26.823,26.934
	C439.515,747.302,427.495,759.321,412.692,759.321z M131.111,678.631c-29.716,0-53.868,24.041-53.868,53.757
	c0,29.716,24.152,53.868,53.868,53.868s53.757-24.152,53.757-53.868C184.868,702.672,160.827,678.631,131.111,678.631z
	 M131.111,759.321c-14.914,0-26.934-12.02-26.934-26.934c0-14.803,12.02-26.934,26.934-26.934c14.803,0,26.934,12.131,26.934,26.934
	C158.045,747.302,145.914,759.321,131.111,759.321z"/>
</svg>
