<?xml version="1.0" encoding="iso-8859-1"?>
<!-- Generator: Adobe Illustrator 17.1.0, SVG Export Plug-In . SVG Version: 6.00 Build 0)  -->
<!DOCTYPE svg PUBLIC "-//W3C//DTD SVG 1.1//EN" "http://www.w3.org/Graphics/SVG/1.1/DTD/svg11.dtd">
<svg version="1.1" id="Layer_1" xmlns="http://www.w3.org/2000/svg" xmlns:xlink="http://www.w3.org/1999/xlink" x="0px" y="0px"
	 viewBox="0 0 800 800" style="enable-background:new 0 0 800 800;" xml:space="preserve">
<path d="M424.623,39.433H91.142c-49.031,0-88.778,39.747-88.778,88.777v296.034c0,49.031,39.748,88.778,88.778,88.778h333.481
	c49.031,0,88.778-39.748,88.778-88.778V128.211C513.401,79.18,473.654,39.433,424.623,39.433z M177.492,142.944l62.572,74.589
	c0,0-20.649,0-45.169,0v96.968h-34.808v-96.968c-23.727,0-43.848,0-45.168,0L177.492,142.944z M382.614,405.666H133.152v-31.493
	h249.462V405.666z M355.678,217.533v96.968H320.87v-96.968c-23.726,0-43.849,0-45.169,0l62.572-74.589l62.572,74.589
	C400.846,217.533,380.198,217.533,355.678,217.533z M697.027,543.843c-1.861-0.309-695.166-0.309-697.027,0v216.491
	c1.861,0.31,695.166,0.31,697.027,0C754.406,757.543,800,710.088,800,652.089C800,594.089,754.406,546.635,697.027,543.843z
	 M101.955,697.622c-25.147,0-45.533-20.386-45.533-45.532c0-25.148,20.386-45.533,45.533-45.533s45.533,20.386,45.533,45.533
	C147.488,677.236,127.102,697.622,101.955,697.622z M307.882,697.622c-25.147,0-45.533-20.386-45.533-45.532
	c0-25.148,20.386-45.533,45.533-45.533c25.148,0,45.532,20.386,45.532,45.533C353.414,677.236,333.029,697.622,307.882,697.622z
	 M500.77,697.622c-25.147,0-45.533-20.386-45.533-45.532c0-25.148,20.386-45.533,45.533-45.533
	c25.147,0,45.533,20.386,45.533,45.533C546.303,677.236,525.917,697.622,500.77,697.622z M693.659,697.622
	c-25.148,0-45.533-20.386-45.533-45.532c0-25.148,20.386-45.533,45.533-45.533s45.533,20.386,45.533,45.533
	C739.192,677.236,718.806,697.622,693.659,697.622z M778.779,293.641l-88.866,88.895c-8.213,8.216-22.259,2.399-22.259-9.218
	v-36.754H564.525c-7.201,0-13.038-5.837-13.038-13.038v-78.229c0-7.201,5.837-13.038,13.038-13.038h103.129v-36.746
	c0-11.617,14.047-17.434,22.26-9.217l88.866,88.909C783.869,280.297,783.869,288.55,778.779,293.641z"/>
</svg>
