<?xml version="1.0" encoding="iso-8859-1"?>
<!-- Generator: Adobe Illustrator 17.1.0, SVG Export Plug-In . SVG Version: 6.00 Build 0)  -->
<!DOCTYPE svg PUBLIC "-//W3C//DTD SVG 1.1//EN" "http://www.w3.org/Graphics/SVG/1.1/DTD/svg11.dtd">
<svg version="1.1" id="Layer_1" xmlns="http://www.w3.org/2000/svg" xmlns:xlink="http://www.w3.org/1999/xlink" x="0px" y="0px"
	 viewBox="0 0 800 800" style="enable-background:new 0 0 800 800;" xml:space="preserve">
<path d="M135.703,86.246C135.703,38.613,174.316,0,221.949,0c47.632,0,86.245,38.613,86.245,86.246
	c0,47.632-38.613,86.245-86.245,86.245C174.316,172.491,135.703,133.877,135.703,86.246z M548.642,203.267H285.603l-36.644,47.994
	l-12.897-25.232c4.05-2.119,7.61-4.716,9.867-6.973c4.023-4.023,9.451-18.09-3.543-26.835c-4.873-3.28-13.98-4.143-20.437-3.888
	c-6.458-0.255-15.564,0.608-20.437,3.888c-12.994,8.744-7.567,22.811-3.543,26.835c2.257,2.257,5.818,4.854,9.867,6.973
	l-13.356,26.13l-38.955-48.893h-48.395c-23.57,0-42.676,19.107-42.676,42.676v223.904c0,22.993,17.259,43.431,40.216,44.726
	c13.153,0.741,25.069-4.507,33.365-13.233v251.133c0,26.248,21.279,47.527,47.527,47.527h104.204
	c26.248,0,47.527-21.279,47.527-47.527V300.501c0-6.562,5.319-11.882,11.882-11.882h198.35c20.366,0,38.863-13.813,42.896-33.776
	C595.965,227.382,575.117,203.267,548.642,203.267z M735.547,544.504v196.552c0,32.554-26.391,58.944-58.945,58.944H455.188
	c-32.554,0-58.945-26.39-58.945-58.944V544.504c0-32.554,26.391-58.945,58.945-58.945h90.072v44.367h41.821V485.56h89.523
	C709.157,485.56,735.547,511.95,735.547,544.504z M621.756,656.735l-63.145-75.273l-63.375,74.998c1.331,0,1.323,0,36.987,0v86.617
	h52.319v-86.617C621.395,656.461,621.756,656.735,621.756,656.735z"/>
</svg>
