<?xml version="1.0" encoding="iso-8859-1"?>
<!-- Generator: Adobe Illustrator 17.1.0, SVG Export Plug-In . SVG Version: 6.00 Build 0)  -->
<!DOCTYPE svg PUBLIC "-//W3C//DTD SVG 1.1//EN" "http://www.w3.org/Graphics/SVG/1.1/DTD/svg11.dtd">
<svg version="1.1" id="Layer_1" xmlns="http://www.w3.org/2000/svg" xmlns:xlink="http://www.w3.org/1999/xlink" x="0px" y="0px"
	 viewBox="0 0 800 800" style="enable-background:new 0 0 800 800;" xml:space="preserve">
<path d="M264.447,461.632c-60.579,30.214-118.354,58.934-191.534,80.23V399.984c0-11.042,5.466-21.367,14.596-27.576l54.649-37.161
	c4.668-3.174,13.106-5.771,18.751-5.771h87.737v-51.678h98.723v51.678h75.648c12.278,0,22.231,9.953,22.231,22.231v30.72
	C375.703,406.173,319.651,434.106,264.447,461.632z M248.647,226.766v26.816h98.723v-26.816c0-13.738-11.137-24.874-24.874-24.874
	H273.52C259.783,201.892,248.647,213.028,248.647,226.766z M191.31,148.582c7.103,0,13.862-1.461,20.009-4.081
	c6.976,9.661,18.261,16.011,31.088,16.011c4.186,0,8.141-0.837,11.913-2.075c-0.061,0.695-0.209,1.364-0.209,2.075
	c0,13.151,10.66,23.811,23.811,23.811c13.151,0,23.811-10.66,23.811-23.811c0-13.15-10.66-23.811-23.811-23.811
	c-0.005,0-0.01,0.001-0.016,0.001c1.855-4.506,2.91-9.426,2.91-14.6c0-21.213-17.196-38.41-38.409-38.41
	c-0.706,0-1.363,0.17-2.059,0.208c-5.98-21.579-25.554-37.51-49.037-37.51c-28.22,0-51.096,22.876-51.096,51.096
	C140.214,125.705,163.09,148.582,191.31,148.582z M691.443,648.712c-4.939,7.521-5.073,17.196-0.079,24.681l29.445,44.131
	c10.761,16.091-1.765,37.504-21.064,36.012L44.992,702.1c-17.812-1.399-32.701-13.924-37.24-31.205
	C3.781,655.776,0,637.017,0,620.398c0-34.181,13.74-40.558,41.844-47.264c251.324-59.971,320.451-204.526,739.802-228.191
	c10.892-0.615,19.654,8.901,18.195,19.713C787.415,456.712,743.522,569.413,691.443,648.712z M659.443,540.672
	c0-6.144-4.972-11.116-11.116-11.116c-6.144,0-11.116,4.972-11.116,11.116c0,17.167-11.458,31.55-27.073,36.344v-76.631
	c8.357-4.143,14.154-12.674,14.154-22.633c0-13.996-11.346-25.342-25.342-25.342c-13.996,0-25.342,11.346-25.342,25.342
	c0,10.017,5.862,18.596,14.298,22.71v76.554c-15.615-4.794-27.073-19.177-27.073-36.344c0-6.144-4.972-11.116-11.116-11.116
	s-11.116,4.972-11.116,11.116c0,33.314,27.105,60.419,60.419,60.419C632.338,601.091,659.443,573.986,659.443,540.672z"/>
</svg>
