<?xml version="1.0" encoding="iso-8859-1"?>
<!-- Generator: Adobe Illustrator 17.1.0, SVG Export Plug-In . SVG Version: 6.00 Build 0)  -->
<!DOCTYPE svg PUBLIC "-//W3C//DTD SVG 1.1//EN" "http://www.w3.org/Graphics/SVG/1.1/DTD/svg11.dtd">
<svg version="1.1" id="Layer_1" xmlns="http://www.w3.org/2000/svg" xmlns:xlink="http://www.w3.org/1999/xlink" x="0px" y="0px"
	 viewBox="0 0 800 800" style="enable-background:new 0 0 800 800;" xml:space="preserve">
<path d="M617.964,222.979h-85.243v42.246h-39.822v-42.246h-85.767c-30.998,0-56.128,25.129-56.128,56.127v187.158
	c0,30.998,25.129,56.127,56.128,56.127h210.832c30.998,0,56.128-25.129,56.128-56.127V279.106
	C674.092,248.109,648.962,222.979,617.964,222.979z M530.304,385.712v82.478h-49.819v-82.478c-33.959,0-33.951,0-35.219,0
	l60.346-71.414l60.127,71.676C565.739,385.974,565.395,385.712,530.304,385.712z M172.361,605.572
	c-27.869,0-50.462,22.593-50.462,50.462s22.593,50.462,50.462,50.462s50.462-22.593,50.462-50.462S200.23,605.572,172.361,605.572z
	 M172.361,681.266c-13.935,0-25.231-11.297-25.231-25.231s11.297-25.231,25.231-25.231s25.231,11.296,25.231,25.231
	S186.296,681.266,172.361,681.266z M800,585.47c0,14.431-11.7,26.131-26.131,26.131h-32.493
	c-13.907-19.435-36.607-32.166-62.27-32.166s-48.363,12.731-62.27,32.166h-382.2c-13.907-19.435-36.607-32.166-62.27-32.166
	s-48.363,12.731-62.27,32.166H68.802V195.054c0-3.904-1.722-7.566-4.708-10.041L9.459,139.756
	c-11.113-9.212-12.657-25.684-3.445-36.797c9.199-11.088,25.646-12.67,36.797-3.445l54.609,45.244
	c15.017,12.427,23.643,30.762,23.643,50.296v78.465h54.378l130.653,133.409v152.411h467.775C788.3,559.339,800,571.04,800,585.47z
	 M679.101,605.572c-27.869,0-50.462,22.593-50.462,50.462s22.593,50.462,50.462,50.462c27.869,0,50.463-22.593,50.463-50.462
	S706.97,605.572,679.101,605.572z M679.101,681.266c-13.935,0-25.231-11.297-25.231-25.231s11.297-25.231,25.231-25.231
	c13.935,0,25.231,11.296,25.231,25.231S693.035,681.266,679.101,681.266z"/>
</svg>
