<?xml version="1.0" encoding="iso-8859-1"?>
<!-- Generator: Adobe Illustrator 17.1.0, SVG Export Plug-In . SVG Version: 6.00 Build 0)  -->
<!DOCTYPE svg PUBLIC "-//W3C//DTD SVG 1.1//EN" "http://www.w3.org/Graphics/SVG/1.1/DTD/svg11.dtd">
<svg version="1.1" id="Layer_1" xmlns="http://www.w3.org/2000/svg" xmlns:xlink="http://www.w3.org/1999/xlink" x="0px" y="0px"
	 viewBox="0 0 800 800" style="enable-background:new 0 0 800 800;" xml:space="preserve">
<path d="M2.169,633.643l-0.86-363.584c-0.042-17.89,18.235-29.985,34.685-22.953l330.988,141.491
	c9.146,3.91,15.088,12.888,15.111,22.835l0.86,363.584c0.042,17.89-18.235,29.985-34.685,22.953L17.28,656.478
	C8.134,652.568,2.192,643.59,2.169,633.643z M760.529,287.172L455.087,419.455l0.796,336.479l305.442-132.283L760.529,287.172
	 M772.888,243.308c13.129-0.032,24.91,10.528,24.943,24.866l0.86,363.584c0.024,9.947-5.875,18.954-15.003,22.907L453.374,797.721
	c-3.259,1.411-6.597,2.07-9.849,2.078c-13.129,0.031-24.911-10.528-24.945-24.866l-0.86-363.584
	c-0.024-9.947,5.876-18.954,15.004-22.907l330.315-143.055C766.298,243.974,769.635,243.316,772.888,243.308L772.888,243.308z
	 M397.585,38.518L80.741,179.988L398.25,319.956l316.844-141.469L397.585,38.518 M397.494,0c3.441-0.008,6.883,0.697,10.102,2.115
	l348.239,153.516c19.755,8.709,19.821,36.716,0.108,45.518L408.433,356.31c-3.211,1.434-6.651,2.155-10.092,2.163
	c-3.441,0.008-6.884-0.697-10.102-2.115L40,202.843c-19.755-8.709-19.821-36.716-0.108-45.518L387.401,2.163
	C390.613,0.729,394.052,0.008,397.494,0L397.494,0z"/>
</svg>
