<?xml version="1.0" encoding="iso-8859-1"?>
<!-- Generator: Adobe Illustrator 17.1.0, SVG Export Plug-In . SVG Version: 6.00 Build 0)  -->
<!DOCTYPE svg PUBLIC "-//W3C//DTD SVG 1.1//EN" "http://www.w3.org/Graphics/SVG/1.1/DTD/svg11.dtd">
<svg version="1.1" id="Layer_1" xmlns="http://www.w3.org/2000/svg" xmlns:xlink="http://www.w3.org/1999/xlink" x="0px" y="0px"
	 viewBox="0 0 800 800" style="enable-background:new 0 0 800 800;" xml:space="preserve">
<path d="M80.06,537.511c-41.014,0-74.262,33.248-74.262,74.262c0,41.014,33.249,74.262,74.262,74.262
	c41.013,0,74.262-33.248,74.262-74.262C154.322,570.759,121.073,537.511,80.06,537.511z M80.06,648.905
	c-20.507,0-37.131-16.625-37.131-37.131s16.625-37.131,37.131-37.131s37.131,16.624,37.131,37.131S100.567,648.905,80.06,648.905z
	 M651.434,465.583L550.417,528.13c-1.867-4.328-2.922-9.087-2.922-14.099v-98.378c0-4.557,0.935-8.877,2.493-12.883L651.434,465.583
	z M562.896,386.351c5.757-3.988,12.722-6.354,20.255-6.354h181.195c6.419,0,12.358,1.831,17.561,4.801l-110.759,68.579
	L562.896,386.351z M690.86,465.583l105.512-65.33c2.255,4.679,3.628,9.859,3.628,15.401v98.378c0,5.992-1.618,11.553-4.23,16.509
	L690.86,465.583z M529.337,567.682h189.049v37.81H537.183c-2.117-31.49-19.901-58.688-45.656-73.905v-0.067
	c0.152,0.09,0.322,0.152,0.473,0.243l-0.473-0.933V151.774h37.81V567.682z M780.63,545.578c-4.902,2.538-10.384,4.108-16.285,4.108
	H583.15c-7.027,0-13.535-2.103-19.057-5.613l107.054-66.285L780.63,545.578z M651.434,275.625l-101.017,62.547
	c-1.867-4.328-2.922-9.087-2.922-14.099v-98.378c0-4.557,0.935-8.877,2.493-12.883L651.434,275.625z M562.896,196.394
	c5.757-3.988,12.722-6.354,20.255-6.354h181.195c6.419,0,12.358,1.831,17.561,4.801L671.147,263.42L562.896,196.394z
	 M690.86,275.625l105.512-65.33c2.255,4.679,3.628,9.859,3.628,15.401v98.378c0,5.992-1.618,11.553-4.23,16.509L690.86,275.625z
	 M780.63,355.62c-4.902,2.538-10.384,4.108-16.285,4.108H583.15c-7.027,0-13.535-2.103-19.057-5.613l107.054-66.285L780.63,355.62z
	 M295.922,145.032c-9.663-19.058-29.216-31.067-50.584-31.067H122.882c-20.882,0-37.81,16.928-37.81,37.81v198.502h-37.81
	C21.16,350.276,0,371.435,0,397.537v166.647c16.258-27.318,46.034-45.561,80.062-45.561c49.247,0,89.704,38.377,93.012,86.868
	h178.273c3.308-48.491,43.67-86.868,93.012-86.868c17.203,0,33.371,4.744,47.168,12.896v-0.69L295.922,145.032z M367.511,426.273
	H153.697c-5.294,0-9.452-4.254-9.452-9.452V181.833c0-5.199,4.159-9.452,9.452-9.452h93.106c3.592,0,6.806,1.985,8.413,5.104
	l120.708,234.988C379.137,418.805,374.6,426.273,367.511,426.273z M444.333,537.511c-41.014,0-74.262,33.248-74.262,74.262
	c0,41.014,33.249,74.262,74.262,74.262c41.013,0,74.262-33.248,74.262-74.262C518.595,570.759,485.346,537.511,444.333,537.511z
	 M444.333,648.905c-20.507,0-37.131-16.625-37.131-37.131s16.625-37.131,37.131-37.131s37.131,16.624,37.131,37.131
	S464.84,648.905,444.333,648.905z"/>
</svg>
