<?xml version="1.0" encoding="iso-8859-1"?>
<!-- Generator: Adobe Illustrator 17.1.0, SVG Export Plug-In . SVG Version: 6.00 Build 0)  -->
<!DOCTYPE svg PUBLIC "-//W3C//DTD SVG 1.1//EN" "http://www.w3.org/Graphics/SVG/1.1/DTD/svg11.dtd">
<svg version="1.1" id="Layer_1" xmlns="http://www.w3.org/2000/svg" xmlns:xlink="http://www.w3.org/1999/xlink" x="0px" y="0px"
	 viewBox="0 0 800 800" style="enable-background:new 0 0 800 800;" xml:space="preserve">
<path d="M370.224,94.818h-79.291v39.297h-37.041V94.818h-79.778c-28.833,0-52.207,23.375-52.207,52.208v174.088
	c0,28.833,23.374,52.207,52.207,52.207h196.11c28.833,0,52.207-23.374,52.207-52.207V147.026
	C422.431,118.192,399.057,94.818,370.224,94.818z M295.238,246.186v76.718h-46.34v-76.718c-31.587,0-31.58,0-32.759,0l56.132-66.426
	l55.928,66.67C328.199,246.43,327.879,246.186,295.238,246.186z M363.437,705.182H59.757c-11.778,0-22.685-3.524-31.939-9.406
	l179.42-111.092l183.493,113.614C382.514,702.551,373.327,705.182,363.437,705.182z M4.895,669.057
	C1.766,661.803,0,653.826,0,645.425V480.546c0-7.637,1.566-14.878,4.178-21.592l170.021,105.273L4.895,669.057z M207.238,543.77
	L25.81,431.437c9.648-6.684,21.321-10.649,33.946-10.649h303.68c10.759,0,20.712,3.07,29.432,8.047L207.238,543.77z
	 M240.277,564.227l176.837-109.493c3.78,7.841,6.081,16.524,6.081,25.812v164.879c0,10.043-2.712,19.363-7.089,27.67
	L240.277,564.227z M739.791,99.036h-91.443v87.415H605.63V99.036h-92.005c-33.253,0-60.21,26.957-60.21,60.21v484.909
	c0,33.253,26.957,60.21,60.21,60.21h226.166c33.253,0,60.209-26.957,60.209-60.21V159.246
	C800,125.993,773.043,99.036,739.791,99.036z M572.186,346.459l42.436,50.587c0,0-14.004,0-30.633,0v65.763h-23.607v-65.763
	c-16.091,0-29.739,0-30.633,0L572.186,346.459z M711.299,524.637H542.115v-21.359h169.185V524.637z M693.032,397.046v65.763h-23.607
	v-65.763c-16.091,0-29.738,0-30.633,0l42.437-50.587l42.436,50.587C723.665,397.046,709.662,397.046,693.032,397.046z"/>
</svg>
