<?xml version="1.0" encoding="iso-8859-1"?>
<!-- Generator: Adobe Illustrator 17.1.0, SVG Export Plug-In . SVG Version: 6.00 Build 0)  -->
<!DOCTYPE svg PUBLIC "-//W3C//DTD SVG 1.1//EN" "http://www.w3.org/Graphics/SVG/1.1/DTD/svg11.dtd">
<svg version="1.1" id="Layer_1" xmlns="http://www.w3.org/2000/svg" xmlns:xlink="http://www.w3.org/1999/xlink" x="0px" y="0px"
	 viewBox="0 0 800 800" style="enable-background:new 0 0 800 800;" xml:space="preserve">
<path d="M41.472,117.079C26.072,70.405,51.514,19.898,98.194,4.496s97.183,10.048,112.583,56.722l175.162,530.881
	c-16.324-4.31-33.684-5.099-51.014-1.93L165.345,76.208c-7.136-21.629-30.532-33.416-52.161-26.28s-33.416,30.532-26.28,52.161
	c4.139,12.545-2.676,26.072-15.221,30.211C59.138,136.439,45.611,129.624,41.472,117.079z M731.602,533.535l-286.99,94.691
	c10.185,11.563,18.259,25.309,23.384,40.842c0.183,0.554,0.284,1.114,0.458,1.669l278.137-91.77
	c12.545-4.139,19.36-17.666,15.221-30.211C757.674,536.211,744.147,529.396,731.602,533.535z M445.283,676.568
	c16.26,49.282-10.509,102.414-59.791,118.675s-102.414-10.509-118.675-59.791c-16.26-49.282,10.509-102.414,59.791-118.675
	S429.022,627.286,445.283,676.568z M400.666,691.289c-8.13-24.641-34.696-38.025-59.337-29.895s-38.026,34.696-29.896,59.337
	s34.697,38.026,59.338,29.896C395.412,742.497,408.796,715.93,400.666,691.289z M652.734,160.754l97.435,295.307
	c2.07,6.273-1.338,13.036-7.61,15.105L435.894,572.349c-6.273,2.07-13.036-1.338-15.105-7.61l-97.435-295.307
	c-2.07-6.273,1.338-13.036,7.61-15.105l306.665-101.183C643.902,151.074,650.665,154.481,652.734,160.754z M612.169,332.296
	l-104.42-57.452L458.039,383.15l32.911,15.147l21.494-46.854l38.811,117.629l37.143-12.255l-38.805-117.61l45.141,24.847
	L612.169,332.296z"/>
</svg>
