<?xml version="1.0" encoding="iso-8859-1"?>
<!-- Generator: Adobe Illustrator 17.1.0, SVG Export Plug-In . SVG Version: 6.00 Build 0)  -->
<!DOCTYPE svg PUBLIC "-//W3C//DTD SVG 1.1//EN" "http://www.w3.org/Graphics/SVG/1.1/DTD/svg11.dtd">
<svg version="1.1" id="Layer_1" xmlns="http://www.w3.org/2000/svg" xmlns:xlink="http://www.w3.org/1999/xlink" x="0px" y="0px"
	 viewBox="0 0 800 800" style="enable-background:new 0 0 800 800;" xml:space="preserve">
<path d="M540.804,71.052H236.566c-44.731,0-80.993,36.262-80.993,80.993v270.074c0,44.731,36.262,80.993,80.993,80.993h304.238
	c44.731,0,80.993-36.262,80.993-80.993V152.045C621.797,107.314,585.536,71.052,540.804,71.052z M315.344,165.485l57.085,68.049
	c0,0-18.838,0-41.208,0v88.465h-31.756v-88.465c-21.646,0-40.003,0-41.207,0L315.344,165.485z M502.478,405.169H274.892v-28.732
	h227.586V405.169z M477.905,233.534v88.465h-31.756v-88.465c-21.646,0-40.004,0-41.208,0l57.085-68.049l57.085,68.049
	C519.112,233.534,500.274,233.534,477.905,233.534z M706.057,531.229c-1.698-0.282-610.417-0.282-612.115,0
	C41.595,533.776,0,577.069,0,629.983c0,52.914,41.595,96.207,93.943,98.753c1.698,0.283,610.417,0.283,612.115,0
	C758.405,726.19,800,682.897,800,629.983C800,577.069,758.405,533.776,706.057,531.229z M94.247,671.523
	c-22.942,0-41.54-18.598-41.54-41.54c0-22.942,18.598-41.54,41.54-41.54c22.942,0,41.54,18.598,41.54,41.54
	C135.787,652.925,117.188,671.523,94.247,671.523z M246.431,671.523c-22.942,0-41.54-18.598-41.54-41.54
	c0-22.942,18.598-41.54,41.54-41.54s41.54,18.598,41.54,41.54C287.971,652.925,269.373,671.523,246.431,671.523z M398.615,671.523
	c-22.942,0-41.54-18.598-41.54-41.54c0-22.942,18.598-41.54,41.54-41.54c22.942,0,41.54,18.598,41.54,41.54
	C440.155,652.925,421.558,671.523,398.615,671.523z M550.799,671.523c-22.942,0-41.54-18.598-41.54-41.54
	c0-22.942,18.598-41.54,41.54-41.54c22.942,0,41.54,18.598,41.54,41.54C592.339,652.925,573.742,671.523,550.799,671.523z
	 M702.985,671.523c-22.942,0-41.541-18.598-41.541-41.54c0-22.942,18.598-41.54,41.541-41.54c22.942,0,41.54,18.598,41.54,41.54
	C744.525,652.925,725.926,671.523,702.985,671.523z"/>
</svg>
