<?xml version="1.0" encoding="iso-8859-1"?>
<!-- Generator: Adobe Illustrator 17.1.0, SVG Export Plug-In . SVG Version: 6.00 Build 0)  -->
<!DOCTYPE svg PUBLIC "-//W3C//DTD SVG 1.1//EN" "http://www.w3.org/Graphics/SVG/1.1/DTD/svg11.dtd">
<svg version="1.1" id="Layer_1" xmlns="http://www.w3.org/2000/svg" xmlns:xlink="http://www.w3.org/1999/xlink" x="0px" y="0px"
	 viewBox="0 0 800 800" style="enable-background:new 0 0 800 800;" xml:space="preserve">
<path d="M126.244,86.246C126.244,38.613,164.857,0,212.489,0c47.632,0,86.245,38.613,86.245,86.246
	c0,47.632-38.613,86.245-86.245,86.245C164.857,172.491,126.244,133.877,126.244,86.246z M745.006,517.26v207.824
	c0,34.421-27.904,62.324-62.325,62.324H448.568c-34.421,0-62.325-27.903-62.325-62.324V517.26c0-34.421,27.904-62.325,62.325-62.325
	h95.237v46.912h44.219v-46.912h94.657C717.102,454.935,745.006,482.839,745.006,517.26z M465.261,589.12c0.926,0,15.052,0,31.709,0
	v68.074h24.436V589.12c17.214,0,31.71,0,31.71,0l-43.927-52.364L465.261,589.12z M653.189,699.084H478.061v22.109h175.128V699.084z
	 M665.989,589.12l-43.927-52.364l-43.927,52.364c0.926,0,15.053,0,31.71,0v68.074h24.436V589.12
	C651.493,589.12,665.989,589.12,665.989,589.12z M539.183,203.267H276.144l-36.644,47.994l-12.897-25.232
	c4.049-2.119,7.61-4.716,9.867-6.973c4.023-4.023,9.451-18.09-3.543-26.835c-4.873-3.28-13.98-4.143-20.437-3.888
	c-6.458-0.255-15.564,0.608-20.437,3.888c-12.994,8.744-7.567,22.811-3.543,26.835c2.257,2.257,5.818,4.854,9.867,6.973
	l-13.356,26.13l-38.955-48.893H97.67c-23.57,0-42.676,19.107-42.676,42.676v223.904c0,22.993,17.259,43.431,40.216,44.726
	c13.153,0.741,25.069-4.507,33.365-13.233v251.133c0,26.248,21.279,47.527,47.527,47.527h104.204
	c26.248,0,47.527-21.279,47.527-47.527V300.501c0-6.562,5.319-11.882,11.882-11.882h198.35c20.367,0,38.863-13.813,42.896-33.776
	C586.506,227.382,565.658,203.267,539.183,203.267z"/>
</svg>
