<?xml version="1.0" encoding="iso-8859-1"?>
<!-- Generator: Adobe Illustrator 17.1.0, SVG Export Plug-In . SVG Version: 6.00 Build 0)  -->
<!DOCTYPE svg PUBLIC "-//W3C//DTD SVG 1.1//EN" "http://www.w3.org/Graphics/SVG/1.1/DTD/svg11.dtd">
<svg version="1.1" id="Layer_1" xmlns="http://www.w3.org/2000/svg" xmlns:xlink="http://www.w3.org/1999/xlink" x="0px" y="0px"
	 viewBox="0 0 800 800" style="enable-background:new 0 0 800 800;" xml:space="preserve">
<path d="M608.54,423.841c-3.937,14.655-17.279,24.279-31.715,24.279c-2.844,0-5.687-0.219-8.531-1.093l-106.522-28.654
	c-14.437-3.937-24.28-16.843-24.28-31.716V222.609c0-18.154,14.656-32.81,32.81-32.81c18.155,0,32.81,14.656,32.81,32.81v138.895
	l82.243,22.091C602.854,388.407,613.353,406.343,608.54,423.841z M479.27,61.105c-115.706,0-217.084,61.302-273.494,153.178
	l34.016,81.817c35.236-98.356,129.013-168.863,239.478-168.863c140.596,0,254.597,114.002,254.597,254.597
	c0,100.196-58.046,186.636-142.209,228.183l-0.795,72.563C712.969,637.247,800,519.709,800,381.834
	C800,204.711,656.392,61.105,479.27,61.105z M493.72,724.077c-39.765,39.758-187.985,2.092-334.494-144.401
	C12.735,433.163-24.956,284.942,14.831,245.168c34.464-34.465,76.468-94.668,139.48-16.251
	c63.032,78.386,32.065,100.324-3.514,135.898c-24.835,24.841,27.04,87.686,81.315,141.967
	c54.271,54.275,117.126,106.16,141.964,81.313c35.577-35.57,57.502-66.547,135.912-3.532
	C588.398,647.609,528.177,689.609,493.72,724.077z M99.577,270.708l-26.889-42.056c0,0-0.352,0.33-1.013,0.948
	c-0.746,0.666-1.433,1.424-3.108,2.827c-2.927,2.552-7.95,6.712-13.736,12.405c-2.9,3.019-5.977,6.262-8.958,10.228
	c-2.963,3.847-5.929,8.259-8.285,13.133c-2.578,4.769-4.262,10.129-5.843,15.416c-0.993,5.459-2.087,10.861-1.925,16.205
	c-0.376,5.354,0.557,10.438,1.122,15.367c0.801,4.876,2.248,9.427,3.316,13.814c2.999,8.503,6.151,16.061,9.529,22.204
	c2.932,6.318,6.272,10.762,8.239,14.219c2.074,3.356,3.26,5.274,3.26,5.274s-0.461-2.205-1.267-6.065
	c-0.658-3.848-2.326-9.399-2.859-15.969c-1.018-6.464-1.323-14.048-1.275-21.945c0.477-3.907,0.609-7.907,1.358-11.756
	c0.974-3.795,1.558-7.649,3.188-10.998c1.123-3.537,3.202-6.48,4.812-9.361c2.167-2.612,4.039-5.103,6.448-7.054
	c2.205-2.062,4.652-3.728,7.113-5.198c2.373-1.492,4.976-2.703,7.298-3.821c4.973-2.165,9.444-3.785,13.182-5.217
	c1.975-0.808,3.527-1.443,4.585-1.876C98.984,270.959,99.577,270.708,99.577,270.708z M505.396,666.059l-43.553-24.39
	c0,0-0.705,2.053-1.938,5.646c-1.133,3.412-2.636,7.774-4.733,12.713c-4.239,9.576-11.555,21.05-25,27.563l-5.093,2.379
	l-5.489,1.684c-3.654,1.38-7.592,1.596-11.388,2.355c-3.821,0.683-7.64,0.5-11.3,0.783c-3.709,0.344-7.056-0.225-10.32-0.292
	c-6.482-0.13-12.078-1.34-15.911-1.854c-3.857-0.592-6.061-0.931-6.061-0.931s1.954,1.078,5.374,2.962
	c3.483,1.831,8.101,4.788,14.549,7.348c3.183,1.26,6.624,3.151,10.461,4.186c3.837,1.102,7.844,2.744,12.263,3.564
	c4.43,0.738,9.03,2.053,13.968,2.116l7.506,0.404l7.738-0.553c5.201-0.423,10.499-1.677,15.602-3.231
	c5.158-1.611,10.04-3.775,14.63-6.298c4.453-2.581,8.824-5.33,12.42-8.335c3.839-2.9,6.923-5.972,9.914-8.807
	c5.61-5.758,9.749-10.838,12.386-14.122C503.95,667.836,505.396,666.059,505.396,666.059z"/>
</svg>
