<?xml version="1.0" encoding="iso-8859-1"?>
<!-- Generator: Adobe Illustrator 17.1.0, SVG Export Plug-In . SVG Version: 6.00 Build 0)  -->
<!DOCTYPE svg PUBLIC "-//W3C//DTD SVG 1.1//EN" "http://www.w3.org/Graphics/SVG/1.1/DTD/svg11.dtd">
<svg version="1.1" id="Layer_1" xmlns="http://www.w3.org/2000/svg" xmlns:xlink="http://www.w3.org/1999/xlink" x="0px" y="0px"
	 viewBox="0 0 800 800" style="enable-background:new 0 0 800 800;" xml:space="preserve">
<path d="M800,427.782c-19.44-13.971-48.949-22.89-82.005-22.89c-51.18,0-93.883,21.37-103.817,49.79h-4.263
	c-9.692-28.605-52.526-50.163-103.928-50.163c-33.109,0-62.602,8.975-82.034,22.985v240.568
	c0,59.872-48.707,108.579-108.579,108.579s-108.579-48.707-108.579-108.579c0-13.231,10.721-23.952,23.952-23.952
	s23.952,10.721,23.952,23.952c0,33.456,27.219,60.675,60.675,60.675s60.675-27.219,60.675-60.675V427.897
	c-19.437-14.021-48.945-23.005-82.07-23.005c-51.18,0-93.883,21.37-103.817,49.79h-4.263
	c-9.692-28.605-52.526-50.163-103.927-50.163c-33.034,0-62.528,8.907-81.969,22.862c15.622-170.571,176.118-306.155,376.048-316.252
	V93.224c0-13.231,10.721-23.952,23.952-23.952s23.952,10.721,23.952,23.952v17.907C624.023,121.25,784.593,257.033,800,427.782z
	 M57.865,69.272c0,0-34.72,68.538-34.72,87.713s15.545,34.72,34.72,34.72s34.72-15.545,34.72-34.72S57.865,69.272,57.865,69.272z
	 M156.162,23.349c0,0-26.046,51.416-26.046,65.801s11.661,26.046,26.046,26.046s26.046-11.661,26.046-26.046
	S156.162,23.349,156.162,23.349z"/>
</svg>
