<?xml version="1.0" encoding="iso-8859-1"?>
<!-- Generator: Adobe Illustrator 17.1.0, SVG Export Plug-In . SVG Version: 6.00 Build 0)  -->
<!DOCTYPE svg PUBLIC "-//W3C//DTD SVG 1.1//EN" "http://www.w3.org/Graphics/SVG/1.1/DTD/svg11.dtd">
<svg version="1.1" id="Layer_1" xmlns="http://www.w3.org/2000/svg" xmlns:xlink="http://www.w3.org/1999/xlink" x="0px" y="0px"
	 viewBox="0 0 800 800" style="enable-background:new 0 0 800 800;" xml:space="preserve">
<path d="M781.71,142.576L685.418,21.767c-9.096-11.411-22.895-18.059-37.489-18.059H222.149c-14.593,0-28.392,6.647-37.488,18.059
	L88.368,142.576c-10.06,12.621-18.29,36.152-18.29,52.291V394.35c37.021-61.722,104.396-103.252,181.457-103.252
	c116.724,0,211.679,94.955,211.679,211.667c0,69.051-33.381,130.294-84.69,168.956h361.55c33.096,0,59.925-26.829,59.925-59.925
	v-416.93C800,178.727,791.77,155.196,781.71,142.576z M119.837,141.552l31.888-40.007H309.37l21.47-35.301H179.862l23.543-29.537
	c4.574-5.739,11.406-9.03,18.744-9.03H647.93c7.338,0,14.171,3.291,18.745,9.03l23.543,29.537H535.482l11.985,35.301h170.888
	l31.888,40.007H119.837z M251.542,327.053c-97.046,0-175.717,78.671-175.717,175.717c0,41.512,14.478,79.595,38.548,109.664
	L11.138,725.179c-15.825,17.29-14.646,44.141,2.644,59.976c8.152,7.452,18.414,11.137,28.657,11.137
	c11.487,0,22.946-4.643,31.319-13.78l108.35-118.332c21.305,9.178,44.763,14.308,69.434,14.308
	c97.046,0,175.717-78.672,175.717-175.717S348.587,327.053,251.542,327.053z M251.542,618.481
	c-63.906,0-115.711-51.806-115.711-115.711c0-63.906,51.805-115.711,115.711-115.711s115.711,51.805,115.711,115.711
	C367.253,566.675,315.447,618.481,251.542,618.481z"/>
</svg>
