<?xml version="1.0" encoding="iso-8859-1"?>
<!-- Generator: Adobe Illustrator 17.1.0, SVG Export Plug-In . SVG Version: 6.00 Build 0)  -->
<!DOCTYPE svg PUBLIC "-//W3C//DTD SVG 1.1//EN" "http://www.w3.org/Graphics/SVG/1.1/DTD/svg11.dtd">
<svg version="1.1" id="Layer_1" xmlns="http://www.w3.org/2000/svg" xmlns:xlink="http://www.w3.org/1999/xlink" x="0px" y="0px"
	 viewBox="0 0 800 800" style="enable-background:new 0 0 800 800;" xml:space="preserve">
<path d="M512.793,99.779h-20.387l5.931-20.102c1.88-6.507,4.194-17.788,4.194-17.788h0.291c0,0,2.313,11.282,4.188,17.788
	L512.793,99.779z M412.336,72.452c0-7.806-2.894-12.433-15.618-12.433h-8.53v25.15h10.991
	C407.276,85.17,412.336,80.691,412.336,72.452z M290.671,120.302c15.475,0,27.908-13.299,27.908-30.939
	c0-16.911-12.433-29.64-27.908-29.64c-15.469,0-27.902,12.729-27.902,29.64C262.769,107.003,275.202,120.302,290.671,120.302z
	 M673.533,180.579v46.38h28.207c38.668,0,70.014,31.346,70.014,70.014V800H636.628V387.53H155.351V800H28.246V296.973
	c0-38.668,31.346-70.014,70.014-70.014h28.207v-46.38H63.253c-19.334,0-35.007-15.673-35.007-35.007V35.007
	C28.246,15.673,43.919,0,63.253,0h673.495c19.334,0,35.007,15.673,35.007,35.007v110.564c0,19.334-15.673,35.007-35.007,35.007
	H673.533z M674.621,141.703h66.795v-21.686h-41.497v-19.521h31.52V78.811h-31.52V60.02h39.474V38.322h-64.772V141.703z
	 M454.243,141.703h26.022l6.216-21.686h32.244l6.359,21.686h26.027l-35.132-103.38h-26.603L454.243,141.703z M362.885,141.703
	h25.304v-34.848h11.857l18.358,34.848h28.198l-20.096-36.147c-2.461-4.33-3.909-6.211-3.909-6.211v-0.296
	c10.267-5.208,15.475-17.207,15.475-28.193c0-15.031-7.379-25.594-19.088-30.073c-4.484-1.732-9.544-2.461-20.096-2.461h-36.004
	V141.703z M236.599,89.363c0,30.369,22.842,54.072,54.072,54.072s54.078-23.703,54.078-54.072c0-29.64-22.848-52.773-54.078-52.773
	S236.599,59.723,236.599,89.363z M134.871,111.345c0-32.682-46.556-30.369-46.556-43.383c0-5.778,5.783-8.091,10.991-8.091
	c12.433,0,22.842,9.105,22.842,9.105l10.7-20.671c0,0-10.991-11.715-33.258-11.715c-20.529,0-36.574,12.581-36.574,31.668
	c0,31.805,46.551,31.372,46.551,43.656c0,6.222-5.635,8.25-10.843,8.25c-13.014,0-24.723-10.7-24.723-10.7l-13.299,19.224
	c0,0,13.441,14.746,37.736,14.746C121.715,143.435,134.871,128.541,134.871,111.345z M199.621,60.02h31.372V38.322H142.94V60.02
	h31.378v81.683h25.304V60.02z M590.291,180.579H209.709v46.38h380.582V180.579z M653.374,83.289h-37.013v21.549h14.603v7.943
	c0,0-8.82,7.521-20.968,7.521c-16.045,0-29.64-11.703-29.64-31.372c0-15.327,8.82-29.207,30.506-29.207
	c14.603,0,25.161,9.549,25.161,9.549l12.142-18.939c0,0-13.299-13.743-39.759-13.743c-31.52,0-54.214,23.133-54.214,53.206
	c0,33.833,24.284,53.639,50.744,53.639c17.207,0,27.184-8.957,27.184-8.957h0.285c0,0-0.142,2.165-0.142,4.33v2.894h21.11V83.289z
	 M608.282,788.331v-21.15c0-6.445-5.224-11.669-11.669-11.669H203.387c-6.445,0-11.669,5.224-11.669,11.669v21.15
	c0,6.445,5.224,11.669,11.669,11.669h393.227C603.058,800,608.282,794.776,608.282,788.331z M608.282,467.433v-21.15
	c0-6.445-5.224-11.669-11.669-11.669H203.387c-6.445,0-11.669,5.224-11.669,11.669v21.15c0,6.445,5.224,11.669,11.669,11.669
	h393.227C603.058,479.102,608.282,473.877,608.282,467.433z M608.282,547.657v-21.15c0-6.445-5.224-11.669-11.669-11.669H203.387
	c-6.445,0-11.669,5.224-11.669,11.669v21.15c0,6.445,5.224,11.669,11.669,11.669h393.227
	C603.058,559.326,608.282,554.102,608.282,547.657z M608.282,627.882v-21.15c0-6.445-5.224-11.669-11.669-11.669H203.387
	c-6.445,0-11.669,5.224-11.669,11.669v21.15c0,6.445,5.224,11.669,11.669,11.669h393.227
	C603.058,639.551,608.282,634.326,608.282,627.882z M608.282,708.106v-21.15c0-6.445-5.224-11.669-11.669-11.669H203.387
	c-6.445,0-11.669,5.224-11.669,11.669v21.15c0,6.445,5.224,11.669,11.669,11.669h393.227
	C603.058,719.775,608.282,714.551,608.282,708.106z"/>
</svg>
