<?xml version="1.0" encoding="iso-8859-1"?>
<!-- Generator: Adobe Illustrator 17.1.0, SVG Export Plug-In . SVG Version: 6.00 Build 0)  -->
<!DOCTYPE svg PUBLIC "-//W3C//DTD SVG 1.1//EN" "http://www.w3.org/Graphics/SVG/1.1/DTD/svg11.dtd">
<svg version="1.1" id="Layer_1" xmlns="http://www.w3.org/2000/svg" xmlns:xlink="http://www.w3.org/1999/xlink" x="0px" y="0px"
	 viewBox="0 0 800 800" style="enable-background:new 0 0 800 800;" xml:space="preserve">
<path d="M768.724,260.537c-15.626-16.179-33.556-21.883-46.128-23.824c-10.792-81.516-20.836-123.958-360.768-123.958
	S0,164,0,252.938v15.17c0,24.067,19.51,43.577,43.577,43.577h109.055c24.067,0,43.577-19.51,43.577-43.577v-15.17
	c0-68.895,105.489-71.005,165.618-71.005c60.129,0,165.618,2.11,165.618,71.005v15.17c0,24.067,19.51,43.577,43.577,43.577h109.055
	c24.067,0,43.577-19.51,43.577-43.577v-5.836c8.035,1.974,18.18,6.267,27.159,15.562c21.892,22.676,29.157,66.485,21.004,126.701
	c-14.137,104.336-55.137,141.602-98.803,154.005v-18.151c0-18.427-4.607-36.667-13.945-52.604
	c-43.577-74.579-105.457-140.755-184.083-199.086v-44.075c0-3.424-2.801-6.225-6.225-6.225H404.08c-3.486,0-6.225,2.801-6.225,6.225
	v43.826h-73.832v-43.826c0-3.424-2.801-6.225-6.225-6.225h-64.744c-3.424,0-6.225,2.801-6.225,6.225v43.826
	c-78.75,58.456-140.692,124.631-184.332,199.335c-9.338,15.937-13.945,34.177-13.945,52.604v41.025
	c0,58.456,47.375,105.831,105.831,105.831h412.802c57.54,0,104.241-45.928,105.693-103.117
	c69.987-16.392,109.69-73.495,123.611-176.249C805.839,338.865,796.494,289.293,768.724,260.537z M468.924,541.478l-41.536-14.789
	c4.407-8.879,6.948-18.851,6.948-29.441c0-36.605-29.695-66.3-66.362-66.3c-36.605,0-66.362,29.695-66.362,66.3
	c0,36.667,29.757,66.362,66.362,66.362c13.557,0,26.148-4.079,36.65-11.049l22.782,37.449
	c-17.162,11.019-37.525,17.489-59.431,17.489c-60.884,0-110.188-49.367-110.188-110.25c0-60.822,49.305-110.188,110.188-110.188
	c60.884,0,110.251,49.367,110.251,110.188C478.224,512.989,474.87,527.93,468.924,541.478z"/>
</svg>
