<?xml version="1.0" encoding="iso-8859-1"?>
<!-- Generator: Adobe Illustrator 17.1.0, SVG Export Plug-In . SVG Version: 6.00 Build 0)  -->
<!DOCTYPE svg PUBLIC "-//W3C//DTD SVG 1.1//EN" "http://www.w3.org/Graphics/SVG/1.1/DTD/svg11.dtd">
<svg version="1.1" id="Layer_1" xmlns="http://www.w3.org/2000/svg" xmlns:xlink="http://www.w3.org/1999/xlink" x="0px" y="0px"
	 viewBox="0 0 800 800" style="enable-background:new 0 0 800 800;" xml:space="preserve">
<path d="M210.94,430.83v49.041h-46.226V430.83H65.154C29.17,430.83,0,460,0,495.984V713.24c0,35.984,29.17,65.154,65.154,65.154
	h244.739c35.984,0,65.154-29.17,65.154-65.154V495.984c0-35.984-29.17-65.154-65.154-65.154H210.94z M128.525,516.364l45.921,54.741
	c0,0-15.154,0-33.149,0v71.163h-25.546v-71.163c-17.413,0-32.18,0-33.149,0L128.525,516.364z M279.062,709.174H95.985v-23.113
	h183.078V709.174z M259.295,571.105v71.163h-25.546v-71.163c-17.413,0-32.18,0-33.149,0l45.921-54.741l45.921,54.741
	C292.444,571.105,277.29,571.105,259.295,571.105z M635.893,430.83v49.041h-46.226V430.83h-99.561
	c-35.984,0-65.154,29.17-65.154,65.154V713.24c0,35.984,29.17,65.154,65.154,65.154h244.739c35.984,0,65.154-29.17,65.154-65.154
	V495.984c0-35.984-29.17-65.154-65.154-65.154H635.893z M553.478,516.364l45.921,54.741c0,0-15.154,0-33.149,0v71.163h-25.546
	v-71.163c-17.413,0-32.18,0-33.149,0L553.478,516.364z M704.015,709.174H520.937v-23.113h183.078V709.174z M684.248,571.105v71.163
	h-25.546v-71.163c-17.413,0-32.18,0-33.149,0l45.921-54.741l45.921,54.741C717.396,571.105,702.242,571.105,684.248,571.105z
	 M412.663,21.606v49.041h-46.226V21.606h-99.561c-35.984,0-65.154,29.17-65.154,65.154v217.257c0,35.984,29.17,65.154,65.154,65.154
	h244.739c35.984,0,65.154-29.17,65.154-65.154V86.76c0-35.984-29.17-65.154-65.154-65.154H412.663z M330.248,107.14l45.921,54.741
	c0,0-15.154,0-33.149,0v71.163h-25.546v-71.163c-17.413,0-32.18,0-33.149,0L330.248,107.14z M480.785,299.95H297.707v-23.113
	h183.078V299.95z M461.018,161.881v71.163h-25.546v-71.163c-17.413,0-32.18,0-33.149,0l45.921-54.741l45.921,54.741
	C494.166,161.881,479.013,161.881,461.018,161.881z"/>
</svg>
