<?xml version="1.0" encoding="iso-8859-1"?>
<!-- Generator: Adobe Illustrator 17.1.0, SVG Export Plug-In . SVG Version: 6.00 Build 0)  -->
<!DOCTYPE svg PUBLIC "-//W3C//DTD SVG 1.1//EN" "http://www.w3.org/Graphics/SVG/1.1/DTD/svg11.dtd">
<svg version="1.1" id="Layer_1" xmlns="http://www.w3.org/2000/svg" xmlns:xlink="http://www.w3.org/1999/xlink" x="0px" y="0px"
	 viewBox="0 0 800 800" style="enable-background:new 0 0 800 800;" xml:space="preserve">
<path d="M614.723,638.796h46.232c14.158,0,25.635-11.477,25.635-25.635V119.249c0-35.394-28.693-64.087-64.087-64.087H481.783
	V18.575H318.217v36.587H177.498c-35.394,0-64.087,28.693-64.087,64.087v493.911c0,14.158,11.477,25.635,25.635,25.635h46.232
	L0,781.425h119.1l145.158-142.629h271.484L680.9,781.425H800L614.723,638.796z M535.742,557.971
	c0-21.69,17.583-39.274,39.274-39.274c21.69,0,39.274,17.583,39.274,39.274c0,21.69-17.583,39.274-39.274,39.274
	C553.325,597.245,535.742,579.661,535.742,557.971z M227.725,597.245c-21.69,0-39.274-17.584-39.274-39.274
	c0-21.69,17.583-39.274,39.274-39.274c21.69,0,39.274,17.583,39.274,39.274C266.999,579.661,249.415,597.245,227.725,597.245z
	 M190.008,394.174c-7.079,0-12.817-5.738-12.817-12.817V133.156c0-7.078,5.738-12.817,12.817-12.817h419.985
	c7.078,0,12.817,5.739,12.817,12.817v248.201c0,7.079-5.739,12.817-12.817,12.817H190.008z"/>
</svg>
