<?xml version="1.0" encoding="iso-8859-1"?>
<!-- Generator: Adobe Illustrator 17.1.0, SVG Export Plug-In . SVG Version: 6.00 Build 0)  -->
<!DOCTYPE svg PUBLIC "-//W3C//DTD SVG 1.1//EN" "http://www.w3.org/Graphics/SVG/1.1/DTD/svg11.dtd">
<svg version="1.1" id="Layer_1" xmlns="http://www.w3.org/2000/svg" xmlns:xlink="http://www.w3.org/1999/xlink" x="0px" y="0px"
	 viewBox="0 0 800 800" style="enable-background:new 0 0 800 800;" xml:space="preserve">
<path d="M800,723.642v41.97c0,7.727-6.264,13.99-13.99,13.99H13.99c-7.726,0-13.99-6.264-13.99-13.99v-41.97
	c0-7.726,6.264-13.99,13.99-13.99h772.02C793.736,709.652,800,715.915,800,723.642z M159.505,642.393h69.95
	c15.453,0,27.98-12.527,27.98-27.98v-350.19h45.52c21.54,0,35.002-23.319,24.23-41.972L218.699,34.386
	c-10.771-18.651-37.692-18.65-48.461,0.002L61.771,222.253c-10.77,18.653,2.692,41.97,24.231,41.97h45.523v350.19
	C131.525,629.866,144.052,642.393,159.505,642.393z M579.22,642.393h69.95c15.453,0,27.98-12.527,27.98-27.98v-350.19h45.525
	c21.54,0,35.002-23.319,24.23-41.972L638.418,34.386c-10.771-18.651-37.692-18.65-48.461,0.002L481.491,222.253
	c-10.77,18.653,2.692,41.97,24.231,41.97h45.518v350.19C551.24,629.866,563.767,642.393,579.22,642.393z"/>
</svg>
