<?xml version="1.0" encoding="iso-8859-1"?>
<!-- Generator: Adobe Illustrator 17.1.0, SVG Export Plug-In . SVG Version: 6.00 Build 0)  -->
<!DOCTYPE svg PUBLIC "-//W3C//DTD SVG 1.1//EN" "http://www.w3.org/Graphics/SVG/1.1/DTD/svg11.dtd">
<svg version="1.1" id="Layer_1" xmlns="http://www.w3.org/2000/svg" xmlns:xlink="http://www.w3.org/1999/xlink" x="0px" y="0px"
	 viewBox="0 0 800 800" style="enable-background:new 0 0 800 800;" xml:space="preserve">
<path d="M754.895,523.887l-57.166-4.56v218.483l-279.149,60.029c-13.046,2.864-26.621,2.864-39.666,0.106l-267.906-56.318
	c-4.773-1.06-8.273-5.197-8.379-10.076l-4.667-178.604c-0.106-5.621,4.136-10.394,9.652-10.924l227.603-19.939
	c3.925-0.318,7.318-2.863,8.803-6.576l54.727-132.787v364.315l247.33-46.984V515.084l-145.698-9.239
	c-11.773-0.747-22.167-7.946-27.005-18.705l-75.476-167.842L322.066,490.16c-1.591,3.5-4.878,5.834-8.591,6.258L45.251,523.463
	c-8.167,0.849-14.106-7.53-10.606-15.06l71.378-152.62c1.485-3.076,4.349-5.303,7.637-5.939l275.118-50.484l9.121-1.697l8.909,1.591
	l281.058,50.591c3.394,0.636,6.258,2.864,7.743,6.045l69.787,153.044C768.789,516.357,762.955,524.524,754.895,523.887z
	 M406.807,23.983c50.575,0,93.38,23.054,120.384,42.394c31.996,22.916,48.455,45.083,52.73,53.538
	c-4.274,8.455-20.734,30.622-52.73,53.538c-27.004,19.34-69.809,42.394-120.384,42.394c-50.576,0-93.381-23.054-120.384-42.394
	c-31.996-22.916-48.455-45.083-52.73-53.538c4.274-8.455,20.734-30.622,52.73-53.538C313.427,47.037,356.232,23.983,406.807,23.983
	 M406.807,0c-109.275,0-197.86,95.932-197.86,119.915s88.585,119.915,197.86,119.915c109.275,0,197.86-95.932,197.86-119.915
	S516.082,0,406.807,0L406.807,0z M406.807,47.966c-39.736,0-71.949,32.213-71.949,71.949s32.213,71.949,71.949,71.949
	c39.736,0,71.949-32.213,71.949-71.949S446.543,47.966,406.807,47.966z M387.436,119.915c-16.812,0-30.44-13.628-30.44-30.44
	c0-16.812,13.628-30.44,30.44-30.44s30.44,13.628,30.44,30.44C417.876,106.287,404.247,119.915,387.436,119.915z"/>
</svg>
