<?xml version="1.0" encoding="iso-8859-1"?>
<!-- Generator: Adobe Illustrator 17.1.0, SVG Export Plug-In . SVG Version: 6.00 Build 0)  -->
<!DOCTYPE svg PUBLIC "-//W3C//DTD SVG 1.1//EN" "http://www.w3.org/Graphics/SVG/1.1/DTD/svg11.dtd">
<svg version="1.1" id="Layer_1" xmlns="http://www.w3.org/2000/svg" xmlns:xlink="http://www.w3.org/1999/xlink" x="0px" y="0px"
	 viewBox="0 0 800 800" style="enable-background:new 0 0 800 800;" xml:space="preserve">
<path d="M797.952,670.217L672.477,282.385c-5.548-17.147-21.515-28.762-39.535-28.762H500.528
	c10.734-17.73,17.031-38.431,17.031-60.626c0-64.819-52.74-117.559-117.559-117.559s-117.559,52.74-117.559,117.559
	c0,22.194,6.297,42.896,17.031,60.626H167.059c-18.021,0-33.988,11.616-39.535,28.762L2.048,670.217
	c-8.683,26.838,11.328,54.344,39.536,54.344h716.831C786.624,724.561,806.635,697.055,797.952,670.217z M337.846,192.997
	c0-34.276,27.878-62.154,62.154-62.154s62.154,27.878,62.154,62.154c0,29.68-20.934,54.486-48.794,60.626h-26.72
	C358.78,247.484,337.846,222.677,337.846,192.997z M345.048,589.583l-35.914-68.962H292.02v68.962h-41.607V419.578h41.607v65.632
	h17.114l35.198-65.632h44.703l-45.904,81.314v0.484l48.518,88.207H345.048z M563.881,589.583h-34.714v-4.762
	c0-3.563,0.232-7.125,0.232-7.125h-0.464c0,0-16.418,14.734-44.704,14.734c-43.522,0-83.464-32.565-83.464-88.207
	c0-49.447,37.327-87.491,89.175-87.491c43.504,0,65.381,22.575,65.381,22.575l-19.98,31.152c0,0-17.347-15.682-41.374-15.682
	c-35.662,0-50.163,22.826-50.163,48.014c0,32.352,22.342,51.596,48.75,51.596c19.961,0,34.461-12.352,34.461-12.352v-13.088h-24.007
	v-35.429h60.87V589.583z"/>
</svg>
