<?xml version="1.0" encoding="iso-8859-1"?>
<!-- Generator: Adobe Illustrator 17.1.0, SVG Export Plug-In . SVG Version: 6.00 Build 0)  -->
<!DOCTYPE svg PUBLIC "-//W3C//DTD SVG 1.1//EN" "http://www.w3.org/Graphics/SVG/1.1/DTD/svg11.dtd">
<svg version="1.1" id="Layer_1" xmlns="http://www.w3.org/2000/svg" xmlns:xlink="http://www.w3.org/1999/xlink" x="0px" y="0px"
	 viewBox="0 0 800 800" style="enable-background:new 0 0 800 800;" xml:space="preserve">
<path d="M342.248,733.104c-30.74,0-55.746-25.006-55.746-55.747V343.236c79.576-15.632,139.802-85.897,139.802-169.986
	C426.303,77.719,348.585,0,253.054,0S79.803,77.719,79.803,173.249c0,84.089,60.226,154.354,139.802,169.986v334.121
	c0,67.622,55.017,122.643,122.642,122.643h377.948v-66.896H342.248z M253.054,301.909c-70.939,0-128.653-57.714-128.653-128.66
	c0-70.938,57.714-128.653,128.653-128.653s128.653,57.714,128.653,128.653C381.706,244.196,323.993,301.909,253.054,301.909z
	 M397.228,359.311c-34.467,0-62.408,27.941-62.408,62.408v208.101c0,34.467,27.941,62.407,62.408,62.407h234.425
	c34.467,0,62.408-27.941,62.408-62.407V421.72c0-34.467-27.941-62.408-62.408-62.408h-94.783v46.974h-44.278v-46.974H397.228z
	 M602.122,625.926H426.76v-22.139h175.362V625.926z M570.953,441.241l43.986,52.434c0,0-14.515,0-31.751,0v68.165h-24.469v-68.165
	c-16.679,0-30.825,0-31.752,0L570.953,441.241z M501.915,493.675c0,0-14.515,0-31.752,0v68.165h-24.469v-68.165
	c-16.679,0-30.824,0-31.751,0l43.986-52.434L501.915,493.675z M243.87,191.835c-10.263,1.787-20.031-5.084-21.818-15.346
	c-1.787-10.263,5.083-20.031,15.346-21.818c2.179-0.38,4.409-0.351,6.472,0l106.705,18.582L243.87,191.835z M253.053,94.989
	c8.872,0,16.064-7.192,16.064-16.064s-7.192-16.064-16.064-16.064c-8.872,0-16.064,7.192-16.064,16.064
	S244.181,94.989,253.053,94.989z M253.053,284.466c8.872,0,16.064-7.192,16.064-16.064s-7.192-16.064-16.064-16.064
	c-8.872,0-16.064,7.192-16.064,16.064S244.181,284.466,253.053,284.466z M157.431,188.844c8.872,0,16.064-7.192,16.064-16.064
	s-7.192-16.064-16.064-16.064c-8.872,0-16.064,7.192-16.064,16.064S148.558,188.844,157.431,188.844z"/>
</svg>
