<?xml version="1.0" encoding="iso-8859-1"?>
<!-- Generator: Adobe Illustrator 17.1.0, SVG Export Plug-In . SVG Version: 6.00 Build 0)  -->
<!DOCTYPE svg PUBLIC "-//W3C//DTD SVG 1.1//EN" "http://www.w3.org/Graphics/SVG/1.1/DTD/svg11.dtd">
<svg version="1.1" id="Layer_1" xmlns="http://www.w3.org/2000/svg" xmlns:xlink="http://www.w3.org/1999/xlink" x="0px" y="0px"
	 viewBox="0 0 800 800" style="enable-background:new 0 0 800 800;" xml:space="preserve">
<path d="M338.701,421.505c0,22.134-17.943,40.077-40.078,40.077c-22.134,0-40.076-17.943-40.076-40.077
	c0-22.134,17.943-40.077,40.076-40.077C320.758,381.428,338.701,399.371,338.701,421.505z M501.377,381.428
	c-22.134,0-40.078,17.943-40.078,40.077c0,22.134,17.944,40.077,40.078,40.077c22.134,0,40.077-17.943,40.077-40.077
	C541.454,399.371,523.511,381.428,501.377,381.428z M672.569,544.57v-4.566c-4.592,13.332-10.108,25.994-16.042,38.305
	c1.1,7.547,3.137,18.08,6.56,30.121c16.472,25.475,62.953,57.931,94.82,66.291c-17.182,7.298-37.88,10.302-58.012,7.222
	c18.442,23.204,44.43,44.274,81.098,56.809c-85.71,77.251-226.932,78.969-325.647,18.975c-19.129,5.626-37.824,8.574-55.347,8.574
	s-36.218-2.948-55.347-8.574c-98.715,59.995-239.936,58.276-325.646-18.975c37.402-12.786,63.634-34.466,82.137-58.219
	c-16.365,0.625-32.606-2.353-46.521-8.263c23.349-6.126,54.53-25.205,76.044-44.985c7.528-19.901,11.162-37.694,12.806-48.977
	c-5.934-12.311-11.45-24.973-16.042-38.305v4.566H78.963c-38.241,0-69.24-31-69.24-69.24v-76.164
	c0-26.315,14.681-49.198,36.299-60.913c0.726-108.136,32.243-192.59,93.81-250.976C200.901,29.366,288.435,0,400,0
	s199.1,29.366,260.168,87.277c61.567,58.386,93.083,142.839,93.81,250.976c21.617,11.715,36.298,34.598,36.298,60.913v76.164
	c0,38.24-30.999,69.24-69.24,69.24H672.569z M643.73,421.76c0-17.817-0.911-34.556-2.259-50.777
	c-31.239-28.58-88.39-50.134-160.452-57.736c11.433,10.249,21.25,23.917,26.501,43.432
	c-41.901-30.629-129.721-40.114-158.891-72.932l0.029-0.003c-46.431-30.735-58.615-74.757-59.007-56.537
	c-1.879,87.383-63.814,155.505-132.59,165.116c-0.435,9.61-0.792,19.312-0.792,29.436c0,36.935,6.031,70.596,16.286,100.933
	c38.631,46.599,102.43,59.757,158.899,63.248c10.482-16.679,34.003-28.322,61.394-28.322c37.136,0,67.24,21.369,67.24,47.73
	c0,26.361-30.104,47.73-67.24,47.73c-28.566,0-52.908-12.665-62.652-30.499c-39.466-2.294-82.85-9.021-121.517-27.28
	c54.38,80.15,138.676,122.534,191.32,122.534C482.723,717.833,643.73,613.33,643.73,421.76z M685.653,329.926h26.64
	C707.886,141.227,600.178,41.545,400,41.545S92.115,141.227,87.708,329.926h26.64c9.74-63.6,30.327-115.908,61.583-156.125
	C225.74,109.713,301.127,77.216,400,77.216s174.26,32.496,224.071,96.584C655.326,214.018,675.913,266.326,685.653,329.926z"/>
</svg>
