<?xml version="1.0" encoding="iso-8859-1"?>
<!-- Generator: Adobe Illustrator 17.1.0, SVG Export Plug-In . SVG Version: 6.00 Build 0)  -->
<!DOCTYPE svg PUBLIC "-//W3C//DTD SVG 1.1//EN" "http://www.w3.org/Graphics/SVG/1.1/DTD/svg11.dtd">
<svg version="1.1" id="Layer_1" xmlns="http://www.w3.org/2000/svg" xmlns:xlink="http://www.w3.org/1999/xlink" x="0px" y="0px"
	 viewBox="0 0 800 800" style="enable-background:new 0 0 800 800;" xml:space="preserve">
<path d="M693.5,41.929c35.605,0,64.571,28.966,64.571,64.57v587.141c0,35.527-28.966,64.43-64.571,64.43H106.36
	c-35.527,0-64.431-28.903-64.431-64.43V106.499c0-35.604,28.904-64.57,64.431-64.57H693.5 M693.5,0H106.36
	C47.799,0,0,47.799,0,106.499v587.141C0,752.34,47.799,800,106.36,800H693.5c58.7,0,106.5-47.659,106.5-106.359V106.499
	C800,47.799,752.201,0,693.5,0L693.5,0z M382.109,728.857v-91.678l-97.062,91.678H382.109z M564.503,728.857V464.673
	L418.032,603.207v125.65H564.503z M693.503,728.857c19.497,0,35.357-15.792,35.357-35.214v-384.21L600.419,430.743v298.114H693.503z
	 M232.813,728.857L728.86,259.971V106.505c0-19.504-15.86-35.364-35.357-35.364h-80.2L71.138,583.635v110.008
	c0,19.422,15.798,35.214,35.22,35.214H232.813z M418.032,206.468L561.029,71.142H418.032V206.468z M235.502,379.069l146.607-138.67
	V71.142H235.502V379.069z M71.138,534.35l128.441-121.487V71.142h-93.22c-19.422,0-35.22,15.86-35.22,35.364V534.35z"/>
</svg>
