<?xml version="1.0" encoding="iso-8859-1"?>
<!-- Generator: Adobe Illustrator 17.1.0, SVG Export Plug-In . SVG Version: 6.00 Build 0)  -->
<!DOCTYPE svg PUBLIC "-//W3C//DTD SVG 1.1//EN" "http://www.w3.org/Graphics/SVG/1.1/DTD/svg11.dtd">
<svg version="1.1" id="Layer_1" xmlns="http://www.w3.org/2000/svg" xmlns:xlink="http://www.w3.org/1999/xlink" x="0px" y="0px"
	 viewBox="0 0 800 800" style="enable-background:new 0 0 800 800;" xml:space="preserve">
<path d="M655.79,461.416c-5.014,12.319-13.783,22.159-24.595,28.714h19.51c-3.944,46.927-19.26,90.64-43.202,128.406
	c-20.898-5.162-42.755-9.642-65.448-13.332c4.749-37.175,7.572-75.674,8.452-115.073h18.347
	c-10.835-6.562-19.621-16.417-24.645-28.749c-11.714-28.726-27.094-51.066-44.137-71.714c1.146,17.199,1.943,34.6,2.28,52.222
	H392.513V335.611c19.416-0.436,38.501-1.456,57.353-2.828c-12.289-14.316-23.941-29.528-34.054-46.459
	c-7.77,0.344-15.436,0.861-23.298,1.045v-54.56c-1.948-6.927-3.696-14.062-5.029-21.621c-4.612-26.149-4.18-52.657,0.437-78.374
	c-7.239-0.47-14.516-0.795-21.872-0.795c-184.167,0-333.99,149.823-333.99,333.99S181.882,800,366.049,800
	s333.99-149.823,333.99-333.99c0-23.22-2.395-45.889-6.927-67.786C678.808,416.551,665.913,436.573,655.79,461.416z
	 M220.589,220.192c-4.47,17.8-8.434,36.54-11.909,56.137c-16.411-2.486-32.396-5.422-47.979-8.727
	C178.421,249.269,198.543,233.288,220.589,220.192z M127.191,309.437c23.782,5.798,48.606,10.697,74.301,14.589
	c-4.798,38-7.571,77.444-8.308,117.863H81.392C85.477,393.28,101.755,348.109,127.191,309.437z M124.623,618.582
	c-23.959-37.776-39.286-81.506-43.231-128.451h111.877c0.863,38.81,3.607,76.708,8.219,113.269
	C174.685,607.436,149.004,612.533,124.623,618.582z M157.029,660.565c16.654-3.611,33.88-6.791,51.682-9.473
	c3.836,21.569,8.28,42.114,13.33,61.571C197.89,698.508,175.996,680.929,157.029,660.565z M344.272,750.845
	c-22.264-1.688-43.836-5.876-64.396-12.394c-9.294-27.948-17.087-59.172-23.258-93.325c28.717-2.891,58.031-4.608,87.654-5.183
	V750.845z M344.272,591.704c-32.082,0.598-63.835,2.495-94.922,5.696c-4.361-34.598-6.983-70.49-7.838-107.269h102.76V591.704z
	 M344.272,441.889H241.424c0.729-38.401,3.378-75.839,7.928-111.861c31.093,3.201,62.843,5.097,94.92,5.694V441.889z
	 M344.272,287.482c-29.631-0.575-58.954-2.294-87.685-5.186c5.801-32.181,13.039-61.657,21.587-88.151
	c21.075-6.829,43.213-11.236,66.098-12.971V287.482z M465.397,733.917c-23.047,8.574-47.49,14.227-72.884,16.57v-110.43
	c32.328,0.757,63.911,2.863,94.451,6.328C481.166,678.175,473.934,707.448,465.397,733.917z M494.264,598.685
	c-32.871-3.794-66.902-6.088-101.751-6.87V490.13h109.751C501.398,527.316,498.724,563.635,494.264,598.685z M524.021,703.969
	c4.015-16.296,7.575-33.381,10.761-51.08c13.806,2.255,27.206,4.846,40.291,7.672C559.826,676.932,542.704,691.524,524.021,703.969z
	 M583.654,0.775c-98.427,9.304-165.838,104.675-148.661,202.037c17.448,98.898,108.631,129.341,153.884,240.356
	c4.078,10.004,18.163,10.053,22.239,0.049c50.164-123.128,156.826-147.158,156.826-275.281
	C767.942,69.792,683.753-8.688,583.654,0.775z M600.006,256.62c-48.98,0-88.685-39.706-88.685-88.685s39.705-88.685,88.685-88.685
	c48.98,0,88.685,39.706,88.685,88.685S648.986,256.62,600.006,256.62z"/>
</svg>
